<?xml version="1.0" encoding="UTF-8" standalone="no"?>
<!-- Created with Inkscape (http://www.inkscape.org/) -->

<svg
   xmlns:dc="http://purl.org/dc/elements/1.1/"
   xmlns:cc="http://creativecommons.org/ns#"
   xmlns:rdf="http://www.w3.org/1999/02/22-rdf-syntax-ns#"
   xmlns:svg="http://www.w3.org/2000/svg"
   xmlns="http://www.w3.org/2000/svg"
   xmlns:sodipodi="http://sodipodi.sourceforge.net/DTD/sodipodi-0.dtd"
   xmlns:inkscape="http://www.inkscape.org/namespaces/inkscape"
   width="210mm"
   height="297mm"
   viewBox="0 0 210 297"
   version="1.1"
   id="svg8"
   inkscape:version="0.92.5 (0.92.5+69)"
   sodipodi:docname="drawing-1.svg">
  <defs
     id="defs2" />
  <sodipodi:namedview
     id="base"
     pagecolor="#ffffff"
     bordercolor="#666666"
     borderopacity="1.0"
     inkscape:pageopacity="0.0"
     inkscape:pageshadow="2"
     inkscape:zoom="0.35"
     inkscape:cx="400"
     inkscape:cy="560"
     inkscape:document-units="mm"
     inkscape:current-layer="layer1"
     showgrid="false"
     inkscape:window-width="1299"
     inkscape:window-height="713"
     inkscape:window-x="67"
     inkscape:window-y="27"
     inkscape:window-maximized="1" />
  <metadata
     id="metadata5">
    <rdf:RDF>
      <cc:Work
         rdf:about="">
        <dc:format>image/svg+xml</dc:format>
        <dc:type
           rdf:resource="http://purl.org/dc/dcmitype/StillImage" />
        <dc:title></dc:title>
      </cc:Work>
    </rdf:RDF>
  </metadata>
  <g
     inkscape:label="Layer 1"
     inkscape:groupmode="layer"
     id="layer1">
    <g
       id="g75"
       transform="translate(117.92857,-14.363095)">
      <path
         style="fill:#9f9e9f;stroke-width:0.35277778"
         d="m 31.286817,199.20558 c -0.216461,-0.40446 -0.403628,-1.49988 -0.415929,-2.43427 -0.0181,-1.37543 -0.0831,-1.54776 -0.341408,-0.90514 l -0.319048,0.79375 H -3.8439949 c -27.8007281,0 -34.0544231,-0.0847 -34.0544231,-0.46109 0,-0.25359 3.569843,-5.05578 7.932981,-10.67152 4.363138,-5.61575 7.935013,-10.32951 7.9375,-10.47503 0.0055,-0.32098 -5.106857,-0.34306 -9.012816,-0.0389 l -2.843724,0.22142 -0.566921,3.56882 c -0.727354,4.57878 -1.703133,7.14383 -3.749668,9.85682 -2.834344,3.75736 -6.371033,5.53007 -11.032907,5.53007 -5.107382,0 -9.438883,-1.69854 -12.291762,-4.82004 -3.163351,-3.46121 -4.071987,-7.32025 -3.806388,-16.16601 l 0.183854,-6.12316 -4.10216,4.24793 c -2.256187,2.33636 -4.150339,4.52712 -4.209225,4.86834 -0.05889,0.34122 0.695174,3.40791 1.675695,6.81486 0.980518,3.40694 1.782762,6.52364 1.782762,6.92599 0,0.50829 -0.880349,1.3764 -2.884702,2.84459 -1.586587,1.16218 -2.995899,2.11305 -3.131806,2.11305 -0.57343,0 -1.179075,-1.54614 -5.8039,-14.81666 -2.670966,-7.6641 -4.992543,-14.08466 -5.159058,-14.26792 -0.183819,-0.2023 -0.593016,-0.0216 -1.04164,0.45991 -0.406386,0.4362 -0.923198,0.73252 -1.148472,0.65848 -0.432018,-0.14199 -1.544828,-2.73549 -3.256608,-7.58979 -0.892831,-2.5319 -0.960307,-2.9699 -0.503156,-3.26608 0.615269,-0.39861 7.031203,-2.43094 11.111287,-3.51964 3.924984,-1.04731 11.636241,-1.358 14.322587,-0.57705 3.373882,0.98081 6.319654,4.25241 6.311466,7.00956 -0.0018,0.63832 -0.394529,2.00063 -0.872518,3.02735 -0.621584,1.33517 -0.746181,1.90825 -0.437529,2.01243 0.237353,0.0801 2.479989,0.38892 4.983639,0.68624 2.503646,0.29732 4.646771,0.63529 4.7625,0.75104 0.115725,0.11575 0.212746,3.41189 0.215604,7.32476 0.0055,7.52869 0.261105,9.00788 1.930467,11.17126 0.931785,1.20754 1.717216,0.67589 2.734151,-1.8507 1.423325,-3.53627 1.915813,-6.01863 2.152449,-10.8493 l 0.233296,-4.7625 h 3.527778 3.527777 l -0.106288,-1.00038 c -0.224949,-2.11721 -2.313997,-2.00037 34.1020198,-1.90723 l 33.3848262,0.0854 0.109537,-1.72501 0.109538,-1.72501 -1.455237,0.19519 c -1.101037,0.14768 -1.504922,0.0657 -1.659382,-0.33681 -0.337453,-0.87939 0.605723,-5.30071 1.246413,-5.84278 0.324937,-0.27492 3.016,-1.50682 5.980138,-2.73755 3.87943,-1.61076 5.49674,-2.13028 5.77269,-1.85433 0.228924,0.22892 0.712255,5.54707 1.199843,13.20204 0.449072,7.05029 0.829412,12.89808 0.845203,12.99509 0.0158,0.097 0.495931,-0.63822 1.066979,-1.63386 3.28821,-5.7331 11.999987,-8.69211 19.114478,-6.49237 2.347768,0.72591 5.094849,2.29859 5.398841,3.09078 0.09871,0.25723 -2.419026,3.56652 -5.645552,7.42048 -3.203043,3.82591 -5.671835,7.00682 -5.486203,7.0687 1.022477,0.34082 5.681881,-3.41362 5.681881,-4.57834 0,-0.71659 1.546476,-0.18325 2.404026,0.82909 2.750167,3.24657 4.298752,5.3331 4.298752,5.79205 0,0.97168 -2.801031,3.55039 -5.044845,4.64443 -3.730597,1.81897 -6.252384,2.35275 -11.182933,2.36707 -3.871733,0.0112 -4.62438,-0.0861 -6.169216,-0.79818 -0.967722,-0.44603 -2.133956,-1.16041 -2.591632,-1.5875 l -0.832136,-0.77651 0.11774,3.77917 c 0.07236,2.32276 -0.02466,3.92157 -0.251778,4.14868 -0.203235,0.20324 -2.603817,0.47116 -5.334628,0.59538 -4.788024,0.21781 -4.979144,0.19963 -5.358673,-0.50952 z M 4.468307,183.4206 c 3.3771206,-4.37121 6.200846,-8.12496 6.274943,-8.34167 0.09805,-0.28675 -1.822718,-0.32946 -7.0555556,-0.1569 -4.28145937,0.14119 -7.3907087,0.10426 -7.6857227,-0.0913 -0.2724961,-0.18062 -0.6179926,-1.23146 -0.767775,-2.33521 -0.1497824,-1.10374 -0.3611703,-2.09565 -0.4697518,-2.20423 -0.108585,-0.10858 -0.5568351,0.26202 -0.9961175,0.82356 -0.4392789,0.56153 -3.4641156,4.35608 -6.7218564,8.43232 l -5.923167,7.41135 8.392612,0.17639 8.3926115,0.17639 0.1057981,2.02847 c 0.058191,1.11566 0.1525905,2.02848 0.2097793,2.02848 0.057189,0 2.8670815,-3.57645 6.2442021,-7.94766 z m 25.888549,0.80391 c -0.27873,-4.32119 -0.874716,-14.96804 -0.874716,-15.62618 0,-0.31471 -0.139612,-0.51929 -0.310251,-0.45461 -0.276094,0.10464 -14.375892,17.57102 -15.001755,18.58369 -0.187735,0.30376 1.864667,0.40751 8.0613,0.40751 h 8.313156 z m 21.513324,-5.27929 c 1.46709,-1.78795 2.612736,-3.41513 2.545881,-3.61597 -0.369909,-1.11124 -4.034124,-0.0289 -5.025743,1.48451 -1.098836,1.67703 -1.428436,5.38227 -0.47878,5.38227 0.160162,0 1.491548,-1.46286 2.958642,-3.25081 z M -72.206432,164.276 c 1.071425,-1.55565 1.20565,-1.93525 0.779607,-2.20474 -0.675597,-0.42734 -2.32786,-0.41893 -3.866038,0.0197 -2.189953,0.62446 -2.261525,0.74113 -1.759028,2.86745 0.245893,1.0405 0.589298,2.27455 0.763122,2.74232 l 0.316043,0.85051 1.236017,-1.198 c 0.67981,-0.6589 1.818435,-2.04364 2.530277,-3.0772 z M 7.3475911,151.81583 C 5.7590715,151.35706 3.8327073,149.31773 3.37211,147.6072 3.1552822,146.80196 3.0929675,145.46321 3.2298312,144.55054 l 0.243519,-1.6239 -2.2532447,0.21692 c -1.23928365,0.1193 -3.5074437,0.54078 -5.0403514,0.93661 -2.0991937,0.54207 -2.9054955,0.62145 -3.2667576,0.32163 -0.6444897,-0.53488 -1.4160783,-3.37178 -1.8883525,-6.94292 -0.446211,-3.37407 -0.1534054,-4.75018 1.3253932,-6.22898 0.8702076,-0.87021 1.0793096,-0.91802 3.0785189,-0.70392 1.796408,0.19238 2.2781049,0.12183 2.9647587,-0.43419 1.69376725,-1.37152 1.21928818,-5.68364 -0.6921465,-6.29031 -0.4093493,-0.12992 -1.4344933,-0.13271 -2.2781049,-0.006 -1.8477266,0.27708 -3.3544935,-0.38218 -3.9722426,-1.73799 -0.9715607,-2.13234 -0.065476,-9.87124 1.3176814,-11.2544 0.679376,-0.67938 0.7172678,-0.67881 3.9713078,0.0597 6.3769206,1.4473 6.8221932,1.37328 6.4553184,-1.07321 -0.4992934,-3.32954 2.0665512,-6.56131 5.4688636,-6.88823 2.293535,-0.22038 3.268673,0.063 4.778308,1.38845 1.89012,1.65954 2.400166,2.88961 2.184478,5.26826 -0.162031,1.78691 -0.10425,2.03993 0.502055,2.19849 0.928529,0.24281 4.528743,-0.30283 7.520443,-1.13978 1.351577,-0.37812 2.581889,-0.61056 2.734028,-0.51653 0.152136,0.094 0.276613,7.94034 0.276613,17.43625 0,15.05423 -0.06726,17.26529 -0.525229,17.26529 -0.28888,0 -1.744074,-0.33439 -3.233773,-0.74308 -1.489696,-0.40869 -3.753655,-0.76588 -5.031017,-0.79375 l -2.322481,-0.0507 0.119532,1.84003 c 0.212774,3.27542 -1.051948,5.41799 -3.900562,6.60792 -1.453586,0.6072 -2.6987466,0.65053 -4.4187959,0.15379 z m -59.5589801,-7.83535 c -0.09884,-0.25758 -0.01722,-0.8957 0.18136,-1.41803 0.717045,-1.88597 1.431611,-5.60487 1.431611,-7.45069 v -1.88493 l -2.059263,0.18672 c -2.500048,0.2267 -4.240255,-0.47756 -5.606655,-2.269 -1.087282,-1.4255 -1.462296,-4.2704 -0.819616,-6.21774 0.850738,-2.57776 4.500104,-4.58949 6.957438,-3.83531 0.624731,0.19173 1.224121,0.26036 1.331983,0.15249 0.414175,-0.41417 0.161629,-3.55312 -0.511916,-6.36267 -0.386694,-1.61302 -0.703082,-3.22212 -0.703082,-3.57578 0,-0.97734 1.989448,-1.73159 6.082979,-2.30622 4.16863,-0.58517 5.788515,-0.33609 7.237483,1.11288 0.792445,0.79244 0.862542,1.08255 0.682678,2.82528 -0.110755,1.07309 -0.0351,2.30503 0.169051,2.75312 0.789615,1.73301 4.151718,2.18504 5.787387,0.77809 0.96423,-0.82939 1.046423,-1.25762 0.816733,-4.255 -0.08986,-1.17262 0.0646,-1.5184 1.085921,-2.43094 l 1.190678,-1.06387 3.554793,0.20974 c 3.915915,0.23106 7.064375,1.01568 7.548754,1.88122 0.20036,0.35802 0.07352,1.4683 -0.351491,3.07665 -0.757131,2.86522 -1.18794,6.27161 -0.891025,7.04535 0.165033,0.43007 0.457398,0.45803 1.642968,0.1571 2.840549,-0.72101 6.224743,1.52037 7.077572,4.68754 0.6669161,2.47674 -0.216185,4.93601 -2.359751,6.57146 -1.121333,0.85552 -1.631129,0.99317 -3.792732,1.02412 l -2.497275,0.0358 -0.101399,1.72814 c -0.05933,1.01117 0.266513,3.17472 0.7854,5.21492 0.487743,1.91772 0.801814,3.62429 0.697942,3.79236 -0.103875,0.16807 -7.88385,0.30558 -17.288835,0.30558 -13.887306,0 -17.13374,-0.088 -17.279691,-0.46833 z m 14.143772,-36.67453 c -0.772157,-0.43732 -1.772229,-1.4269 -2.222384,-2.19905 -0.683965,-1.17323 -0.79327,-1.76624 -0.665173,-3.60879 l 0.153286,-2.204857 h -1.854419 c -1.01993,0 -3.404137,0.393118 -5.298239,0.873597 -1.8941,0.48048 -3.58133,0.78861 -3.7494,0.68474 -0.168071,-0.10388 -0.305583,-7.883854 -0.305583,-17.28884 0,-13.355528 0.09656,-17.136625 0.440972,-17.267351 0.242535,-0.09205 1.552222,0.155283 2.910417,0.549639 1.358194,0.39436 3.686746,0.814687 5.174558,0.93406 l 2.705114,0.217047 -0.191265,-2.109319 c -0.237793,-2.622423 0.491525,-4.353662 2.4237,-5.753322 2.575655,-1.865796 5.579597,-1.664684 8.01624,0.536677 1.600539,1.445991 2.291246,3.439753 1.95906,5.654929 l -0.235575,1.57092 1.539364,-7.06e-4 c 0.846649,-3.52e-4 3.073044,-0.371782 4.947546,-0.825344 2.176896,-0.526733 3.608649,-0.712478 3.963067,-0.514139 0.685253,0.383491 1.459512,3.054534 2.0031,6.910321 0.361774,2.56613 0.337976,3.118859 -0.194285,4.512568 -0.819838,2.146712 -1.835344,2.76993 -4.037468,2.477808 -2.030543,-0.26936 -3.310308,0.203546 -3.868977,1.429689 -0.903771,1.983563 -0.05077,4.866273 1.559535,5.270436 0.484025,0.121483 1.580921,0.115775 2.437547,-0.0127 1.381389,-0.207151 1.683162,-0.121281 2.668869,0.75945 0.638941,0.570893 1.217465,1.511744 1.36095,2.213307 0.54133,2.646821 -0.831144,10.05287 -1.941975,10.47914 -0.302235,0.11597 -2.03201,-0.12967 -3.843948,-0.54589 -1.811937,-0.416177 -4.033551,-0.756717 -4.936924,-0.756717 h -1.642498 l 0.235571,1.712807 c 0.367101,2.66913 -1.027419,5.36871 -3.415037,6.61099 -1.482686,0.77144 -4.451936,0.61991 -6.095746,-0.3111 z m 35.7261485,-5.36941 c -3.1385899,-0.50407 -5.0392684,-1.22497 -5.3011565,-2.010629 -0.080761,-0.242288 0.1508584,-1.555317 0.5147099,-2.91784 0.3638514,-1.362526 0.7576432,-3.567155 0.8750935,-4.899176 l 0.213547,-2.421862 -1.8061729,0.248412 c -2.3818215,0.327586 -3.9505715,-0.223859 -5.4926615,-1.930767 -2.184718,-2.418221 -2.43639,-5.178133 -0.715159,-7.842653 1.268169,-1.963155 3.305359,-2.872189 5.907857,-2.636206 l 2.0971088,0.190162 -0.2162705,-2.705115 C -6.3835223,73.523054 -6.80621,71.144969 -7.2038753,69.726238 -7.6015405,68.307503 -7.8348748,66.997815 -7.7223986,66.815821 -7.46153,66.393733 26.54651,66.368795 26.807138,66.790491 c 0.103872,0.168071 -0.204258,1.855301 -0.684734,3.7494 -0.48048,1.894114 -0.873598,4.281548 -0.873598,5.305422 V 77.7069 l 2.0938,-0.189858 c 1.829777,-0.165918 2.296936,-0.07081 3.704759,0.754229 2.033256,1.191566 3.021376,3.015562 3.019566,5.573899 -0.0014,2.200138 -0.74712,3.618012 -2.675696,5.08847 -1.178934,0.898889 -1.593024,1.00637 -3.734202,0.969222 l -2.408227,-0.04178 0.0025,1.629283 c 0.0014,0.896102 0.318859,2.949025 0.705556,4.562045 0.386694,1.61302 0.703083,3.248307 0.703083,3.633971 0,0.954039 -1.864932,1.693999 -5.820834,2.309589 -4.077219,0.63446 -5.966915,0.38047 -7.332991,-0.9856 -0.996184,-0.99618 -1.0336,-1.142555 -0.806097,-3.153424 0.227708,-2.012678 0.190754,-2.156573 -0.811114,-3.158444 -2.58367,-2.583667 -7.0414689,-0.262354 -6.0544108,3.152722 0.411928,1.425208 -0.056462,2.631816 -1.3995541,3.605346 -1.2519343,0.90747 -3.2385142,1.04817 -6.7763851,0.47997 z"
         id="path89"
         inkscape:connector-curvature="0" />
      <path
         style="fill:#cb68a3;stroke-width:0.35277778"
         d="m 31.477013,197.89389 c -0.127042,-0.92687 -0.242143,-2.65525 -0.255781,-3.84084 -0.03397,-2.95377 -0.516672,-4.12955 -0.812543,-1.97924 -0.120135,0.87313 -0.258695,2.14313 -0.307908,2.82222 l -0.08948,1.23473 -33.6020841,0.09 c -26.7701369,0.0717 -33.6002709,-4e-5 -33.5931629,-0.35278 0.0049,-0.24351 3.574024,-5.02643 7.931373,-10.62871 4.357349,-5.60228 7.836465,-10.32509 7.731369,-10.49514 -0.231253,-0.37418 -11.795539,-0.40776 -12.380017,-0.036 -0.226886,0.14433 -0.590797,1.56448 -0.80869,3.15588 -0.803025,5.86495 -2.227626,9.08331 -5.438977,12.28732 -1.50496,1.50152 -2.693751,2.34052 -3.923146,2.76879 -2.633885,0.91752 -6.60134,1.09739 -9.444327,0.42819 -8.17008,-1.92314 -11.574202,-7.17759 -11.530461,-17.7979 0.0085,-2.06874 0.155289,-4.95196 0.326157,-6.40717 0.170864,-1.4552 0.193647,-2.76689 0.05063,-2.91485 -0.143016,-0.14795 -1.40819,1.07938 -2.811494,2.72742 -1.403304,1.64805 -3.40941,3.73714 -4.458011,4.64244 -1.048603,0.9053 -1.980995,1.84 -2.071984,2.07711 -0.09099,0.23711 0.692105,3.42845 1.740207,7.09186 1.048103,3.66341 1.908274,6.905 1.911492,7.20354 0.007,0.65225 -4.634389,4.04332 -5.534167,4.04332 -0.516653,0 -1.544838,-2.60347 -5.57289,-14.11111 -2.716643,-7.76111 -5.074966,-14.32149 -5.240719,-14.57862 -0.237832,-0.36894 -0.474133,-0.30519 -1.120874,0.30239 -0.450733,0.42344 -1.012423,0.70559 -1.248205,0.62699 -0.552157,-0.18405 -3.964856,-9.49752 -3.600835,-9.82689 0.396148,-0.35844 5.268616,-1.91336 9.976316,-3.18368 3.194018,-0.86187 5.040919,-1.13514 8.682987,-1.28475 5.678163,-0.23326 7.523071,0.2485 10.06814,2.62912 2.629652,2.45973 2.952161,4.38181 1.30586,7.78261 -0.41959,0.86676 -0.608316,1.6623 -0.433846,1.82879 0.169841,0.16207 2.44329,0.55169 5.052106,0.86581 2.60882,0.31412 4.813452,0.64128 4.899191,0.72701 0.08574,0.0857 0.17375,3.37521 0.195584,7.30994 0.03697,6.66288 0.09512,7.27427 0.846924,8.90505 1.641616,3.56093 2.780153,3.9147 4.115819,1.27889 1.58363,-3.12515 2.35367,-6.57692 2.604065,-11.67294 l 0.234004,-4.7625 h 3.527778 3.527778 l 0.02099,-1.13811 c 0.01154,-0.62596 0.131731,-1.24886 0.267096,-1.38423 0.13536,-0.13536 15.286546,-0.25821 33.6692951,-0.273 l 33.4231769,-0.0269 v -2.11667 -2.11667 l -1.550039,0.1235 -1.550039,0.12349 0.241424,-1.5346 c 0.655934,-4.16944 0.300902,-3.81901 6.474132,-6.39016 3.056209,-1.27291 5.681691,-2.19545 5.834401,-2.05009 0.152711,0.14536 0.650205,6.25129 1.105542,13.56875 0.455334,7.31745 0.915307,13.39188 1.02216,13.49873 0.106853,0.10685 0.667473,-0.74312 1.245828,-1.88883 1.351505,-2.67732 3.163686,-4.42504 6.133959,-5.91576 3.111973,-1.56185 5.741843,-2.08148 9.386394,-1.85466 2.506645,0.15601 3.344781,0.38514 5.644444,1.54309 1.485375,0.74793 2.745828,1.60558 2.801003,1.90589 0.05518,0.3003 -2.541447,3.68856 -5.770273,7.52944 -3.680894,4.37865 -5.746401,7.10764 -5.537631,7.31641 0.779,0.779 4.438467,-1.44184 5.935557,-3.60215 0.527043,-0.76052 1.145261,-1.38277 1.373815,-1.38277 0.378626,0 5.16073,5.55144 5.399723,6.26843 0.236841,0.71051 -1.657269,2.73991 -3.706432,3.97115 -3.318189,1.99374 -7.200801,2.96344 -11.90619,2.97364 -4.458988,0.01 -6.747835,-0.59801 -8.590058,-2.28062 -0.635183,-0.58015 -1.290775,-1.05482 -1.456873,-1.05482 -0.166099,0 -0.21323,1.80238 -0.104737,4.0053 0.115803,2.35131 0.06026,4.08996 -0.134496,4.21033 -0.182471,0.11277 -2.482222,0.31658 -5.110565,0.45291 l -4.778802,0.24786 z M 4.9388914,183.47141 c 3.5939519,-4.63431 6.4495646,-8.56337 6.3458096,-8.73125 -0.103756,-0.16788 -3.5852105,-0.30524 -7.7365619,-0.30524 h -7.5479172 l -0.1923767,-1.23472 c -0.1058052,-0.6791 -0.2789414,-1.79035 -0.3847466,-2.46945 -0.1058086,-0.67909 -0.341958,-1.23472 -0.5247851,-1.23472 -0.4224726,0 -14.0995085,17.05995 -14.0995085,17.58692 0,0.2738 2.52609,0.42049 8.378472,0.48656 l 8.3784727,0.0946 0.1056393,2.22844 c 0.058103,1.22565 0.2490576,2.17815 0.4243459,2.11667 0.1752882,-0.0615 3.2592081,-3.90348 6.8531565,-8.53779 z M 30.56909,180.21265 c -0.595665,-11.13614 -0.755657,-12.83512 -1.206814,-12.81534 -0.477827,0.0209 -15.755137,19.11311 -15.755137,19.68931 0,0.42038 16.506494,0.767 17.046995,0.35797 0.159526,-0.12072 0.121257,-3.37509 -0.08504,-7.23194 z m 21.65621,-1.05227 c 1.65529,-2.05767 3.009618,-3.88027 3.009618,-4.05023 0,-0.48283 -1.645215,-0.77601 -2.965143,-0.5284 -3.070888,0.57611 -5.220727,4.46494 -4.099144,7.41493 0.189226,0.4977 0.501773,0.90491 0.694549,0.90491 0.192779,0 1.704834,-1.68355 3.36012,-3.74121 z M -73.613553,166.68852 c 2.750178,-3.26721 3.160282,-4.04671 2.52912,-4.80722 -0.388891,-0.46858 -0.919381,-0.54827 -2.698922,-0.40543 -2.933507,0.23548 -4.122706,1.00146 -3.879099,2.4986 0.32276,1.98361 1.35309,5.16878 1.671976,5.16878 0.170861,0 1.240476,-1.10462 2.376925,-2.45473 z M 7.4335278,151.32727 c -2.7593079,-0.97557 -4.5316812,-4.19468 -3.6988645,-6.71814 0.218701,-0.66267 0.2976104,-1.36671 0.1753482,-1.56453 -0.318576,-0.51547 -3.15387932,-0.42185 -5.8250951,0.19235 -4.6255941,1.06358 -4.8172442,1.06114 -5.3922861,-0.0688 -0.6906366,-1.35702 -1.3104918,-5.12745 -1.3104918,-7.97139 0,-2.06328 0.110363,-2.43319 1.0148746,-3.40147 0.982719,-1.052 1.0867214,-1.07971 3.2825162,-0.87467 2.2252694,0.2078 2.2854074,0.19064 3.2184588,-0.91822 1.32827184,-1.57856 1.34116587,-4.08559 0.029034,-5.64497 -0.888231,-1.05561 -1.0113222,-1.0919 -3.381802,-0.99721 -2.3438556,0.0936 -2.5025315,0.0489 -3.3601978,-0.9481 -0.8679463,-1.00889 -0.8926195,-1.16679 -0.6890562,-4.40972 0.2110987,-3.363 1.00971,-6.84815 1.6615446,-7.25101 0.1902601,-0.11758 1.6545737,0.1084 3.2540294,0.50219 6.4274631,1.58247 7.9829062,1.34148 7.2951236,-1.13023 -1.2545449,-4.50852 4.1193439,-8.47344 8.4737083,-6.25201 2.271737,1.15895 3.021838,2.5614 2.970939,5.5547 -0.03791,2.22917 0.04194,2.57517 0.637872,2.76431 0.884114,0.28061 3.656912,-0.0865 7.048955,-0.93315 1.487537,-0.3713 2.876599,-0.6751 3.086805,-0.6751 0.451221,0 0.555929,33.36488 0.105583,33.64321 -0.152139,0.094 -1.382451,-0.14319 -2.734028,-0.52713 -1.351579,-0.38395 -3.727414,-0.72932 -5.279637,-0.7675 l -2.822222,-0.0694 0.11406,1.97789 c 0.185851,3.22271 -1.20819,5.54599 -3.93029,6.55013 -1.4858291,0.54811 -2.2532267,0.53603 -3.9448808,-0.0621 z m -59.0860918,-7.8486 c 0.0025,-0.33955 0.24173,-1.49049 0.532063,-2.55764 0.817696,-3.00554 1.220142,-6.32379 0.876564,-7.22746 -0.286388,-0.75326 -0.46095,-0.79711 -2.535883,-0.63701 -1.930601,0.14897 -2.392168,0.0602 -3.454647,-0.6645 -1.894769,-1.29235 -2.830618,-2.92767 -2.830618,-4.94627 0,-1.99616 0.542879,-3.20435 2.108634,-4.69281 1.026347,-0.97569 1.317134,-1.05968 3.723492,-1.07556 1.435608,-0.009 2.71592,-0.12295 2.845128,-0.25216 0.450709,-0.45071 0.146949,-3.91047 -0.616723,-7.02438 -0.556905,-2.27079 -0.662809,-3.24368 -0.383497,-3.52299 0.674303,-0.67431 4.029741,-1.38957 7.497985,-1.59831 3.295583,-0.19835 3.378454,-0.18396 4.532534,0.78714 1.165522,0.98072 1.173533,1.00826 0.93658,3.2209 -0.230361,2.15107 -0.200727,2.26998 0.820187,3.29089 0.871816,0.87182 1.347914,1.05919 2.691342,1.05919 3.246487,0 4.581207,-1.49742 4.203001,-4.71535 -0.209698,-1.78421 -0.172388,-1.89446 0.964809,-2.85135 1.158271,-0.97462 1.249242,-0.99094 4.362372,-0.78266 3.547325,0.23734 6.822479,1.07682 7.108441,1.82202 0.103402,0.26946 -0.153367,1.96742 -0.570601,3.77322 -0.417233,1.80581 -0.708561,4.07703 -0.647396,5.04717 l 0.111213,1.76389 2.169947,-0.12131 c 3.980822,-0.22255 6.170447,1.62817 6.404194,5.41298 0.109643,1.77533 -0.0036,2.31442 -0.702325,3.34299 -0.458177,0.67449 -1.384896,1.59964 -2.059379,2.05591 -1.037787,0.70203 -1.578867,0.8118 -3.519381,0.71395 l -2.293056,-0.11563 -0.101882,2.11667 c -0.06681,1.38797 0.189385,3.23688 0.744184,5.37062 0.465343,1.78968 0.762544,3.3375 0.66045,3.43959 -0.102091,0.10209 -7.699788,0.18562 -16.883772,0.18562 -15.669409,0 -16.69789,-0.038 -16.69396,-0.61736 z m 14.459702,-36.11412 c -2.47892,-0.98557 -3.746818,-3.44106 -3.363003,-6.51301 0.227944,-1.824391 0.20162,-1.913213 -0.580362,-1.958443 -1.943463,-0.112405 -4.174405,0.147497 -6.698745,0.780394 -1.487537,0.372949 -2.955975,0.678099 -3.263195,0.678099 -0.501727,0 -0.558585,-1.699701 -0.558585,-16.698151 0,-9.183984 0.08353,-16.781682 0.185625,-16.883772 0.10209,-0.102094 1.649903,0.195107 3.439583,0.660449 2.133742,0.5548 3.98265,0.810994 5.370626,0.744185 l 2.116667,-0.101882 v -2.530775 c 0,-2.821704 0.524309,-3.877074 2.642245,-5.318531 1.426373,-0.970777 4.08704,-1.065382 5.890783,-0.209448 2.400331,1.139032 3.32136,3.447003 2.864005,7.176809 -0.101216,0.825447 0.0048,0.889067 1.655745,0.993158 0.970139,0.06117 3.241368,-0.230163 5.04717,-0.647397 1.805806,-0.417233 3.503761,-0.674003 3.773227,-0.5706 0.799701,0.306874 1.623769,3.679596 1.838022,7.522595 l 0.200346,3.593588 -1.099214,1.099214 c -1.057973,1.057973 -1.178327,1.090259 -3.207963,0.860633 -2.021502,-0.228706 -2.153225,-0.194106 -3.183643,0.836312 -0.908005,0.908004 -1.07489,1.345576 -1.07489,2.818342 0,2.933845 1.967848,4.674521 4.495561,3.976585 1.597751,-0.441162 2.992257,0.231105 3.619235,1.744762 0.805977,1.945802 -0.271402,10.052593 -1.431237,10.769414 -0.194515,0.12021 -1.7858,-0.11766 -3.536188,-0.528596 -3.624852,-0.851017 -6.468724,-1.065072 -7.006682,-0.527392 -0.250497,0.250363 -0.254663,0.754895 -0.01309,1.587498 1.266793,4.36641 -3.678231,8.41274 -8.122028,6.64596 z m 33.9383623,-5.99534 c -2.215702,-0.36879 -3.9522507,-1.19517 -3.9522507,-1.880772 0,-0.270739 0.3254975,-1.862773 0.7233285,-3.537853 0.3978311,-1.675077 0.6756436,-3.870424 0.6173611,-4.87855 -0.092897,-1.606854 -0.1929976,-1.819318 -0.8115229,-1.722452 -4.7863093,0.749596 -7.5709463,-1.102512 -7.8698163,-5.234337 -0.173828,-2.40315 0.424296,-3.757203 2.286684,-5.176675 1.137959,-0.867326 1.602465,-0.988374 3.7927321,-0.988374 h 2.4959558 l -0.026599,-2.822222 C -6.015702,73.317 -6.2942836,71.431001 -6.7760969,69.864474 -7.1890727,68.52177 -7.4455422,67.291457 -7.3460306,67.130446 c 0.099501,-0.161012 7.71217752,-0.292749 16.9170461,-0.292749 18.6954415,0 17.1656805,-0.230901 16.3760685,2.471772 -0.662118,2.26628 -1.350416,6.866347 -1.1673,7.801374 0.176361,0.900543 0.247209,0.923431 2.730275,0.881945 2.298911,-0.03841 2.680434,0.05723 3.885579,0.974051 4.960331,3.773586 1.170824,12.166269 -4.721493,10.456775 -0.74531,-0.216232 -1.347202,-0.227387 -1.545936,-0.02865 -0.518315,0.518315 -0.303724,3.711236 0.467745,6.959533 0.391152,1.64695 0.711185,3.1366 0.711185,3.310326 0,0.966107 -4.806495,2.097877 -8.90947,2.097877 -2.005418,0 -2.479357,-0.12964 -3.445305,-0.94244 -1.097171,-0.923211 -1.115244,-0.987028 -0.885913,-3.128478 0.21198,-1.979457 0.154224,-2.278905 -0.611163,-3.168724 -0.691254,-0.803631 -1.208275,-1.012782 -2.8375577,-1.147896 -1.911029,-0.158479 -2.0443261,-0.113178 -3.2681405,1.110636 -1.2205406,1.220541 -1.2654457,1.351513 -1.035812,3.02114 0.3065321,2.228758 0.024835,3.076842 -1.2391214,3.730462 -1.1198896,0.57912 -4.29823752,0.63628 -7.3291561,0.13181 z"
         id="path87"
         inkscape:connector-curvature="0" />
      <path
         style="fill:#2ca6dd;stroke-width:0.35277778"
         d="m 31.477013,197.89389 c -0.127042,-0.92687 -0.242143,-2.65525 -0.255781,-3.84084 -0.03397,-2.95377 -0.516672,-4.12955 -0.812543,-1.97924 -0.120135,0.87313 -0.258695,2.14313 -0.307908,2.82222 l -0.08948,1.23473 -33.6020841,0.09 c -26.7701369,0.0717 -33.6002709,-4e-5 -33.5931629,-0.35278 0.0049,-0.24351 3.574024,-5.02643 7.931373,-10.62871 4.357349,-5.60228 7.836465,-10.32509 7.731369,-10.49514 -0.231253,-0.37418 -11.795539,-0.40776 -12.380017,-0.036 -0.226886,0.14433 -0.590797,1.56448 -0.80869,3.15588 -0.803025,5.86495 -2.227626,9.08331 -5.438977,12.28732 -1.50496,1.50152 -2.693751,2.34052 -3.923146,2.76879 -2.633885,0.91752 -6.60134,1.09739 -9.444327,0.42819 -8.17008,-1.92314 -11.574202,-7.17759 -11.530461,-17.7979 0.0085,-2.06874 0.155289,-4.95196 0.326157,-6.40717 0.170864,-1.4552 0.193647,-2.76689 0.05063,-2.91485 -0.143016,-0.14795 -1.40819,1.07938 -2.811494,2.72742 -1.403304,1.64805 -3.40941,3.73714 -4.458011,4.64244 -1.048603,0.9053 -1.980995,1.84 -2.071984,2.07711 -0.09099,0.23711 0.692105,3.42845 1.740207,7.09186 1.048103,3.66341 1.908274,6.905 1.911492,7.20354 0.007,0.65225 -4.634389,4.04332 -5.534167,4.04332 -0.516653,0 -1.544838,-2.60347 -5.57289,-14.11111 -2.716643,-7.76111 -5.074966,-14.32149 -5.240719,-14.57862 -0.237832,-0.36894 -0.474133,-0.30519 -1.120874,0.30239 -0.450733,0.42344 -1.012423,0.70559 -1.248205,0.62699 -0.552157,-0.18405 -3.964856,-9.49752 -3.600835,-9.82689 0.396148,-0.35844 5.268616,-1.91336 9.976316,-3.18368 3.194018,-0.86187 5.040919,-1.13514 8.682987,-1.28475 5.678163,-0.23326 7.523071,0.2485 10.06814,2.62912 2.629652,2.45973 2.952161,4.38181 1.30586,7.78261 -0.41959,0.86676 -0.608316,1.6623 -0.433846,1.82879 0.169841,0.16207 2.44329,0.55169 5.052106,0.86581 2.60882,0.31412 4.813452,0.64128 4.899191,0.72701 0.08574,0.0857 0.17375,3.37521 0.195584,7.30994 0.03697,6.66288 0.09512,7.27427 0.846924,8.90505 1.641616,3.56093 2.780153,3.9147 4.115819,1.27889 1.58363,-3.12515 2.35367,-6.57692 2.604065,-11.67294 l 0.234004,-4.7625 h 3.527778 3.527778 l 0.02099,-1.13811 c 0.01154,-0.62596 0.131731,-1.24886 0.267096,-1.38423 0.13536,-0.13536 15.286546,-0.25821 33.6692951,-0.273 l 33.4231769,-0.0269 v -2.11667 -2.11667 l -1.550039,0.1235 -1.550039,0.12349 0.241424,-1.5346 c 0.655934,-4.16944 0.300902,-3.81901 6.474132,-6.39016 3.056209,-1.27291 5.681691,-2.19545 5.834401,-2.05009 0.152711,0.14536 0.650205,6.25129 1.105542,13.56875 0.455334,7.31745 0.915307,13.39188 1.02216,13.49873 0.106853,0.10685 0.667473,-0.74312 1.245828,-1.88883 1.351505,-2.67732 3.163686,-4.42504 6.133959,-5.91576 3.111973,-1.56185 5.741843,-2.08148 9.386394,-1.85466 2.506645,0.15601 3.344781,0.38514 5.644444,1.54309 1.485375,0.74793 2.745828,1.60558 2.801003,1.90589 0.05518,0.3003 -2.541447,3.68856 -5.770273,7.52944 -3.680894,4.37865 -5.746401,7.10764 -5.537631,7.31641 0.779,0.779 4.438467,-1.44184 5.935557,-3.60215 0.527043,-0.76052 1.145261,-1.38277 1.373815,-1.38277 0.378626,0 5.16073,5.55144 5.399723,6.26843 0.236841,0.71051 -1.657269,2.73991 -3.706432,3.97115 -3.318189,1.99374 -7.200801,2.96344 -11.90619,2.97364 -4.458988,0.01 -6.747835,-0.59801 -8.590058,-2.28062 -0.635183,-0.58015 -1.290775,-1.05482 -1.456873,-1.05482 -0.166099,0 -0.21323,1.80238 -0.104737,4.0053 0.115803,2.35131 0.06026,4.08996 -0.134496,4.21033 -0.182471,0.11277 -2.482222,0.31658 -5.110565,0.45291 l -4.778802,0.24786 z M 4.9388914,183.47141 c 3.5939519,-4.63431 6.4495646,-8.56337 6.3458096,-8.73125 -0.103756,-0.16788 -3.5852105,-0.30524 -7.7365619,-0.30524 h -7.5479172 l -0.1923767,-1.23472 c -0.1058052,-0.6791 -0.2789414,-1.79035 -0.3847466,-2.46945 -0.1058086,-0.67909 -0.341958,-1.23472 -0.5247851,-1.23472 -0.4224726,0 -14.0995085,17.05995 -14.0995085,17.58692 0,0.2738 2.52609,0.42049 8.378472,0.48656 l 8.3784727,0.0946 0.1056393,2.22844 c 0.058103,1.22565 0.2490576,2.17815 0.4243459,2.11667 0.1752882,-0.0615 3.2592081,-3.90348 6.8531565,-8.53779 z M 30.56909,180.21265 c -0.595665,-11.13614 -0.755657,-12.83512 -1.206814,-12.81534 -0.477827,0.0209 -15.755137,19.11311 -15.755137,19.68931 0,0.42038 16.506494,0.767 17.046995,0.35797 0.159526,-0.12072 0.121257,-3.37509 -0.08504,-7.23194 z m 21.65621,-1.05227 c 1.65529,-2.05767 3.009618,-3.88027 3.009618,-4.05023 0,-0.48283 -1.645215,-0.77601 -2.965143,-0.5284 -3.070888,0.57611 -5.220727,4.46494 -4.099144,7.41493 0.189226,0.4977 0.501773,0.90491 0.694549,0.90491 0.192779,0 1.704834,-1.68355 3.36012,-3.74121 z M -73.613553,166.68852 c 2.750178,-3.26721 3.160282,-4.04671 2.52912,-4.80722 -0.388891,-0.46858 -0.919381,-0.54827 -2.698922,-0.40543 -2.933507,0.23548 -4.122706,1.00146 -3.879099,2.4986 0.32276,1.98361 1.35309,5.16878 1.671976,5.16878 0.170861,0 1.240476,-1.10462 2.376925,-2.45473 z M 7.4335278,151.32727 c -2.7593079,-0.97557 -4.5316812,-4.19468 -3.6988645,-6.71814 0.218701,-0.66267 0.2976104,-1.36671 0.1753482,-1.56453 -0.318576,-0.51547 -3.15387932,-0.42185 -5.8250951,0.19235 -4.6255941,1.06358 -4.8172442,1.06114 -5.3922861,-0.0688 -0.6906366,-1.35702 -1.3104918,-5.12745 -1.3104918,-7.97139 0,-2.06328 0.110363,-2.43319 1.0148746,-3.40147 0.982719,-1.052 1.0867214,-1.07971 3.2825162,-0.87467 2.2252694,0.2078 2.2854074,0.19064 3.2184588,-0.91822 1.32827184,-1.57856 1.34116587,-4.08559 0.029034,-5.64497 -0.888231,-1.05561 -1.0113222,-1.0919 -3.381802,-0.99721 -2.3438556,0.0936 -2.5025315,0.0489 -3.3601978,-0.9481 -0.8679463,-1.00889 -0.8926195,-1.16679 -0.6890562,-4.40972 0.2110987,-3.363 1.00971,-6.84815 1.6615446,-7.25101 0.1902601,-0.11758 1.6545737,0.1084 3.2540294,0.50219 6.4274631,1.58247 7.9829062,1.34148 7.2951236,-1.13023 -1.2545449,-4.50852 4.1193439,-8.47344 8.4737083,-6.25201 2.271737,1.15895 3.021838,2.5614 2.970939,5.5547 -0.03791,2.22917 0.04194,2.57517 0.637872,2.76431 0.884114,0.28061 3.656912,-0.0865 7.048955,-0.93315 1.487537,-0.3713 2.876599,-0.6751 3.086805,-0.6751 0.451221,0 0.555929,33.36488 0.105583,33.64321 -0.152139,0.094 -1.382451,-0.14319 -2.734028,-0.52713 -1.351579,-0.38395 -3.727414,-0.72932 -5.279637,-0.7675 l -2.822222,-0.0694 0.11406,1.97789 c 0.185851,3.22271 -1.20819,5.54599 -3.93029,6.55013 -1.4858291,0.54811 -2.2532267,0.53603 -3.9448808,-0.0621 z m -59.0860918,-7.8486 c 0.0025,-0.33955 0.24173,-1.49049 0.532063,-2.55764 0.817696,-3.00554 1.220142,-6.32379 0.876564,-7.22746 -0.286388,-0.75326 -0.46095,-0.79711 -2.535883,-0.63701 -1.930601,0.14897 -2.392168,0.0602 -3.454647,-0.6645 -1.894769,-1.29235 -2.830618,-2.92767 -2.830618,-4.94627 0,-1.99616 0.542879,-3.20435 2.108634,-4.69281 1.026347,-0.97569 1.317134,-1.05968 3.723492,-1.07556 1.435608,-0.009 2.71592,-0.12295 2.845128,-0.25216 0.450709,-0.45071 0.146949,-3.91047 -0.616723,-7.02438 -0.556905,-2.27079 -0.662809,-3.24368 -0.383497,-3.52299 0.674303,-0.67431 4.029741,-1.38957 7.497985,-1.59831 3.295583,-0.19835 3.378454,-0.18396 4.532534,0.78714 1.165522,0.98072 1.173533,1.00826 0.93658,3.2209 -0.230361,2.15107 -0.200727,2.26998 0.820187,3.29089 0.871816,0.87182 1.347914,1.05919 2.691342,1.05919 3.246487,0 4.581207,-1.49742 4.203001,-4.71535 -0.209698,-1.78421 -0.172388,-1.89446 0.964809,-2.85135 1.158271,-0.97462 1.249242,-0.99094 4.362372,-0.78266 3.547325,0.23734 6.822479,1.07682 7.108441,1.82202 0.103402,0.26946 -0.153367,1.96742 -0.570601,3.77322 -0.417233,1.80581 -0.708561,4.07703 -0.647396,5.04717 l 0.111213,1.76389 2.169947,-0.12131 c 3.980822,-0.22255 6.170447,1.62817 6.404194,5.41298 0.109643,1.77533 -0.0036,2.31442 -0.702325,3.34299 -0.458177,0.67449 -1.384896,1.59964 -2.059379,2.05591 -1.037787,0.70203 -1.578867,0.8118 -3.519381,0.71395 l -2.293056,-0.11563 -0.101882,2.11667 c -0.06681,1.38797 0.189385,3.23688 0.744184,5.37062 0.465343,1.78968 0.762544,3.3375 0.66045,3.43959 -0.102091,0.10209 -7.699788,0.18562 -16.883772,0.18562 -15.669409,0 -16.69789,-0.038 -16.69396,-0.61736 z m 30.858962,-1.49136 c 0.117217,-0.18967 -0.03217,-1.53235 -0.331957,-2.98375 -0.745769,-3.61048 -0.698712,-5.76373 0.156608,-7.16656 0.754955,-1.23821 1.894488,-1.48325 3.701941,-0.79606 1.83079,0.69606 4.763026,-1.54807 4.767273,-3.64854 0.0025,-1.30007 -1.112946,-2.99808 -2.357825,-3.58881 -1.058369,-0.50222 -1.47423,-0.52758 -2.758006,-0.16814 -1.920089,0.53759 -2.857038,0.23458 -3.576451,-1.15661 -0.662534,-1.2812 -0.490781,-5.11934 0.371401,-8.29969 0.499844,-1.84379 0.495353,-1.87558 -0.307996,-2.18101 -1.502805,-0.57136 -5.881769,-1.02748 -6.738222,-0.70186 -0.747208,0.28409 -0.821242,0.51263 -0.769599,2.37577 0.07262,2.62016 -0.764042,4.13779 -2.916558,5.29032 -1.966031,1.05269 -5.088075,0.98895 -6.592951,-0.1346 -1.879802,-1.40347 -2.398307,-2.47759 -2.398307,-4.96823 0,-2.12744 -0.0689,-2.33892 -0.857194,-2.6311 -1.427261,-0.52902 -7.785862,0.51737 -7.785862,1.28126 0,0.25653 0.25527,1.70077 0.567267,3.20943 1.166897,5.64252 0.164775,8.66616 -2.666835,8.04645 -3.129343,-0.68488 -4.864477,0.10004 -5.679355,2.56915 -0.323303,0.97961 -0.279227,1.41383 0.254342,2.50576 0.944002,1.93187 2.373263,2.53784 4.903939,2.07913 1.95773,-0.35485 2.033655,-0.33871 2.845192,0.60476 0.698539,0.8121 0.832937,1.35239 0.828569,3.33091 -0.0028,1.29886 -0.242224,3.36693 -0.531901,4.5957 -0.289676,1.22877 -0.43671,2.37971 -0.326742,2.55764 0.277414,0.44887 27.921557,0.42796 28.199229,-0.0213 z m -16.39926,-34.62276 c -2.47892,-0.98557 -3.746818,-3.44106 -3.363003,-6.51301 0.227944,-1.824391 0.20162,-1.913213 -0.580362,-1.958443 -1.943463,-0.112405 -4.174405,0.147497 -6.698745,0.780394 -1.487537,0.372949 -2.955975,0.678099 -3.263195,0.678099 -0.501727,0 -0.558585,-1.699701 -0.558585,-16.698151 0,-9.183984 0.08353,-16.781682 0.185625,-16.883772 0.10209,-0.102094 1.649903,0.195107 3.439583,0.660449 2.133742,0.5548 3.98265,0.810994 5.370626,0.744185 l 2.116667,-0.101882 v -2.530775 c 0,-2.821704 0.524309,-3.877074 2.642245,-5.318531 1.426373,-0.970777 4.08704,-1.065382 5.890783,-0.209448 2.400331,1.139032 3.32136,3.447003 2.864005,7.176809 -0.101216,0.825447 0.0048,0.889067 1.655745,0.993158 0.970139,0.06117 3.241368,-0.230163 5.04717,-0.647397 1.805806,-0.417233 3.503761,-0.674003 3.773227,-0.5706 0.799701,0.306874 1.623769,3.679596 1.838022,7.522595 l 0.200346,3.593588 -1.099214,1.099214 c -1.057973,1.057973 -1.178327,1.090259 -3.207963,0.860633 -2.021502,-0.228706 -2.153225,-0.194106 -3.183643,0.836312 -0.908005,0.908004 -1.07489,1.345576 -1.07489,2.818342 0,2.933845 1.967848,4.674521 4.495561,3.976585 1.597751,-0.441162 2.992257,0.231105 3.619235,1.744762 0.805977,1.945802 -0.271402,10.052593 -1.431237,10.769414 -0.194515,0.12021 -1.7858,-0.11766 -3.536188,-0.528596 -3.624852,-0.851017 -6.468724,-1.065072 -7.006682,-0.527392 -0.250497,0.250363 -0.254663,0.754895 -0.01309,1.587498 1.266793,4.36641 -3.678231,8.41274 -8.122028,6.64596 z m 33.9383623,-5.99534 c -2.215702,-0.36879 -3.9522507,-1.19517 -3.9522507,-1.880772 0,-0.270739 0.3254975,-1.862773 0.7233285,-3.537853 0.3978311,-1.675077 0.6756436,-3.870424 0.6173611,-4.87855 -0.092897,-1.606854 -0.1929976,-1.819318 -0.8115229,-1.722452 -4.7863093,0.749596 -7.5709463,-1.102512 -7.8698163,-5.234337 -0.173828,-2.40315 0.424296,-3.757203 2.286684,-5.176675 1.137959,-0.867326 1.602465,-0.988374 3.7927321,-0.988374 h 2.4959558 l -0.026599,-2.822222 C -6.015702,73.317 -6.2942836,71.431001 -6.7760969,69.864474 -7.1890727,68.52177 -7.4455422,67.291457 -7.3460306,67.130446 c 0.099501,-0.161012 7.71217752,-0.292749 16.9170461,-0.292749 18.6954415,0 17.1656805,-0.230901 16.3760685,2.471772 -0.662118,2.26628 -1.350416,6.866347 -1.1673,7.801374 0.176361,0.900543 0.247209,0.923431 2.730275,0.881945 2.298911,-0.03841 2.680434,0.05723 3.885579,0.974051 4.960331,3.773586 1.170824,12.166269 -4.721493,10.456775 -0.74531,-0.216232 -1.347202,-0.227387 -1.545936,-0.02865 -0.518315,0.518315 -0.303724,3.711236 0.467745,6.959533 0.391152,1.64695 0.711185,3.1366 0.711185,3.310326 0,0.966107 -4.806495,2.097877 -8.90947,2.097877 -2.005418,0 -2.479357,-0.12964 -3.445305,-0.94244 -1.097171,-0.923211 -1.115244,-0.987028 -0.885913,-3.128478 0.21198,-1.979457 0.154224,-2.278905 -0.611163,-3.168724 -0.691254,-0.803631 -1.208275,-1.012782 -2.8375577,-1.147896 -1.911029,-0.158479 -2.0443261,-0.113178 -3.2681405,1.110636 -1.2205406,1.220541 -1.2654457,1.351513 -1.035812,3.02114 0.3065321,2.228758 0.024835,3.076842 -1.2391214,3.730462 -1.1198896,0.57912 -4.29823752,0.63628 -7.3291561,0.13181 z"
         id="path85"
         inkscape:connector-curvature="0" />
      <path
         style="fill:#d6d602;stroke-width:0.35277778"
         d="m 31.477013,197.89389 c -0.127042,-0.92687 -0.242143,-2.65525 -0.255781,-3.84084 -0.03397,-2.95377 -0.516672,-4.12955 -0.812543,-1.97924 -0.120135,0.87313 -0.258695,2.14313 -0.307908,2.82222 l -0.08948,1.23473 -33.6020841,0.09 c -26.7701369,0.0717 -33.6002709,-4e-5 -33.5931629,-0.35278 0.0049,-0.24351 3.574024,-5.02643 7.931373,-10.62871 4.357349,-5.60228 7.836465,-10.32509 7.731369,-10.49514 -0.231253,-0.37418 -11.795539,-0.40776 -12.380017,-0.036 -0.226886,0.14433 -0.590797,1.56448 -0.80869,3.15588 -0.803025,5.86495 -2.227626,9.08331 -5.438977,12.28732 -1.50496,1.50152 -2.693751,2.34052 -3.923146,2.76879 -2.633885,0.91752 -6.60134,1.09739 -9.444327,0.42819 -8.17008,-1.92314 -11.574202,-7.17759 -11.530461,-17.7979 0.0085,-2.06874 0.155289,-4.95196 0.326157,-6.40717 0.170864,-1.4552 0.193647,-2.76689 0.05063,-2.91485 -0.143016,-0.14795 -1.40819,1.07938 -2.811494,2.72742 -1.403304,1.64805 -3.40941,3.73714 -4.458011,4.64244 -1.048603,0.9053 -1.980995,1.84 -2.071984,2.07711 -0.09099,0.23711 0.692105,3.42845 1.740207,7.09186 1.048103,3.66341 1.908274,6.905 1.911492,7.20354 0.007,0.65225 -4.634389,4.04332 -5.534167,4.04332 -0.516653,0 -1.544838,-2.60347 -5.57289,-14.11111 -2.716643,-7.76111 -5.074966,-14.32149 -5.240719,-14.57862 -0.237832,-0.36894 -0.474133,-0.30519 -1.120874,0.30239 -0.450733,0.42344 -1.012423,0.70559 -1.248205,0.62699 -0.552157,-0.18405 -3.964856,-9.49752 -3.600835,-9.82689 0.396148,-0.35844 5.268616,-1.91336 9.976316,-3.18368 3.194018,-0.86187 5.040919,-1.13514 8.682987,-1.28475 5.678163,-0.23326 7.523071,0.2485 10.06814,2.62912 2.629652,2.45973 2.952161,4.38181 1.30586,7.78261 -0.41959,0.86676 -0.608316,1.6623 -0.433846,1.82879 0.169841,0.16207 2.44329,0.55169 5.052106,0.86581 2.60882,0.31412 4.813452,0.64128 4.899191,0.72701 0.08574,0.0857 0.17375,3.37521 0.195584,7.30994 0.03697,6.66288 0.09512,7.27427 0.846924,8.90505 1.641616,3.56093 2.780153,3.9147 4.115819,1.27889 1.58363,-3.12515 2.35367,-6.57692 2.604065,-11.67294 l 0.234004,-4.7625 h 3.527778 3.527778 l 0.02099,-1.13811 c 0.01154,-0.62596 0.131731,-1.24886 0.267096,-1.38423 0.13536,-0.13536 15.286546,-0.25821 33.6692951,-0.273 l 33.4231769,-0.0269 v -2.11667 -2.11667 l -1.550039,0.1235 -1.550039,0.12349 0.241424,-1.5346 c 0.655934,-4.16944 0.300902,-3.81901 6.474132,-6.39016 3.056209,-1.27291 5.681691,-2.19545 5.834401,-2.05009 0.152711,0.14536 0.650205,6.25129 1.105542,13.56875 0.455334,7.31745 0.915307,13.39188 1.02216,13.49873 0.106853,0.10685 0.667473,-0.74312 1.245828,-1.88883 1.351505,-2.67732 3.163686,-4.42504 6.133959,-5.91576 3.111973,-1.56185 5.741843,-2.08148 9.386394,-1.85466 2.506645,0.15601 3.344781,0.38514 5.644444,1.54309 1.485375,0.74793 2.745828,1.60558 2.801003,1.90589 0.05518,0.3003 -2.541447,3.68856 -5.770273,7.52944 -3.680894,4.37865 -5.746401,7.10764 -5.537631,7.31641 0.779,0.779 4.438467,-1.44184 5.935557,-3.60215 0.527043,-0.76052 1.145261,-1.38277 1.373815,-1.38277 0.378626,0 5.16073,5.55144 5.399723,6.26843 0.236841,0.71051 -1.657269,2.73991 -3.706432,3.97115 -3.318189,1.99374 -7.200801,2.96344 -11.90619,2.97364 -4.458988,0.01 -6.747835,-0.59801 -8.590058,-2.28062 -0.635183,-0.58015 -1.290775,-1.05482 -1.456873,-1.05482 -0.166099,0 -0.21323,1.80238 -0.104737,4.0053 0.115803,2.35131 0.06026,4.08996 -0.134496,4.21033 -0.182471,0.11277 -2.482222,0.31658 -5.110565,0.45291 l -4.778802,0.24786 z M 4.9388914,183.47141 c 3.5939519,-4.63431 6.4495646,-8.56337 6.3458096,-8.73125 -0.103756,-0.16788 -3.5852105,-0.30524 -7.7365619,-0.30524 h -7.5479172 l -0.1923767,-1.23472 c -0.1058052,-0.6791 -0.2789414,-1.79035 -0.3847466,-2.46945 -0.1058086,-0.67909 -0.341958,-1.23472 -0.5247851,-1.23472 -0.4224726,0 -14.0995085,17.05995 -14.0995085,17.58692 0,0.2738 2.52609,0.42049 8.378472,0.48656 l 8.3784727,0.0946 0.1056393,2.22844 c 0.058103,1.22565 0.2490576,2.17815 0.4243459,2.11667 0.1752882,-0.0615 3.2592081,-3.90348 6.8531565,-8.53779 z M 30.56909,180.21265 c -0.595665,-11.13614 -0.755657,-12.83512 -1.206814,-12.81534 -0.477827,0.0209 -15.755137,19.11311 -15.755137,19.68931 0,0.42038 16.506494,0.767 17.046995,0.35797 0.159526,-0.12072 0.121257,-3.37509 -0.08504,-7.23194 z m 21.65621,-1.05227 c 1.65529,-2.05767 3.009618,-3.88027 3.009618,-4.05023 0,-0.48283 -1.645215,-0.77601 -2.965143,-0.5284 -3.070888,0.57611 -5.220727,4.46494 -4.099144,7.41493 0.189226,0.4977 0.501773,0.90491 0.694549,0.90491 0.192779,0 1.704834,-1.68355 3.36012,-3.74121 z M -73.613553,166.68852 c 2.750178,-3.26721 3.160282,-4.04671 2.52912,-4.80722 -0.388891,-0.46858 -0.919381,-0.54827 -2.698922,-0.40543 -2.933507,0.23548 -4.122706,1.00146 -3.879099,2.4986 0.32276,1.98361 1.35309,5.16878 1.671976,5.16878 0.170861,0 1.240476,-1.10462 2.376925,-2.45473 z M 7.4335278,151.32727 c -2.7593079,-0.97557 -4.5316812,-4.19468 -3.6988645,-6.71814 0.218701,-0.66267 0.2976104,-1.36671 0.1753482,-1.56453 -0.318576,-0.51547 -3.15387932,-0.42185 -5.8250951,0.19235 -4.6255941,1.06358 -4.8172442,1.06114 -5.3922861,-0.0688 -0.6906366,-1.35702 -1.3104918,-5.12745 -1.3104918,-7.97139 0,-2.06328 0.110363,-2.43319 1.0148746,-3.40147 0.982719,-1.052 1.0867214,-1.07971 3.2825162,-0.87467 2.2252694,0.2078 2.2854074,0.19064 3.2184588,-0.91822 1.32827184,-1.57856 1.34116587,-4.08559 0.029034,-5.64497 -0.888231,-1.05561 -1.0113222,-1.0919 -3.381802,-0.99721 -2.3438556,0.0936 -2.5025315,0.0489 -3.3601978,-0.9481 -0.8679463,-1.00889 -0.8926195,-1.16679 -0.6890562,-4.40972 0.2110987,-3.363 1.00971,-6.84815 1.6615446,-7.25101 0.1902601,-0.11758 1.6545737,0.1084 3.2540294,0.50219 6.4274631,1.58247 7.9829062,1.34148 7.2951236,-1.13023 -1.2545449,-4.50852 4.1193439,-8.47344 8.4737083,-6.25201 2.271737,1.15895 3.021838,2.5614 2.970939,5.5547 -0.03791,2.22917 0.04194,2.57517 0.637872,2.76431 0.884114,0.28061 3.656912,-0.0865 7.048955,-0.93315 1.487537,-0.3713 2.876599,-0.6751 3.086805,-0.6751 0.451221,0 0.555929,33.36488 0.105583,33.64321 -0.152139,0.094 -1.382451,-0.14319 -2.734028,-0.52713 -1.351579,-0.38395 -3.727414,-0.72932 -5.279637,-0.7675 l -2.822222,-0.0694 0.11406,1.97789 c 0.185851,3.22271 -1.20819,5.54599 -3.93029,6.55013 -1.4858291,0.54811 -2.2532267,0.53603 -3.9448808,-0.0621 z m 4.0850082,-2.18865 c 1.596464,-0.94306 2.191544,-2.53091 1.673877,-4.46641 -0.941013,-3.51834 1.067714,-4.56424 6.941115,-3.61406 1.940278,0.31389 3.726216,0.5702 3.96875,0.56958 0.345398,-0.001 0.440972,-3.055 0.440972,-14.09143 0,-7.74966 -0.137403,-14.17521 -0.305339,-14.27901 -0.167933,-0.10379 -1.398246,0.0428 -2.734028,0.32584 -6.565893,1.39105 -9.619231,0.0725 -8.238935,-3.558 0.828358,-2.17875 -1.098479,-4.73465 -3.569342,-4.73465 -1.8605959,0 -2.9673516,0.5838 -3.7056202,1.95468 -0.5338551,0.99131 -0.57035,1.41809 -0.2434238,2.84675 0.6788715,2.96668 -0.3146072,4.01801 -3.7968908,4.01801 -0.95356899,0 -3.0238207,-0.25994 -4.6005575,-0.57765 -2.3572153,-0.47496 -2.9180191,-0.49477 -3.1549518,-0.11141 -0.5822703,0.94214 -1.1125376,6.11818 -0.7298901,7.12462 0.3551519,0.93412 0.4300114,0.95771 2.4054082,0.7579 1.7591441,-0.17794 2.2082338,-0.0923 3.27356978,0.62453 1.82427743,1.22743 2.90264152,3.54752 2.72684882,5.86678 -0.1503221,1.98326 -0.8461234,3.21969 -2.5107054,4.46149 -0.7492506,0.55895 -1.5026605,0.72735 -3.2540858,0.72735 -3.1641557,0 -3.3432116,0.38841 -2.5713797,5.57785 0.5412,3.63878 0.5025496,3.60289 3.1854953,2.95813 6.9856987,-1.67881 10.042049,-0.58935 9.0233714,3.21644 -0.3556988,1.32891 -0.3190664,1.68568 0.2889144,2.8138 1.1490078,2.132 3.4428784,2.79626 5.4868272,1.58887 z m -63.1711,-5.65995 c 0.0025,-0.33955 0.24173,-1.49049 0.532063,-2.55764 0.817696,-3.00554 1.220142,-6.32379 0.876564,-7.22746 -0.286388,-0.75326 -0.46095,-0.79711 -2.535883,-0.63701 -1.930601,0.14897 -2.392168,0.0602 -3.454647,-0.6645 -1.894769,-1.29235 -2.830618,-2.92767 -2.830618,-4.94627 0,-1.99616 0.542879,-3.20435 2.108634,-4.69281 1.026347,-0.97569 1.317134,-1.05968 3.723492,-1.07556 1.435608,-0.009 2.71592,-0.12295 2.845128,-0.25216 0.450709,-0.45071 0.146949,-3.91047 -0.616723,-7.02438 -0.556905,-2.27079 -0.662809,-3.24368 -0.383497,-3.52299 0.674303,-0.67431 4.029741,-1.38957 7.497985,-1.59831 3.295583,-0.19835 3.378454,-0.18396 4.532534,0.78714 1.165522,0.98072 1.173533,1.00826 0.93658,3.2209 -0.230361,2.15107 -0.200727,2.26998 0.820187,3.29089 0.871816,0.87182 1.347914,1.05919 2.691342,1.05919 3.246487,0 4.581207,-1.49742 4.203001,-4.71535 -0.209698,-1.78421 -0.172388,-1.89446 0.964809,-2.85135 1.158271,-0.97462 1.249242,-0.99094 4.362372,-0.78266 3.547325,0.23734 6.822479,1.07682 7.108441,1.82202 0.103402,0.26946 -0.153367,1.96742 -0.570601,3.77322 -0.417233,1.80581 -0.708561,4.07703 -0.647396,5.04717 l 0.111213,1.76389 2.169947,-0.12131 c 3.980822,-0.22255 6.170447,1.62817 6.404194,5.41298 0.109643,1.77533 -0.0036,2.31442 -0.702325,3.34299 -0.458177,0.67449 -1.384896,1.59964 -2.059379,2.05591 -1.037787,0.70203 -1.578867,0.8118 -3.519381,0.71395 l -2.293056,-0.11563 -0.101882,2.11667 c -0.06681,1.38797 0.189385,3.23688 0.744184,5.37062 0.465343,1.78968 0.762544,3.3375 0.66045,3.43959 -0.102091,0.10209 -7.699788,0.18562 -16.883772,0.18562 -15.669409,0 -16.69789,-0.038 -16.69396,-0.61736 z m 30.858962,-1.49136 c 0.117217,-0.18967 -0.03217,-1.53235 -0.331957,-2.98375 -0.745769,-3.61048 -0.698712,-5.76373 0.156608,-7.16656 0.754955,-1.23821 1.894488,-1.48325 3.701941,-0.79606 1.83079,0.69606 4.763026,-1.54807 4.767273,-3.64854 0.0025,-1.30007 -1.112946,-2.99808 -2.357825,-3.58881 -1.058369,-0.50222 -1.47423,-0.52758 -2.758006,-0.16814 -1.920089,0.53759 -2.857038,0.23458 -3.576451,-1.15661 -0.662534,-1.2812 -0.490781,-5.11934 0.371401,-8.29969 0.499844,-1.84379 0.495353,-1.87558 -0.307996,-2.18101 -1.502805,-0.57136 -5.881769,-1.02748 -6.738222,-0.70186 -0.747208,0.28409 -0.821242,0.51263 -0.769599,2.37577 0.07262,2.62016 -0.764042,4.13779 -2.916558,5.29032 -1.966031,1.05269 -5.088075,0.98895 -6.592951,-0.1346 -1.879802,-1.40347 -2.398307,-2.47759 -2.398307,-4.96823 0,-2.12744 -0.0689,-2.33892 -0.857194,-2.6311 -1.427261,-0.52902 -7.785862,0.51737 -7.785862,1.28126 0,0.25653 0.25527,1.70077 0.567267,3.20943 1.166897,5.64252 0.164775,8.66616 -2.666835,8.04645 -3.129343,-0.68488 -4.864477,0.10004 -5.679355,2.56915 -0.323303,0.97961 -0.279227,1.41383 0.254342,2.50576 0.944002,1.93187 2.373263,2.53784 4.903939,2.07913 1.95773,-0.35485 2.033655,-0.33871 2.845192,0.60476 0.698539,0.8121 0.832937,1.35239 0.828569,3.33091 -0.0028,1.29886 -0.242224,3.36693 -0.531901,4.5957 -0.289676,1.22877 -0.43671,2.37971 -0.326742,2.55764 0.277414,0.44887 27.921557,0.42796 28.199229,-0.0213 z m -16.39926,-34.62276 c -2.47892,-0.98557 -3.746818,-3.44106 -3.363003,-6.51301 0.227944,-1.824391 0.20162,-1.913213 -0.580362,-1.958443 -1.943463,-0.112405 -4.174405,0.147497 -6.698745,0.780394 -1.487537,0.372949 -2.955975,0.678099 -3.263195,0.678099 -0.501727,0 -0.558585,-1.699701 -0.558585,-16.698151 0,-9.183984 0.08353,-16.781682 0.185625,-16.883772 0.10209,-0.102094 1.649903,0.195107 3.439583,0.660449 2.133742,0.5548 3.98265,0.810994 5.370626,0.744185 l 2.116667,-0.101882 v -2.530775 c 0,-2.821704 0.524309,-3.877074 2.642245,-5.318531 1.426373,-0.970777 4.08704,-1.065382 5.890783,-0.209448 2.400331,1.139032 3.32136,3.447003 2.864005,7.176809 -0.101216,0.825447 0.0048,0.889067 1.655745,0.993158 0.970139,0.06117 3.241368,-0.230163 5.04717,-0.647397 1.805806,-0.417233 3.503761,-0.674003 3.773227,-0.5706 0.799701,0.306874 1.623769,3.679596 1.838022,7.522595 l 0.200346,3.593588 -1.099214,1.099214 c -1.057973,1.057973 -1.178327,1.090259 -3.207963,0.860633 -2.021502,-0.228706 -2.153225,-0.194106 -3.183643,0.836312 -0.908005,0.908004 -1.07489,1.345576 -1.07489,2.818342 0,2.933845 1.967848,4.674521 4.495561,3.976585 1.597751,-0.441162 2.992257,0.231105 3.619235,1.744762 0.805977,1.945802 -0.271402,10.052593 -1.431237,10.769414 -0.194515,0.12021 -1.7858,-0.11766 -3.536188,-0.528596 -3.624852,-0.851017 -6.468724,-1.065072 -7.006682,-0.527392 -0.250497,0.250363 -0.254663,0.754895 -0.01309,1.587498 1.266793,4.36641 -3.678231,8.41274 -8.122028,6.64596 z m 33.9383623,-5.99534 c -2.215702,-0.36879 -3.9522507,-1.19517 -3.9522507,-1.880772 0,-0.270739 0.3254975,-1.862773 0.7233285,-3.537853 0.3978311,-1.675077 0.6756436,-3.870424 0.6173611,-4.87855 -0.092897,-1.606854 -0.1929976,-1.819318 -0.8115229,-1.722452 -4.7863093,0.749596 -7.5709463,-1.102512 -7.8698163,-5.234337 -0.173828,-2.40315 0.424296,-3.757203 2.286684,-5.176675 1.137959,-0.867326 1.602465,-0.988374 3.7927321,-0.988374 h 2.4959558 l -0.026599,-2.822222 C -6.015702,73.317 -6.2942836,71.431001 -6.7760969,69.864474 -7.1890727,68.52177 -7.4455422,67.291457 -7.3460306,67.130446 c 0.099501,-0.161012 7.71217752,-0.292749 16.9170461,-0.292749 18.6954415,0 17.1656805,-0.230901 16.3760685,2.471772 -0.662118,2.26628 -1.350416,6.866347 -1.1673,7.801374 0.176361,0.900543 0.247209,0.923431 2.730275,0.881945 2.298911,-0.03841 2.680434,0.05723 3.885579,0.974051 4.960331,3.773586 1.170824,12.166269 -4.721493,10.456775 -0.74531,-0.216232 -1.347202,-0.227387 -1.545936,-0.02865 -0.518315,0.518315 -0.303724,3.711236 0.467745,6.959533 0.391152,1.64695 0.711185,3.1366 0.711185,3.310326 0,0.966107 -4.806495,2.097877 -8.90947,2.097877 -2.005418,0 -2.479357,-0.12964 -3.445305,-0.94244 -1.097171,-0.923211 -1.115244,-0.987028 -0.885913,-3.128478 0.21198,-1.979457 0.154224,-2.278905 -0.611163,-3.168724 -0.691254,-0.803631 -1.208275,-1.012782 -2.8375577,-1.147896 -1.911029,-0.158479 -2.0443261,-0.113178 -3.2681405,1.110636 -1.2205406,1.220541 -1.2654457,1.351513 -1.035812,3.02114 0.3065321,2.228758 0.024835,3.076842 -1.2391214,3.730462 -1.1198896,0.57912 -4.29823752,0.63628 -7.3291561,0.13181 z"
         id="path83"
         inkscape:connector-curvature="0" />
      <path
         style="fill:#e04c1c;stroke-width:0.35277778"
         d="m 31.477013,197.89389 c -0.127042,-0.92687 -0.242143,-2.65525 -0.255781,-3.84084 -0.03397,-2.95377 -0.516672,-4.12955 -0.812543,-1.97924 -0.120135,0.87313 -0.258695,2.14313 -0.307908,2.82222 l -0.08948,1.23473 -33.6020841,0.09 c -26.7701369,0.0717 -33.6002709,-4e-5 -33.5931629,-0.35278 0.0049,-0.24351 3.574024,-5.02643 7.931373,-10.62871 4.357349,-5.60228 7.836465,-10.32509 7.731369,-10.49514 -0.231253,-0.37418 -11.795539,-0.40776 -12.380017,-0.036 -0.226886,0.14433 -0.590797,1.56448 -0.80869,3.15588 -0.803025,5.86495 -2.227626,9.08331 -5.438977,12.28732 -1.50496,1.50152 -2.693751,2.34052 -3.923146,2.76879 -2.633885,0.91752 -6.60134,1.09739 -9.444327,0.42819 -8.17008,-1.92314 -11.574202,-7.17759 -11.530461,-17.7979 0.0085,-2.06874 0.155289,-4.95196 0.326157,-6.40717 0.170864,-1.4552 0.193647,-2.76689 0.05063,-2.91485 -0.143016,-0.14795 -1.40819,1.07938 -2.811494,2.72742 -1.403304,1.64805 -3.40941,3.73714 -4.458011,4.64244 -1.048603,0.9053 -1.980995,1.84 -2.071984,2.07711 -0.09099,0.23711 0.692105,3.42845 1.740207,7.09186 1.048103,3.66341 1.908274,6.905 1.911492,7.20354 0.007,0.65225 -4.634389,4.04332 -5.534167,4.04332 -0.516653,0 -1.544838,-2.60347 -5.57289,-14.11111 -2.716643,-7.76111 -5.074966,-14.32149 -5.240719,-14.57862 -0.237832,-0.36894 -0.474133,-0.30519 -1.120874,0.30239 -0.450733,0.42344 -1.012423,0.70559 -1.248205,0.62699 -0.552157,-0.18405 -3.964856,-9.49752 -3.600835,-9.82689 0.396148,-0.35844 5.268616,-1.91336 9.976316,-3.18368 3.194018,-0.86187 5.040919,-1.13514 8.682987,-1.28475 5.678163,-0.23326 7.523071,0.2485 10.06814,2.62912 2.629652,2.45973 2.952161,4.38181 1.30586,7.78261 -0.41959,0.86676 -0.608316,1.6623 -0.433846,1.82879 0.169841,0.16207 2.44329,0.55169 5.052106,0.86581 2.60882,0.31412 4.813452,0.64128 4.899191,0.72701 0.08574,0.0857 0.17375,3.37521 0.195584,7.30994 0.03697,6.66288 0.09512,7.27427 0.846924,8.90505 1.641616,3.56093 2.780153,3.9147 4.115819,1.27889 1.58363,-3.12515 2.35367,-6.57692 2.604065,-11.67294 l 0.234004,-4.7625 h 3.527778 3.527778 l 0.02099,-1.13811 c 0.01154,-0.62596 0.131731,-1.24886 0.267096,-1.38423 0.13536,-0.13536 15.286546,-0.25821 33.6692951,-0.273 l 33.4231769,-0.0269 v -2.11667 -2.11667 l -1.550039,0.1235 -1.550039,0.12349 0.241424,-1.5346 c 0.655934,-4.16944 0.300902,-3.81901 6.474132,-6.39016 3.056209,-1.27291 5.681691,-2.19545 5.834401,-2.05009 0.152711,0.14536 0.650205,6.25129 1.105542,13.56875 0.455334,7.31745 0.915307,13.39188 1.02216,13.49873 0.106853,0.10685 0.667473,-0.74312 1.245828,-1.88883 1.351505,-2.67732 3.163686,-4.42504 6.133959,-5.91576 3.111973,-1.56185 5.741843,-2.08148 9.386394,-1.85466 2.506645,0.15601 3.344781,0.38514 5.644444,1.54309 1.485375,0.74793 2.745828,1.60558 2.801003,1.90589 0.05518,0.3003 -2.541447,3.68856 -5.770273,7.52944 -3.680894,4.37865 -5.746401,7.10764 -5.537631,7.31641 0.779,0.779 4.438467,-1.44184 5.935557,-3.60215 0.527043,-0.76052 1.145261,-1.38277 1.373815,-1.38277 0.378626,0 5.16073,5.55144 5.399723,6.26843 0.236841,0.71051 -1.657269,2.73991 -3.706432,3.97115 -3.318189,1.99374 -7.200801,2.96344 -11.90619,2.97364 -4.458988,0.01 -6.747835,-0.59801 -8.590058,-2.28062 -0.635183,-0.58015 -1.290775,-1.05482 -1.456873,-1.05482 -0.166099,0 -0.21323,1.80238 -0.104737,4.0053 0.115803,2.35131 0.06026,4.08996 -0.134496,4.21033 -0.182471,0.11277 -2.482222,0.31658 -5.110565,0.45291 l -4.778802,0.24786 z M 4.9388914,183.47141 c 3.5939519,-4.63431 6.4495646,-8.56337 6.3458096,-8.73125 -0.103756,-0.16788 -3.5852105,-0.30524 -7.7365619,-0.30524 h -7.5479172 l -0.1923767,-1.23472 c -0.1058052,-0.6791 -0.2789414,-1.79035 -0.3847466,-2.46945 -0.1058086,-0.67909 -0.341958,-1.23472 -0.5247851,-1.23472 -0.4224726,0 -14.0995085,17.05995 -14.0995085,17.58692 0,0.2738 2.52609,0.42049 8.378472,0.48656 l 8.3784727,0.0946 0.1056393,2.22844 c 0.058103,1.22565 0.2490576,2.17815 0.4243459,2.11667 0.1752882,-0.0615 3.2592081,-3.90348 6.8531565,-8.53779 z M 30.56909,180.21265 c -0.595665,-11.13614 -0.755657,-12.83512 -1.206814,-12.81534 -0.477827,0.0209 -15.755137,19.11311 -15.755137,19.68931 0,0.42038 16.506494,0.767 17.046995,0.35797 0.159526,-0.12072 0.121257,-3.37509 -0.08504,-7.23194 z m 21.65621,-1.05227 c 1.65529,-2.05767 3.009618,-3.88027 3.009618,-4.05023 0,-0.48283 -1.645215,-0.77601 -2.965143,-0.5284 -3.070888,0.57611 -5.220727,4.46494 -4.099144,7.41493 0.189226,0.4977 0.501773,0.90491 0.694549,0.90491 0.192779,0 1.704834,-1.68355 3.36012,-3.74121 z M -73.613553,166.68852 c 2.750178,-3.26721 3.160282,-4.04671 2.52912,-4.80722 -0.388891,-0.46858 -0.919381,-0.54827 -2.698922,-0.40543 -2.933507,0.23548 -4.122706,1.00146 -3.879099,2.4986 0.32276,1.98361 1.35309,5.16878 1.671976,5.16878 0.170861,0 1.240476,-1.10462 2.376925,-2.45473 z M 7.4335278,151.32727 c -2.7593079,-0.97557 -4.5316812,-4.19468 -3.6988645,-6.71814 0.218701,-0.66267 0.2976104,-1.36671 0.1753482,-1.56453 -0.318576,-0.51547 -3.15387932,-0.42185 -5.8250951,0.19235 -4.6255941,1.06358 -4.8172442,1.06114 -5.3922861,-0.0688 -0.6906366,-1.35702 -1.3104918,-5.12745 -1.3104918,-7.97139 0,-2.06328 0.110363,-2.43319 1.0148746,-3.40147 0.982719,-1.052 1.0867214,-1.07971 3.2825162,-0.87467 2.2252694,0.2078 2.2854074,0.19064 3.2184588,-0.91822 1.32827184,-1.57856 1.34116587,-4.08559 0.029034,-5.64497 -0.888231,-1.05561 -1.0113222,-1.0919 -3.381802,-0.99721 -2.3438556,0.0936 -2.5025315,0.0489 -3.3601978,-0.9481 -0.8679463,-1.00889 -0.8926195,-1.16679 -0.6890562,-4.40972 0.2110987,-3.363 1.00971,-6.84815 1.6615446,-7.25101 0.1902601,-0.11758 1.6545737,0.1084 3.2540294,0.50219 6.4274631,1.58247 7.9829062,1.34148 7.2951236,-1.13023 -1.2545449,-4.50852 4.1193439,-8.47344 8.4737083,-6.25201 2.271737,1.15895 3.021838,2.5614 2.970939,5.5547 -0.03791,2.22917 0.04194,2.57517 0.637872,2.76431 0.884114,0.28061 3.656912,-0.0865 7.048955,-0.93315 1.487537,-0.3713 2.876599,-0.6751 3.086805,-0.6751 0.451221,0 0.555929,33.36488 0.105583,33.64321 -0.152139,0.094 -1.382451,-0.14319 -2.734028,-0.52713 -1.351579,-0.38395 -3.727414,-0.72932 -5.279637,-0.7675 l -2.822222,-0.0694 0.11406,1.97789 c 0.185851,3.22271 -1.20819,5.54599 -3.93029,6.55013 -1.4858291,0.54811 -2.2532267,0.53603 -3.9448808,-0.0621 z m 4.0850082,-2.18865 c 1.596464,-0.94306 2.191544,-2.53091 1.673877,-4.46641 -0.941013,-3.51834 1.067714,-4.56424 6.941115,-3.61406 1.940278,0.31389 3.726216,0.5702 3.96875,0.56958 0.345398,-0.001 0.440972,-3.055 0.440972,-14.09143 0,-7.74966 -0.137403,-14.17521 -0.305339,-14.27901 -0.167933,-0.10379 -1.398246,0.0428 -2.734028,0.32584 -6.565893,1.39105 -9.619231,0.0725 -8.238935,-3.558 0.828358,-2.17875 -1.098479,-4.73465 -3.569342,-4.73465 -1.8605959,0 -2.9673516,0.5838 -3.7056202,1.95468 -0.5338551,0.99131 -0.57035,1.41809 -0.2434238,2.84675 0.6788715,2.96668 -0.3146072,4.01801 -3.7968908,4.01801 -0.95356899,0 -3.0238207,-0.25994 -4.6005575,-0.57765 -2.3572153,-0.47496 -2.9180191,-0.49477 -3.1549518,-0.11141 -0.5822703,0.94214 -1.1125376,6.11818 -0.7298901,7.12462 0.3551519,0.93412 0.4300114,0.95771 2.4054082,0.7579 1.7591441,-0.17794 2.2082338,-0.0923 3.27356978,0.62453 1.82427743,1.22743 2.90264152,3.54752 2.72684882,5.86678 -0.1503221,1.98326 -0.8461234,3.21969 -2.5107054,4.46149 -0.7492506,0.55895 -1.5026605,0.72735 -3.2540858,0.72735 -3.1641557,0 -3.3432116,0.38841 -2.5713797,5.57785 0.5412,3.63878 0.5025496,3.60289 3.1854953,2.95813 6.9856987,-1.67881 10.042049,-0.58935 9.0233714,3.21644 -0.3556988,1.32891 -0.3190664,1.68568 0.2889144,2.8138 1.1490078,2.132 3.4428784,2.79626 5.4868272,1.58887 z m -63.1711,-5.65995 c 0.0025,-0.33955 0.24173,-1.49049 0.532063,-2.55764 0.817696,-3.00554 1.220142,-6.32379 0.876564,-7.22746 -0.286388,-0.75326 -0.46095,-0.79711 -2.535883,-0.63701 -1.930601,0.14897 -2.392168,0.0602 -3.454647,-0.6645 -1.894769,-1.29235 -2.830618,-2.92767 -2.830618,-4.94627 0,-1.99616 0.542879,-3.20435 2.108634,-4.69281 1.026347,-0.97569 1.317134,-1.05968 3.723492,-1.07556 1.435608,-0.009 2.71592,-0.12295 2.845128,-0.25216 0.450709,-0.45071 0.146949,-3.91047 -0.616723,-7.02438 -0.556905,-2.27079 -0.662809,-3.24368 -0.383497,-3.52299 0.674303,-0.67431 4.029741,-1.38957 7.497985,-1.59831 3.295583,-0.19835 3.378454,-0.18396 4.532534,0.78714 1.165522,0.98072 1.173533,1.00826 0.93658,3.2209 -0.230361,2.15107 -0.200727,2.26998 0.820187,3.29089 0.871816,0.87182 1.347914,1.05919 2.691342,1.05919 3.246487,0 4.581207,-1.49742 4.203001,-4.71535 -0.209698,-1.78421 -0.172388,-1.89446 0.964809,-2.85135 1.158271,-0.97462 1.249242,-0.99094 4.362372,-0.78266 3.547325,0.23734 6.822479,1.07682 7.108441,1.82202 0.103402,0.26946 -0.153367,1.96742 -0.570601,3.77322 -0.417233,1.80581 -0.708561,4.07703 -0.647396,5.04717 l 0.111213,1.76389 2.169947,-0.12131 c 3.980822,-0.22255 6.170447,1.62817 6.404194,5.41298 0.109643,1.77533 -0.0036,2.31442 -0.702325,3.34299 -0.458177,0.67449 -1.384896,1.59964 -2.059379,2.05591 -1.037787,0.70203 -1.578867,0.8118 -3.519381,0.71395 l -2.293056,-0.11563 -0.101882,2.11667 c -0.06681,1.38797 0.189385,3.23688 0.744184,5.37062 0.465343,1.78968 0.762544,3.3375 0.66045,3.43959 -0.102091,0.10209 -7.699788,0.18562 -16.883772,0.18562 -15.669409,0 -16.69789,-0.038 -16.69396,-0.61736 z m 30.858962,-1.49136 c 0.117217,-0.18967 -0.03217,-1.53235 -0.331957,-2.98375 -0.745769,-3.61048 -0.698712,-5.76373 0.156608,-7.16656 0.754955,-1.23821 1.894488,-1.48325 3.701941,-0.79606 1.83079,0.69606 4.763026,-1.54807 4.767273,-3.64854 0.0025,-1.30007 -1.112946,-2.99808 -2.357825,-3.58881 -1.058369,-0.50222 -1.47423,-0.52758 -2.758006,-0.16814 -1.920089,0.53759 -2.857038,0.23458 -3.576451,-1.15661 -0.662534,-1.2812 -0.490781,-5.11934 0.371401,-8.29969 0.499844,-1.84379 0.495353,-1.87558 -0.307996,-2.18101 -1.502805,-0.57136 -5.881769,-1.02748 -6.738222,-0.70186 -0.747208,0.28409 -0.821242,0.51263 -0.769599,2.37577 0.07262,2.62016 -0.764042,4.13779 -2.916558,5.29032 -1.966031,1.05269 -5.088075,0.98895 -6.592951,-0.1346 -1.879802,-1.40347 -2.398307,-2.47759 -2.398307,-4.96823 0,-2.12744 -0.0689,-2.33892 -0.857194,-2.6311 -1.427261,-0.52902 -7.785862,0.51737 -7.785862,1.28126 0,0.25653 0.25527,1.70077 0.567267,3.20943 1.166897,5.64252 0.164775,8.66616 -2.666835,8.04645 -3.129343,-0.68488 -4.864477,0.10004 -5.679355,2.56915 -0.323303,0.97961 -0.279227,1.41383 0.254342,2.50576 0.944002,1.93187 2.373263,2.53784 4.903939,2.07913 1.95773,-0.35485 2.033655,-0.33871 2.845192,0.60476 0.698539,0.8121 0.832937,1.35239 0.828569,3.33091 -0.0028,1.29886 -0.242224,3.36693 -0.531901,4.5957 -0.289676,1.22877 -0.43671,2.37971 -0.326742,2.55764 0.277414,0.44887 27.921557,0.42796 28.199229,-0.0213 z m -16.39926,-34.62276 c -2.47892,-0.98557 -3.746818,-3.44106 -3.363003,-6.51301 0.227944,-1.824391 0.20162,-1.913213 -0.580362,-1.958443 -1.943463,-0.112405 -4.174405,0.147497 -6.698745,0.780394 -1.487537,0.372949 -2.955975,0.678099 -3.263195,0.678099 -0.501727,0 -0.558585,-1.699701 -0.558585,-16.698151 0,-9.183984 0.08353,-16.781682 0.185625,-16.883772 0.10209,-0.102094 1.649903,0.195107 3.439583,0.660449 2.133742,0.5548 3.98265,0.810994 5.370626,0.744185 l 2.116667,-0.101882 v -2.530775 c 0,-2.821704 0.524309,-3.877074 2.642245,-5.318531 1.426373,-0.970777 4.08704,-1.065382 5.890783,-0.209448 2.400331,1.139032 3.32136,3.447003 2.864005,7.176809 -0.101216,0.825447 0.0048,0.889067 1.655745,0.993158 0.970139,0.06117 3.241368,-0.230163 5.04717,-0.647397 1.805806,-0.417233 3.503761,-0.674003 3.773227,-0.5706 0.799701,0.306874 1.623769,3.679596 1.838022,7.522595 l 0.200346,3.593588 -1.099214,1.099214 c -1.057973,1.057973 -1.178327,1.090259 -3.207963,0.860633 -2.021502,-0.228706 -2.153225,-0.194106 -3.183643,0.836312 -0.908005,0.908004 -1.07489,1.345576 -1.07489,2.818342 0,2.933845 1.967848,4.674521 4.495561,3.976585 1.597751,-0.441162 2.992257,0.231105 3.619235,1.744762 0.805977,1.945802 -0.271402,10.052593 -1.431237,10.769414 -0.194515,0.12021 -1.7858,-0.11766 -3.536188,-0.528596 -3.624852,-0.851017 -6.468724,-1.065072 -7.006682,-0.527392 -0.250497,0.250363 -0.254663,0.754895 -0.01309,1.587498 1.266793,4.36641 -3.678231,8.41274 -8.122028,6.64596 z m 4.044844,-1.86989 c 1.757091,-0.73416 2.375962,-2.17248 2.09961,-4.87973 -0.202692,-1.985668 -0.147352,-2.273404 0.559509,-2.909177 0.662457,-0.595831 1.230842,-0.696637 3.654827,-0.648219 1.578709,0.03154 3.743502,0.298927 4.810655,0.594202 1.4951,0.413681 2.036589,0.440997 2.360051,0.119048 0.6777,-0.674532 1.354388,-6.430306 0.878724,-7.474271 -0.373991,-0.820819 -0.517515,-0.860072 -2.435455,-0.666076 -1.759761,0.177997 -2.204032,0.09293 -3.25369,-0.622971 -1.791053,-1.221556 -2.65315,-2.923046 -2.65315,-5.236436 0,-2.553571 0.923237,-4.159969 2.994924,-5.211067 1.233939,-0.626054 1.908091,-0.752232 3.081938,-0.576824 2.615582,0.390846 2.93582,-0.438488 2.166535,-5.610793 -0.213346,-1.43443 -0.496972,-2.784538 -0.630283,-3.000241 -0.173182,-0.280215 -1.24587,-0.185653 -3.757239,0.331216 -3.863375,0.795126 -6.207139,0.695953 -7.31834,-0.309672 -0.593908,-0.537481 -0.650501,-0.915278 -0.446782,-2.982683 0.268322,-2.72306 -0.02812,-3.52171 -1.681276,-4.529716 -2.140927,-1.305416 -4.663369,-0.550986 -5.739402,1.716581 -0.485757,1.023656 -0.505255,1.431541 -0.13214,2.76418 0.969645,3.46322 -1.067759,4.516233 -6.852444,3.541617 -1.963211,-0.330764 -3.76791,-0.600286 -4.010444,-0.598939 -0.345479,0.0018 -0.440973,3.096444 -0.440973,14.289952 0,13.376678 0.03936,14.286711 0.617361,14.275108 0.339549,-0.0068 1.649237,-0.239363 2.910417,-0.516774 4.346607,-0.956081 7.396579,-0.469572 7.947999,1.267806 0.130291,0.410506 0.04735,1.423359 -0.184312,2.250769 -0.348305,1.24402 -0.330172,1.68044 0.104771,2.52152 1.227039,2.37284 3.016561,3.07598 5.348609,2.10159 z m 29.8935183,-4.12545 c -2.215702,-0.36879 -3.9522507,-1.19517 -3.9522507,-1.880772 0,-0.270739 0.3254975,-1.862773 0.7233285,-3.537853 0.3978311,-1.675077 0.6756436,-3.870424 0.6173611,-4.87855 -0.092897,-1.606854 -0.1929976,-1.819318 -0.8115229,-1.722452 -4.7863093,0.749596 -7.5709463,-1.102512 -7.8698163,-5.234337 -0.173828,-2.40315 0.424296,-3.757203 2.286684,-5.176675 1.137959,-0.867326 1.602465,-0.988374 3.7927321,-0.988374 h 2.4959558 l -0.026599,-2.822222 C -6.015702,73.317 -6.2942836,71.431001 -6.7760969,69.864474 -7.1890727,68.52177 -7.4455422,67.291457 -7.3460306,67.130446 c 0.099501,-0.161012 7.71217752,-0.292749 16.9170461,-0.292749 18.6954415,0 17.1656805,-0.230901 16.3760685,2.471772 -0.662118,2.26628 -1.350416,6.866347 -1.1673,7.801374 0.176361,0.900543 0.247209,0.923431 2.730275,0.881945 2.298911,-0.03841 2.680434,0.05723 3.885579,0.974051 4.960331,3.773586 1.170824,12.166269 -4.721493,10.456775 -0.74531,-0.216232 -1.347202,-0.227387 -1.545936,-0.02865 -0.518315,0.518315 -0.303724,3.711236 0.467745,6.959533 0.391152,1.64695 0.711185,3.1366 0.711185,3.310326 0,0.966107 -4.806495,2.097877 -8.90947,2.097877 -2.005418,0 -2.479357,-0.12964 -3.445305,-0.94244 -1.097171,-0.923211 -1.115244,-0.987028 -0.885913,-3.128478 0.21198,-1.979457 0.154224,-2.278905 -0.611163,-3.168724 -0.691254,-0.803631 -1.208275,-1.012782 -2.8375577,-1.147896 -1.911029,-0.158479 -2.0443261,-0.113178 -3.2681405,1.110636 -1.2205406,1.220541 -1.2654457,1.351513 -1.035812,3.02114 0.3065321,2.228758 0.024835,3.076842 -1.2391214,3.730462 -1.1198896,0.57912 -4.29823752,0.63628 -7.3291561,0.13181 z"
         id="path81"
         inkscape:connector-curvature="0" />
      <path
         style="fill:#5c5a5c;stroke-width:0.35277778"
         d="m 31.477013,197.89389 c -0.127042,-0.92687 -0.242143,-2.65525 -0.255781,-3.84084 -0.03397,-2.95377 -0.516672,-4.12955 -0.812543,-1.97924 -0.120135,0.87313 -0.258695,2.14313 -0.307908,2.82222 l -0.08948,1.23473 -33.6020841,0.09 c -26.7701369,0.0717 -33.6002709,-4e-5 -33.5931629,-0.35278 0.0049,-0.24351 3.574024,-5.02643 7.931373,-10.62871 4.357349,-5.60228 7.836465,-10.32509 7.731369,-10.49514 -0.231253,-0.37418 -11.795539,-0.40776 -12.380017,-0.036 -0.226886,0.14433 -0.590797,1.56448 -0.80869,3.15588 -0.803025,5.86495 -2.227626,9.08331 -5.438977,12.28732 -1.50496,1.50152 -2.693751,2.34052 -3.923146,2.76879 -2.633885,0.91752 -6.60134,1.09739 -9.444327,0.42819 -8.17008,-1.92314 -11.574202,-7.17759 -11.530461,-17.7979 0.0085,-2.06874 0.155289,-4.95196 0.326157,-6.40717 0.170864,-1.4552 0.193647,-2.76689 0.05063,-2.91485 -0.143016,-0.14795 -1.40819,1.07938 -2.811494,2.72742 -1.403304,1.64805 -3.40941,3.73714 -4.458011,4.64244 -1.048603,0.9053 -1.980995,1.84 -2.071984,2.07711 -0.09099,0.23711 0.692105,3.42845 1.740207,7.09186 1.048103,3.66341 1.908274,6.905 1.911492,7.20354 0.007,0.65225 -4.634389,4.04332 -5.534167,4.04332 -0.516653,0 -1.544838,-2.60347 -5.57289,-14.11111 -2.716643,-7.76111 -5.074966,-14.32149 -5.240719,-14.57862 -0.237832,-0.36894 -0.474133,-0.30519 -1.120874,0.30239 -0.450733,0.42344 -1.012423,0.70559 -1.248205,0.62699 -0.552157,-0.18405 -3.964856,-9.49752 -3.600835,-9.82689 0.396148,-0.35844 5.268616,-1.91336 9.976316,-3.18368 3.194018,-0.86187 5.040919,-1.13514 8.682987,-1.28475 5.678163,-0.23326 7.523071,0.2485 10.06814,2.62912 2.629652,2.45973 2.952161,4.38181 1.30586,7.78261 -0.41959,0.86676 -0.608316,1.6623 -0.433846,1.82879 0.169841,0.16207 2.44329,0.55169 5.052106,0.86581 2.60882,0.31412 4.813452,0.64128 4.899191,0.72701 0.08574,0.0857 0.17375,3.37521 0.195584,7.30994 0.03697,6.66288 0.09512,7.27427 0.846924,8.90505 1.641616,3.56093 2.780153,3.9147 4.115819,1.27889 1.58363,-3.12515 2.35367,-6.57692 2.604065,-11.67294 l 0.234004,-4.7625 h 3.527778 3.527778 l 0.02099,-1.13811 c 0.01154,-0.62596 0.131731,-1.24886 0.267096,-1.38423 0.13536,-0.13536 15.286546,-0.25821 33.6692951,-0.273 l 33.4231769,-0.0269 v -2.11667 -2.11667 l -1.550039,0.1235 -1.550039,0.12349 0.241424,-1.5346 c 0.655934,-4.16944 0.300902,-3.81901 6.474132,-6.39016 3.056209,-1.27291 5.681691,-2.19545 5.834401,-2.05009 0.152711,0.14536 0.650205,6.25129 1.105542,13.56875 0.455334,7.31745 0.915307,13.39188 1.02216,13.49873 0.106853,0.10685 0.667473,-0.74312 1.245828,-1.88883 1.351505,-2.67732 3.163686,-4.42504 6.133959,-5.91576 3.111973,-1.56185 5.741843,-2.08148 9.386394,-1.85466 2.506645,0.15601 3.344781,0.38514 5.644444,1.54309 1.485375,0.74793 2.745828,1.60558 2.801003,1.90589 0.05518,0.3003 -2.541447,3.68856 -5.770273,7.52944 -3.680894,4.37865 -5.746401,7.10764 -5.537631,7.31641 0.779,0.779 4.438467,-1.44184 5.935557,-3.60215 0.527043,-0.76052 1.145261,-1.38277 1.373815,-1.38277 0.378626,0 5.16073,5.55144 5.399723,6.26843 0.236841,0.71051 -1.657269,2.73991 -3.706432,3.97115 -3.318189,1.99374 -7.200801,2.96344 -11.90619,2.97364 -4.458988,0.01 -6.747835,-0.59801 -8.590058,-2.28062 -0.635183,-0.58015 -1.290775,-1.05482 -1.456873,-1.05482 -0.166099,0 -0.21323,1.80238 -0.104737,4.0053 0.115803,2.35131 0.06026,4.08996 -0.134496,4.21033 -0.182471,0.11277 -2.482222,0.31658 -5.110565,0.45291 l -4.778802,0.24786 z M 4.9388914,183.47141 c 3.5939519,-4.63431 6.4495646,-8.56337 6.3458096,-8.73125 -0.103756,-0.16788 -3.5852105,-0.30524 -7.7365619,-0.30524 h -7.5479172 l -0.1923767,-1.23472 c -0.1058052,-0.6791 -0.2789414,-1.79035 -0.3847466,-2.46945 -0.1058086,-0.67909 -0.341958,-1.23472 -0.5247851,-1.23472 -0.4224726,0 -14.0995085,17.05995 -14.0995085,17.58692 0,0.2738 2.52609,0.42049 8.378472,0.48656 l 8.3784727,0.0946 0.1056393,2.22844 c 0.058103,1.22565 0.2490576,2.17815 0.4243459,2.11667 0.1752882,-0.0615 3.2592081,-3.90348 6.8531565,-8.53779 z M 30.56909,180.21265 c -0.595665,-11.13614 -0.755657,-12.83512 -1.206814,-12.81534 -0.477827,0.0209 -15.755137,19.11311 -15.755137,19.68931 0,0.42038 16.506494,0.767 17.046995,0.35797 0.159526,-0.12072 0.121257,-3.37509 -0.08504,-7.23194 z m 21.65621,-1.05227 c 1.65529,-2.05767 3.009618,-3.88027 3.009618,-4.05023 0,-0.48283 -1.645215,-0.77601 -2.965143,-0.5284 -3.070888,0.57611 -5.220727,4.46494 -4.099144,7.41493 0.189226,0.4977 0.501773,0.90491 0.694549,0.90491 0.192779,0 1.704834,-1.68355 3.36012,-3.74121 z M -73.613553,166.68852 c 2.750178,-3.26721 3.160282,-4.04671 2.52912,-4.80722 -0.388891,-0.46858 -0.919381,-0.54827 -2.698922,-0.40543 -2.933507,0.23548 -4.122706,1.00146 -3.879099,2.4986 0.32276,1.98361 1.35309,5.16878 1.671976,5.16878 0.170861,0 1.240476,-1.10462 2.376925,-2.45473 z M 7.4335278,151.32727 c -2.7593079,-0.97557 -4.5316812,-4.19468 -3.6988645,-6.71814 0.218701,-0.66267 0.2976104,-1.36671 0.1753482,-1.56453 -0.318576,-0.51547 -3.15387932,-0.42185 -5.8250951,0.19235 -4.6255941,1.06358 -4.8172442,1.06114 -5.3922861,-0.0688 -0.6906366,-1.35702 -1.3104918,-5.12745 -1.3104918,-7.97139 0,-2.06328 0.110363,-2.43319 1.0148746,-3.40147 0.982719,-1.052 1.0867214,-1.07971 3.2825162,-0.87467 2.2252694,0.2078 2.2854074,0.19064 3.2184588,-0.91822 1.32827184,-1.57856 1.34116587,-4.08559 0.029034,-5.64497 -0.888231,-1.05561 -1.0113222,-1.0919 -3.381802,-0.99721 -2.3438556,0.0936 -2.5025315,0.0489 -3.3601978,-0.9481 -0.8679463,-1.00889 -0.8926195,-1.16679 -0.6890562,-4.40972 0.2110987,-3.363 1.00971,-6.84815 1.6615446,-7.25101 0.1902601,-0.11758 1.6545737,0.1084 3.2540294,0.50219 6.4274631,1.58247 7.9829062,1.34148 7.2951236,-1.13023 -1.2545449,-4.50852 4.1193439,-8.47344 8.4737083,-6.25201 2.271737,1.15895 3.021838,2.5614 2.970939,5.5547 -0.03791,2.22917 0.04194,2.57517 0.637872,2.76431 0.884114,0.28061 3.656912,-0.0865 7.048955,-0.93315 1.487537,-0.3713 2.876599,-0.6751 3.086805,-0.6751 0.451221,0 0.555929,33.36488 0.105583,33.64321 -0.152139,0.094 -1.382451,-0.14319 -2.734028,-0.52713 -1.351579,-0.38395 -3.727414,-0.72932 -5.279637,-0.7675 l -2.822222,-0.0694 0.11406,1.97789 c 0.185851,3.22271 -1.20819,5.54599 -3.93029,6.55013 -1.4858291,0.54811 -2.2532267,0.53603 -3.9448808,-0.0621 z m 4.0850082,-2.18865 c 1.596464,-0.94306 2.191544,-2.53091 1.673877,-4.46641 -0.941013,-3.51834 1.067714,-4.56424 6.941115,-3.61406 1.940278,0.31389 3.726216,0.5702 3.96875,0.56958 0.345398,-0.001 0.440972,-3.055 0.440972,-14.09143 0,-7.74966 -0.137403,-14.17521 -0.305339,-14.27901 -0.167933,-0.10379 -1.398246,0.0428 -2.734028,0.32584 -6.565893,1.39105 -9.619231,0.0725 -8.238935,-3.558 0.828358,-2.17875 -1.098479,-4.73465 -3.569342,-4.73465 -1.8605959,0 -2.9673516,0.5838 -3.7056202,1.95468 -0.5338551,0.99131 -0.57035,1.41809 -0.2434238,2.84675 0.6788715,2.96668 -0.3146072,4.01801 -3.7968908,4.01801 -0.95356899,0 -3.0238207,-0.25994 -4.6005575,-0.57765 -2.3572153,-0.47496 -2.9180191,-0.49477 -3.1549518,-0.11141 -0.5822703,0.94214 -1.1125376,6.11818 -0.7298901,7.12462 0.3551519,0.93412 0.4300114,0.95771 2.4054082,0.7579 1.7591441,-0.17794 2.2082338,-0.0923 3.27356978,0.62453 1.82427743,1.22743 2.90264152,3.54752 2.72684882,5.86678 -0.1503221,1.98326 -0.8461234,3.21969 -2.5107054,4.46149 -0.7492506,0.55895 -1.5026605,0.72735 -3.2540858,0.72735 -3.1641557,0 -3.3432116,0.38841 -2.5713797,5.57785 0.5412,3.63878 0.5025496,3.60289 3.1854953,2.95813 6.9856987,-1.67881 10.042049,-0.58935 9.0233714,3.21644 -0.3556988,1.32891 -0.3190664,1.68568 0.2889144,2.8138 1.1490078,2.132 3.4428784,2.79626 5.4868272,1.58887 z m -63.1711,-5.65995 c 0.0025,-0.33955 0.24173,-1.49049 0.532063,-2.55764 0.817696,-3.00554 1.220142,-6.32379 0.876564,-7.22746 -0.286388,-0.75326 -0.46095,-0.79711 -2.535883,-0.63701 -1.930601,0.14897 -2.392168,0.0602 -3.454647,-0.6645 -1.894769,-1.29235 -2.830618,-2.92767 -2.830618,-4.94627 0,-1.99616 0.542879,-3.20435 2.108634,-4.69281 1.026347,-0.97569 1.317134,-1.05968 3.723492,-1.07556 1.435608,-0.009 2.71592,-0.12295 2.845128,-0.25216 0.450709,-0.45071 0.146949,-3.91047 -0.616723,-7.02438 -0.556905,-2.27079 -0.662809,-3.24368 -0.383497,-3.52299 0.674303,-0.67431 4.029741,-1.38957 7.497985,-1.59831 3.295583,-0.19835 3.378454,-0.18396 4.532534,0.78714 1.165522,0.98072 1.173533,1.00826 0.93658,3.2209 -0.230361,2.15107 -0.200727,2.26998 0.820187,3.29089 0.871816,0.87182 1.347914,1.05919 2.691342,1.05919 3.246487,0 4.581207,-1.49742 4.203001,-4.71535 -0.209698,-1.78421 -0.172388,-1.89446 0.964809,-2.85135 1.158271,-0.97462 1.249242,-0.99094 4.362372,-0.78266 3.547325,0.23734 6.822479,1.07682 7.108441,1.82202 0.103402,0.26946 -0.153367,1.96742 -0.570601,3.77322 -0.417233,1.80581 -0.708561,4.07703 -0.647396,5.04717 l 0.111213,1.76389 2.169947,-0.12131 c 3.980822,-0.22255 6.170447,1.62817 6.404194,5.41298 0.109643,1.77533 -0.0036,2.31442 -0.702325,3.34299 -0.458177,0.67449 -1.384896,1.59964 -2.059379,2.05591 -1.037787,0.70203 -1.578867,0.8118 -3.519381,0.71395 l -2.293056,-0.11563 -0.101882,2.11667 c -0.06681,1.38797 0.189385,3.23688 0.744184,5.37062 0.465343,1.78968 0.762544,3.3375 0.66045,3.43959 -0.102091,0.10209 -7.699788,0.18562 -16.883772,0.18562 -15.669409,0 -16.69789,-0.038 -16.69396,-0.61736 z m 30.858962,-1.49136 c 0.117217,-0.18967 -0.03217,-1.53235 -0.331957,-2.98375 -0.745769,-3.61048 -0.698712,-5.76373 0.156608,-7.16656 0.754955,-1.23821 1.894488,-1.48325 3.701941,-0.79606 1.83079,0.69606 4.763026,-1.54807 4.767273,-3.64854 0.0025,-1.30007 -1.112946,-2.99808 -2.357825,-3.58881 -1.058369,-0.50222 -1.47423,-0.52758 -2.758006,-0.16814 -1.920089,0.53759 -2.857038,0.23458 -3.576451,-1.15661 -0.662534,-1.2812 -0.490781,-5.11934 0.371401,-8.29969 0.499844,-1.84379 0.495353,-1.87558 -0.307996,-2.18101 -1.502805,-0.57136 -5.881769,-1.02748 -6.738222,-0.70186 -0.747208,0.28409 -0.821242,0.51263 -0.769599,2.37577 0.07262,2.62016 -0.764042,4.13779 -2.916558,5.29032 -1.966031,1.05269 -5.088075,0.98895 -6.592951,-0.1346 -1.879802,-1.40347 -2.398307,-2.47759 -2.398307,-4.96823 0,-2.12744 -0.0689,-2.33892 -0.857194,-2.6311 -1.427261,-0.52902 -7.785862,0.51737 -7.785862,1.28126 0,0.25653 0.25527,1.70077 0.567267,3.20943 1.166897,5.64252 0.164775,8.66616 -2.666835,8.04645 -3.129343,-0.68488 -4.864477,0.10004 -5.679355,2.56915 -0.323303,0.97961 -0.279227,1.41383 0.254342,2.50576 0.944002,1.93187 2.373263,2.53784 4.903939,2.07913 1.95773,-0.35485 2.033655,-0.33871 2.845192,0.60476 0.698539,0.8121 0.832937,1.35239 0.828569,3.33091 -0.0028,1.29886 -0.242224,3.36693 -0.531901,4.5957 -0.289676,1.22877 -0.43671,2.37971 -0.326742,2.55764 0.277414,0.44887 27.921557,0.42796 28.199229,-0.0213 z m -16.39926,-34.62276 c -2.47892,-0.98557 -3.746818,-3.44106 -3.363003,-6.51301 0.227944,-1.824391 0.20162,-1.913213 -0.580362,-1.958443 -1.943463,-0.112405 -4.174405,0.147497 -6.698745,0.780394 -1.487537,0.372949 -2.955975,0.678099 -3.263195,0.678099 -0.501727,0 -0.558585,-1.699701 -0.558585,-16.698151 0,-9.183984 0.08353,-16.781682 0.185625,-16.883772 0.10209,-0.102094 1.649903,0.195107 3.439583,0.660449 2.133742,0.5548 3.98265,0.810994 5.370626,0.744185 l 2.116667,-0.101882 v -2.530775 c 0,-2.821704 0.524309,-3.877074 2.642245,-5.318531 1.426373,-0.970777 4.08704,-1.065382 5.890783,-0.209448 2.400331,1.139032 3.32136,3.447003 2.864005,7.176809 -0.101216,0.825447 0.0048,0.889067 1.655745,0.993158 0.970139,0.06117 3.241368,-0.230163 5.04717,-0.647397 1.805806,-0.417233 3.503761,-0.674003 3.773227,-0.5706 0.799701,0.306874 1.623769,3.679596 1.838022,7.522595 l 0.200346,3.593588 -1.099214,1.099214 c -1.057973,1.057973 -1.178327,1.090259 -3.207963,0.860633 -2.021502,-0.228706 -2.153225,-0.194106 -3.183643,0.836312 -0.908005,0.908004 -1.07489,1.345576 -1.07489,2.818342 0,2.933845 1.967848,4.674521 4.495561,3.976585 1.597751,-0.441162 2.992257,0.231105 3.619235,1.744762 0.805977,1.945802 -0.271402,10.052593 -1.431237,10.769414 -0.194515,0.12021 -1.7858,-0.11766 -3.536188,-0.528596 -3.624852,-0.851017 -6.468724,-1.065072 -7.006682,-0.527392 -0.250497,0.250363 -0.254663,0.754895 -0.01309,1.587498 1.266793,4.36641 -3.678231,8.41274 -8.122028,6.64596 z m 4.044844,-1.86989 c 1.757091,-0.73416 2.375962,-2.17248 2.09961,-4.87973 -0.202692,-1.985668 -0.147352,-2.273404 0.559509,-2.909177 0.662457,-0.595831 1.230842,-0.696637 3.654827,-0.648219 1.578709,0.03154 3.743502,0.298927 4.810655,0.594202 1.4951,0.413681 2.036589,0.440997 2.360051,0.119048 0.6777,-0.674532 1.354388,-6.430306 0.878724,-7.474271 -0.373991,-0.820819 -0.517515,-0.860072 -2.435455,-0.666076 -1.759761,0.177997 -2.204032,0.09293 -3.25369,-0.622971 -1.791053,-1.221556 -2.65315,-2.923046 -2.65315,-5.236436 0,-2.553571 0.923237,-4.159969 2.994924,-5.211067 1.233939,-0.626054 1.908091,-0.752232 3.081938,-0.576824 2.615582,0.390846 2.93582,-0.438488 2.166535,-5.610793 -0.213346,-1.43443 -0.496972,-2.784538 -0.630283,-3.000241 -0.173182,-0.280215 -1.24587,-0.185653 -3.757239,0.331216 -3.863375,0.795126 -6.207139,0.695953 -7.31834,-0.309672 -0.593908,-0.537481 -0.650501,-0.915278 -0.446782,-2.982683 0.268322,-2.72306 -0.02812,-3.52171 -1.681276,-4.529716 -2.140927,-1.305416 -4.663369,-0.550986 -5.739402,1.716581 -0.485757,1.023656 -0.505255,1.431541 -0.13214,2.76418 0.969645,3.46322 -1.067759,4.516233 -6.852444,3.541617 -1.963211,-0.330764 -3.76791,-0.600286 -4.010444,-0.598939 -0.345479,0.0018 -0.440973,3.096444 -0.440973,14.289952 0,13.376678 0.03936,14.286711 0.617361,14.275108 0.339549,-0.0068 1.649237,-0.239363 2.910417,-0.516774 4.346607,-0.956081 7.396579,-0.469572 7.947999,1.267806 0.130291,0.410506 0.04735,1.423359 -0.184312,2.250769 -0.348305,1.24402 -0.330172,1.68044 0.104771,2.52152 1.227039,2.37284 3.016561,3.07598 5.348609,2.10159 z m 29.8935183,-4.12545 c -2.215702,-0.36879 -3.9522507,-1.19517 -3.9522507,-1.880772 0,-0.270739 0.3254975,-1.862773 0.7233285,-3.537853 0.3978311,-1.675077 0.6756436,-3.870424 0.6173611,-4.87855 -0.092897,-1.606854 -0.1929976,-1.819318 -0.8115229,-1.722452 -4.7863093,0.749596 -7.5709463,-1.102512 -7.8698163,-5.234337 -0.173828,-2.40315 0.424296,-3.757203 2.286684,-5.176675 1.137959,-0.867326 1.602465,-0.988374 3.7927321,-0.988374 h 2.4959558 l -0.026599,-2.822222 C -6.015702,73.317 -6.2942836,71.431001 -6.7760969,69.864474 -7.1890727,68.52177 -7.4455422,67.291457 -7.3460306,67.130446 c 0.099501,-0.161012 7.71217752,-0.292749 16.9170461,-0.292749 18.6954415,0 17.1656805,-0.230901 16.3760685,2.471772 -0.662118,2.26628 -1.350416,6.866347 -1.1673,7.801374 0.176361,0.900543 0.247209,0.923431 2.730275,0.881945 2.298911,-0.03841 2.680434,0.05723 3.885579,0.974051 4.960331,3.773586 1.170824,12.166269 -4.721493,10.456775 -0.74531,-0.216232 -1.347202,-0.227387 -1.545936,-0.02865 -0.518315,0.518315 -0.303724,3.711236 0.467745,6.959533 0.391152,1.64695 0.711185,3.1366 0.711185,3.310326 0,0.966107 -4.806495,2.097877 -8.90947,2.097877 -2.005418,0 -2.479357,-0.12964 -3.445305,-0.94244 -1.097171,-0.923211 -1.115244,-0.987028 -0.885913,-3.128478 0.21198,-1.979457 0.154224,-2.278905 -0.611163,-3.168724 -0.691254,-0.803631 -1.208275,-1.012782 -2.8375577,-1.147896 -1.911029,-0.158479 -2.0443261,-0.113178 -3.2681405,1.110636 -1.2205406,1.220541 -1.2654457,1.351513 -1.035812,3.02114 0.3065321,2.228758 0.024835,3.076842 -1.2391214,3.730462 -1.1198896,0.57912 -4.29823752,0.63628 -7.3291561,0.13181 z m 6.2761285,-1.722015 c 0.556327,-0.297737 0.62732,-0.639138 0.4633242,-2.228099 -0.358267,-3.471273 1.9202859,-5.896007 5.5726085,-5.93012 2.3553455,-0.02201 3.3693555,0.363001 4.7259665,1.794365 0.957195,1.00994 1.062697,1.354385 1.104011,3.60438 0.05236,2.851461 0.259768,3.098984 2.600156,3.10302 1.95653,0.0035 6.075669,-0.641477 6.447356,-1.009333 0.150558,-0.149006 0.01563,-1.370111 -0.299875,-2.713567 -0.825028,-3.513197 -0.839703,-6.806339 -0.03582,-8.038119 0.63542,-0.973653 0.676321,-0.983128 3.216172,-0.745123 2.51363,0.235546 2.599913,0.216637 3.766119,-0.825366 1.054971,-0.942619 1.193549,-1.271295 1.193549,-2.830845 0,-1.3941 -0.185099,-1.963321 -0.881944,-2.712201 -1.295534,-1.392262 -2.362599,-1.7001 -4.154269,-1.198464 -3.41612,0.956455 -4.467762,-1.107493 -3.497774,-6.86472 0.330764,-1.963212 0.600286,-3.767911 0.598939,-4.010445 -0.0018,-0.345469 -3.092281,-0.440973 -14.2691315,-0.440973 -7.8466741,0 -14.3508276,0.136148 -14.4536694,0.302553 -0.1028417,0.166402 -0.029034,0.84109 0.1640382,1.499306 0.7569906,2.580809 1.0829855,6.252065 0.6860575,7.726147 -0.5074885,1.884659 -1.5077934,2.375603 -3.6297871,1.781482 -2.8866677,-0.808217 -5.1888497,0.990505 -5.1888497,4.054105 0,1.00293 0.274994,1.562513 1.244103,2.531622 l 1.244102,1.244102 2.4406193,-0.240492 c 2.1762932,-0.214446 2.5191368,-0.161974 3.1656197,0.484509 0.5944165,0.594416 0.7250007,1.173127 0.7250007,3.212997 0,1.368401 -0.254374,3.606402 -0.565277,4.973335 -0.3246579,1.427409 -0.4333805,2.617233 -0.2554147,2.795199 0.7547822,0.754782 6.7648563,1.27438 7.8740708,0.680745 z"
         id="path79"
         inkscape:connector-curvature="0" />
      <path
         style="fill:#070707;stroke-width:0.35277778"
         d="m 31.807873,196.62264 c -0.117401,-1.4347 -0.449912,-7.5298 -0.738918,-13.54466 -0.71713,-14.92516 -0.847305,-16.40417 -1.44381,-16.40417 -0.580245,0 -16.771433,20.12429 -16.604097,20.6375 0.07026,0.21549 3.398573,0.42142 8.552639,0.52917 l 8.437619,0.17639 -0.126573,3.70416 c -0.06961,2.0373 -0.198046,3.82323 -0.285401,3.96875 -0.168172,0.28014 -66.439417,0.38075 -66.439417,0.10086 0,-0.09 3.571876,-4.76142 7.937501,-10.38082 4.365625,-5.61939 7.9375,-10.46697 7.9375,-10.77238 0,-0.48512 -0.813604,-0.55461 -6.438195,-0.5499 -3.541007,0.003 -6.62383,0.12349 -6.850715,0.26783 -0.226886,0.14433 -0.58922,1.55295 -0.805187,3.13028 -1.075538,7.85529 -3.630122,12.31225 -8.403527,14.66154 -2.232776,1.09889 -2.559244,1.15982 -6.070611,1.13303 -3.932682,-0.03 -6.376186,-0.68444 -9.215617,-2.46816 -5.001345,-3.14184 -6.843346,-10.25224 -5.583309,-21.55237 0.471456,-4.22806 0.116463,-4.8676 -1.533267,-2.76227 -0.608154,0.77611 -2.834097,3.18067 -4.946534,5.34347 l -3.840801,3.93235 1.973047,6.94604 c 1.085177,3.82032 1.973048,7.07833 1.973048,7.24003 0,0.32347 -4.764603,3.87841 -5.198071,3.87836 -0.148492,-1e-5 -1.727119,-4.1672 -3.508062,-9.26042 -1.780942,-5.09321 -4.065167,-11.61538 -5.076052,-14.49372 -1.010888,-2.87833 -2.062145,-5.31936 -2.336126,-5.42449 -0.273978,-0.10514 -0.880495,0.16804 -1.347816,0.60706 l -0.849669,0.79823 -0.359653,-0.84179 c -0.19781,-0.46298 -0.981573,-2.50866 -1.741696,-4.54595 -1.161475,-3.11302 -1.303006,-3.76697 -0.886827,-4.09771 0.666909,-0.53 8.720025,-2.88431 12.660916,-3.7014 3.856401,-0.79957 9.253316,-0.86828 11.665832,-0.14852 2.13348,0.6365 4.175693,2.2727 5.101351,4.08714 0.930081,1.8231 0.880085,2.5868 -0.337866,5.16131 -0.77053,1.62875 -0.927157,2.26889 -0.617083,2.52207 0.228551,0.18661 2.55003,0.59801 5.158846,0.91423 2.60882,0.31622 4.802841,0.63448 4.875604,0.70725 0.07276,0.0728 0.164818,3.36223 0.204566,7.30993 0.06162,6.11956 0.167901,7.38566 0.721003,8.58875 1.585313,3.44834 3.003642,4.22626 4.420744,2.42471 0.40091,-0.50967 1.22543,-2.45436 1.832267,-4.32152 0.924515,-2.84464 1.139289,-4.16673 1.32515,-8.15735 l 0.221809,-4.7625 h 3.527778 3.527778 l 0.176389,-1.37662 0.176389,-1.37662 33.4105751,0.0588 c 38.0011809,0.0668 34.2921709,0.41062 33.8449299,-3.13701 l -0.243262,-1.92962 -1.491537,0.0946 c -0.820346,0.052 -1.491538,-0.0406 -1.491538,-0.20574 0,-1.01303 0.866768,-4.34069 1.194562,-4.5861 0.541818,-0.40566 9.997874,-4.29859 10.441411,-4.29859 0.197161,0 0.364138,0.19844 0.371063,0.44097 0.150512,5.27137 1.774588,26.88732 2.040078,27.15281 0.251351,0.25135 0.74948,-0.44488 1.600747,-2.23735 0.679715,-1.43124 1.683576,-3.02817 2.230798,-3.54871 3.150979,-2.99739 8.358889,-4.77582 12.95322,-4.42335 2.816998,0.21613 6.133063,1.33003 7.525802,2.52802 l 0.92856,0.79871 -5.737564,6.84237 c -6.453642,7.69633 -6.662684,7.99259 -5.857533,8.30156 1.146193,0.43983 3.84482,-0.97947 5.897535,-3.10171 l 2.01507,-2.08333 2.218263,2.69492 c 1.220047,1.48221 2.340258,2.90697 2.489359,3.16615 0.445255,0.77396 -1.760513,2.92179 -4.328918,4.21522 -7.021421,3.53593 -16.269449,3.38644 -19.727973,-0.31889 -1.659724,-1.77816 -1.849321,-1.35888 -1.579721,3.49345 l 0.245008,4.40972 -1.374469,0.002 c -0.755953,0.001 -2.906585,0.1033 -4.779179,0.22731 l -3.404711,0.22548 -0.213452,-2.60856 z M -1.1512773,191.80923 C 1.4813198,188.9582 11.87809,175.03456 11.707096,174.58895 c -0.160708,-0.4188 -1.510761,-0.50681 -7.774288,-0.50681 h -7.5798083 l -0.2135328,-1.32291 c -0.4445953,-2.75448 -0.7261543,-3.74216 -1.1025365,-3.86762 -0.4375467,-0.14585 -14.7672924,17.64094 -14.7672924,18.3299 0,0.33773 2.00587,0.48437 8.466667,0.61897 l 8.4666669,0.17639 0.021978,2.11666 c 0.032597,3.1386 0.1556738,3.2656 1.6237621,1.6757 z M 52.34419,179.59732 c 1.78393,-2.2054 3.243506,-4.18419 3.243506,-4.39731 0,-0.56953 -1.206832,-1.11787 -2.460308,-1.11787 -1.634839,0 -3.712178,1.2176 -4.645829,2.72306 -1.303789,2.10231 -1.042586,6.80194 0.378051,6.80194 0.132591,0 1.700653,-1.80442 3.48458,-4.00982 z m -125.873164,-12.408 c 4.093746,-4.84155 4.152967,-5.9847 0.309894,-5.98196 -2.417608,0.002 -4.390669,0.62895 -4.863578,1.54608 -0.454477,0.8814 1.324176,6.74417 2.043751,6.73659 0.313309,-0.003 1.44278,-1.03863 2.509933,-2.30071 z M 8.0186591,151.15689 c -2.665603,-0.63805 -4.6095639,-3.93108 -3.8801288,-6.57288 0.4800107,-1.73846 -0.046595,-2.25248 -2.3044468,-2.24939 -0.99488979,0.001 -3.1286345,0.31885 -4.7416545,0.70555 -1.61302,0.3867 -3.1546801,0.70308 -3.4259168,0.70308 -1.1803204,0 -2.5389488,-9.14208 -1.6151543,-10.86822 0.753925,-1.40872 1.9636776,-1.94898 3.3440618,-1.49341 0.9674437,0.31929 1.4685222,0.29722 2.4367491,-0.10734 1.68242546,-0.70296 2.36941434,-1.82063 2.36941434,-3.85482 0,-3.3088 -1.93046354,-5.12882 -4.76254954,-4.49008 -3.3734975,0.76084 -4.3417491,-1.75172 -3.1823414,-8.25799 0.6739573,-3.78207 0.7961278,-3.87299 4.0644199,-3.02489 3.88079912,1.00705 6.7215634,1.23079 7.5650869,0.59583 0.6130396,-0.46146 0.6420344,-0.66315 0.2725914,-1.89624 -0.5635802,-1.88106 0.014041,-3.84319 1.5608406,-5.302 2.0734973,-1.95556 5.164155,-1.98559 7.344347,-0.0714 1.540206,1.35232 2.088554,2.9978 1.770246,5.31216 -0.283313,2.05993 -0.0056,2.40267 1.947915,2.40388 1.111617,7.1e-4 6.367382,-1.00326 8.378473,-1.60044 l 0.79375,-0.2357 v 16.38652 c 0,9.01258 -0.07594,16.46245 -0.168752,16.55526 -0.09281,0.0928 -1.640624,-0.20358 -3.439583,-0.65866 -2.09828,-0.53079 -4.029633,-0.79152 -5.387499,-0.72731 l -2.116667,0.10009 v 2.64584 c 0,2.20544 -0.136747,2.83755 -0.821563,3.79768 -1.339751,1.87836 -3.716993,2.7517 -6.0016389,2.20484 z m 3.4718129,-1.43282 c 0.291042,-0.14937 0.926042,-0.6972 1.411111,-1.2174 0.805569,-0.86391 0.874533,-1.18654 0.796354,-3.72554 -0.07495,-2.43409 -0.0011,-2.82496 0.59417,-3.14353 0.989185,-0.52939 4.785374,-0.43597 7.408534,0.18231 1.249966,0.29463 2.480278,0.45601 2.734028,0.35864 0.369739,-0.14188 0.461359,-3.09398 0.461359,-14.86544 V 112.6247 l -1.322916,0.17572 c -0.727605,0.0966 -2.75268,0.37865 -4.500168,0.62666 -2.702747,0.3836 -3.334974,0.37507 -4.233333,-0.0571 -1.034306,-0.4976 -1.056083,-0.5628 -1.056083,-3.1619 0,-3.11218 -0.605229,-4.33777 -2.541662,-5.14686 -1.6729778,-0.69902 -3.6449351,-0.34152 -4.8009244,0.87035 -1.3589,1.42459 -1.6231059,2.44109 -1.1871184,4.56734 0.3313359,1.61589 0.3011558,1.93652 -0.2324277,2.46944 -0.8045661,0.80357 -5.14405748,0.76973 -8.2901898,-0.0647 -1.637538,-0.43428 -2.3600163,-0.48969 -2.7004892,-0.20713 -0.5260587,0.43659 -1.2374669,4.06769 -1.2374669,6.31617 0,2.49905 0.3741843,2.85052 2.9533357,2.77409 3.75218687,-0.11119 5.5096764,1.70049 5.5120118,5.682 0.00141,2.14514 -0.06127,2.30895 -1.38764436,3.63532 -1.36407174,1.36407 -1.43136414,1.38759 -3.75523134,1.31236 -1.952745,-0.0632 -2.4498195,0.0377 -2.8443697,0.57724 -0.5743258,0.78543 -0.6157842,3.37473 -0.1013354,6.32892 0.5749925,3.30185 0.4712688,3.23741 4.0940673,2.5432 4.1233303,-0.79014 6.5152166,-0.77395 7.5339648,0.051 0.7133767,0.57766 0.765175,0.81965 0.5096934,2.38125 -0.1564076,0.95604 -0.2432968,2.04414 -0.1930824,2.418 0.3495146,2.60222 3.9014119,4.27795 6.3758126,3.00801 z m -62.68542,-6.77457 c 1.234359,-5.12223 1.708281,-8.19515 1.419158,-9.20181 l -0.320798,-1.11694 h -2.632164 c -2.157871,0 -2.830925,-0.14177 -3.7352,-0.7868 -3.06161,-2.18387 -2.944457,-7.06314 0.221089,-9.20793 1.092962,-0.74053 1.509956,-0.81442 3.631996,-0.64358 2.334651,0.18796 2.406413,0.16897 2.747059,-0.727 0.405374,-1.0662 0.181973,-3.02892 -0.790504,-6.94517 -0.569246,-2.2924 -0.610158,-2.86451 -0.230047,-3.21698 1.204458,-1.11689 8.673088,-1.99027 10.510665,-1.22912 1.464532,0.60663 1.83805,1.43439 1.567515,3.4738 -0.250976,1.89196 0.398138,3.65519 1.512073,4.10733 2.665151,1.08177 4.647547,0.84655 6.121442,-0.72634 0.757319,-0.80818 0.849436,-1.1996 0.778415,-3.30759 -0.09726,-2.88678 0.434305,-3.56433 2.987397,-3.80783 2.116977,-0.2019 7.795263,0.75979 8.469983,1.43452 0.442192,0.44219 0.410012,0.8993 -0.248321,3.52714 -0.484783,1.93508 -0.718442,3.81856 -0.650762,5.24566 l 0.10559,2.22656 2.469445,-0.10515 c 1.996627,-0.085 2.689585,0.0326 3.619196,0.61414 3.577157,2.23787 3.428027,7.59541 -0.267807,9.62106 -0.994661,0.54516 -1.658483,0.63646 -3.414293,0.46958 -1.514352,-0.14393 -2.25963,-0.0776 -2.441882,0.21728 -0.449954,0.72804 -0.193841,4.06526 0.553473,7.21184 0.394123,1.65948 0.71659,3.16345 0.71659,3.34216 0,0.1934 -6.6568,0.32492 -16.445294,0.32492 h -16.44529 z m 31.093721,-0.58809 c 0.109968,-0.17793 -0.03707,-1.32887 -0.326742,-2.55764 -0.60929,-2.58453 -0.70242,-6.73414 -0.17332,-7.72277 0.319348,-0.59671 0.71024,-0.6693 3.199282,-0.59417 l 2.835486,0.0856 1.210441,-1.31773 c 1.490694,-1.62284 1.6882,-3.25959 0.63844,-5.29088 -0.798418,-1.54495 -2.359562,-2.15312 -4.814087,-1.87542 -2.913638,0.32964 -3.435255,-0.1726 -3.427847,-3.30051 0.0032,-1.27961 0.235501,-3.27907 0.516601,-4.44324 0.797987,-3.30484 0.737842,-3.61407 -0.786694,-4.04456 -0.727605,-0.20546 -2.467046,-0.47377 -3.865425,-0.59624 -2.048966,-0.17944 -2.717031,-0.10832 -3.441559,0.36641 -0.82592,0.54116 -0.882696,0.73896 -0.69801,2.43174 0.375384,3.44065 -1.708369,5.54806 -5.483253,5.5455 -3.625999,-0.002 -5.565239,-2.07213 -5.161362,-5.50852 0.194317,-1.65331 0.132041,-1.91797 -0.566406,-2.40719 -0.910667,-0.63785 -3.029214,-0.69711 -6.272181,-0.17544 -3.224008,0.51862 -3.365235,0.72359 -2.690678,3.90518 0.889663,4.19614 0.888499,6.9974 -0.0032,7.88918 -0.469283,0.46929 -0.991634,0.53292 -2.791912,0.34013 -1.79222,-0.19193 -2.418175,-0.11692 -3.281867,0.39327 -2.489454,1.47056 -2.870055,4.9047 -0.775472,6.99704 1.043936,1.04282 1.221263,1.09128 3.993522,1.09128 h 2.901078 l 0.418504,1.23472 c 0.470874,1.38921 0.295695,4.08326 -0.465338,7.15648 -0.27801,1.12266 -0.410898,2.19422 -0.295307,2.38125 0.275138,0.44518 29.332436,0.46141 29.607384,0.0165 z m -17.494321,-35.71539 c -1.94546,-1.1281 -2.824899,-2.96804 -2.699212,-5.64723 0.09918,-2.114188 0.06525,-2.21534 -0.854339,-2.546457 -0.859815,-0.309594 -4.518329,0.251125 -9.361125,1.43473 l -0.79375,0.193997 V 83.635768 c 0,-12.96713 0.09376,-16.445294 0.443301,-16.445294 0.243815,0 0.997878,0.162028 1.675694,0.360056 2.610411,0.762663 6.977581,1.36302 7.972552,1.095996 1.009823,-0.271008 1.020953,-0.302556 1.020953,-2.893498 0,-3.021665 0.720641,-4.42081 2.780397,-5.398227 4.264509,-2.023642 9.12615,1.637228 7.929531,5.971022 -0.251989,0.912629 -0.232533,1.406412 0.06977,1.770659 0.607995,0.732589 3.924215,0.640415 7.211974,-0.200452 1.517283,-0.388056 2.965277,-0.705556 3.217763,-0.705556 1.192534,0 2.436407,8.78343 1.547711,10.928929 -0.614021,1.48238 -1.429272,1.840156 -3.55157,1.558622 -2.959265,-0.392561 -4.565293,1.047319 -4.565293,4.093005 0,3.156801 1.838505,4.749352 5.047449,4.372205 1.767138,-0.207691 1.941435,-0.158532 2.655253,0.748943 0.932539,1.185535 1.004517,3.437319 0.237931,7.443894 -0.72081,3.767328 -0.815901,3.833238 -4.25297,2.947536 -3.276391,-0.844292 -6.981828,-1.065428 -7.59697,-0.453376 -0.312537,0.310963 -0.326172,0.792678 -0.05292,1.869208 1.183958,4.66443 -3.874614,8.38637 -8.082125,5.94658 z m 5.030054,-0.90687 c 1.455163,-0.85958 2.5591,-3.23341 2.084363,-4.48207 -0.517959,-1.362337 -0.446842,-2.533874 0.192634,-3.17335 0.748196,-0.748196 4.605867,-0.733873 8.082256,0.02999 1.462698,0.321405 2.761728,0.482099 2.886728,0.357096 0.351832,-0.351833 1.149198,-4.82001 1.163683,-6.520907 0.0071,-0.837375 -0.160193,-1.846055 -0.371835,-2.241508 -0.337488,-0.630601 -0.608594,-0.691914 -2.204861,-0.498627 -3.459032,0.418864 -5.877003,-1.774902 -5.877003,-5.332038 0,-2.161946 0.608538,-3.58224 2.005743,-4.681281 0.79629,-0.62636 1.348779,-0.738928 3.215309,-0.655104 3.088978,0.138726 3.384857,-0.270366 3.106628,-4.295317 -0.114004,-1.649236 -0.380259,-3.613115 -0.591672,-4.364175 -0.425542,-1.511766 -0.379127,-1.505687 -4.561008,-0.597443 -0.873125,0.189628 -2.606876,0.351694 -3.852778,0.360143 -3.252741,0.02205 -4.19833,-1.070303 -3.199842,-3.696522 0.486794,-1.280368 -0.633713,-3.810123 -2.00049,-4.516483 -2.064279,-1.066835 -3.693869,-0.880816 -5.317335,0.606979 -1.37257,1.257868 -1.425903,1.516955 -1.125262,5.466464 0.06348,0.833844 -0.107555,1.341706 -0.564311,1.675695 -0.865353,0.63276 -4.609539,0.609667 -7.711726,-0.04756 -1.335782,-0.282998 -2.566095,-0.429623 -2.734028,-0.325832 -0.390228,0.241173 -0.403772,29.325151 -0.01376,29.566186 0.160362,0.09911 1.231925,-0.03648 2.38125,-0.301311 6.945814,-1.600482 9.334931,-0.806457 8.503663,2.826195 -0.295529,1.29146 -0.254064,1.81522 0.222888,2.8154 1.121957,2.35276 4.100545,3.31329 6.280775,2.02539 z m 30.4740215,-4.57531 c -1.825304,-0.2421 -4.7625001,-1.170475 -4.7625001,-1.505317 0,-0.176315 0.3163887,-1.640318 0.7030826,-3.253338 0.3866974,-1.61302 0.7041974,-3.914257 0.7055556,-5.113853 0.00282,-2.482917 -0.3769184,-2.828054 -2.4556051,-2.231895 -3.1257805,0.896462 -6.3613665,-1.799328 -6.3613665,-5.300094 0,-2.138864 0.903693,-3.748501 2.693328,-4.797298 1.373078,-0.804676 1.775869,-0.877362 3.6540121,-0.659381 2.0269624,0.235257 2.1241456,0.209952 2.4460977,-0.636845 0.3720994,-0.97869 -0.012488,-4.398102 -0.864415,-7.685832 -0.2863779,-1.105175 -0.5206894,-2.184933 -0.5206894,-2.39946 0,-0.279305 4.6692856,-0.390053 16.4452939,-0.390053 H 26.036612 l -0.193996,0.79375 c -1.17341,4.801091 -1.743809,8.504785 -1.441687,9.361125 0.324859,0.920789 0.434831,0.957626 2.858749,0.957626 2.820367,0 3.86049,0.521606 5.340689,2.678271 0.677887,0.987686 0.798428,1.535476 0.675319,3.068997 -0.18614,2.318703 -1.022805,3.519918 -3.218078,4.620264 -1.486852,0.745261 -1.836854,0.795814 -3.031546,0.437875 -1.647674,-0.493656 -2.351709,-0.263289 -2.634114,0.861903 -0.249319,0.993373 0.287506,4.782104 1.062767,7.500638 0.389238,1.364901 0.431733,2.008254 0.154704,2.342056 -0.583928,0.703591 -3.354056,1.290101 -7.063391,1.495511 -3.258238,0.18043 -3.379227,0.15956 -4.352943,-0.75071 -0.927421,-0.866985 -0.983544,-1.06725 -0.758232,-2.70548 0.44226,-3.215601 -0.984613,-4.910465 -4.1317229,-4.907728 -1.8161812,0.0014 -3.6866937,1.039855 -4.171742,2.315634 -0.1893534,0.498034 -0.2460025,1.741674 -0.1258922,2.76365 0.2032599,1.729419 0.1511123,1.91105 -0.7528384,2.622094 -0.9664207,0.76019 -3.1644097,0.93962 -6.34413,0.51789 z M 3.374202,99.718897 C 4.0597021,99.163812 4.1131515,98.932679 3.809946,97.834566 3.3738069,96.255 4.0319985,94.149315 5.3073361,93.044133 c 3.9919946,-3.459388 10.7478829,-0.0078 9.3723599,4.788408 -0.271042,0.945078 -0.208276,1.26666 0.357692,1.832628 0.795786,0.795781 1.98646,0.856061 5.776264,0.292393 3.78242,-0.562564 3.939364,-0.727506 3.166276,-3.327644 -0.826209,-2.778806 -0.891078,-7.670659 -0.112081,-8.452252 0.618059,-0.62012 1.065022,-0.658696 3.722571,-0.321275 1.710401,0.217167 1.884878,0.163259 3.099033,-0.957481 1.602482,-1.47919 1.963586,-3.168421 1.076787,-5.037205 -0.874395,-1.842646 -2.252955,-2.459397 -4.905745,-2.194757 -1.17747,0.117464 -2.315524,0.09674 -2.529015,-0.04603 -1.304611,-0.872536 -1.523506,-3.482464 -0.647686,-7.722571 0.30341,-1.468899 0.467141,-2.890954 0.363848,-3.16013 -0.263521,-0.686732 -28.9966373,-0.734346 -29.2270788,-0.04843 -0.081481,0.242535 0.088438,1.314097 0.3775993,2.38125 0.2891613,1.067153 0.5410376,3.15299 0.5597243,4.635197 0.047371,3.757496 -0.4224761,4.261506 -3.6895936,3.95786 -2.0856962,-0.193845 -2.5172002,-0.126612 -3.4498882,0.537517 -0.586309,0.417491 -1.251927,1.322376 -1.479144,2.010858 -1.189623,3.604581 2.166563,6.822828 5.7192192,5.484156 2.9146854,-1.098278 3.8326908,2.581046 2.2081738,8.850263 -0.3915163,1.510905 -0.4438439,2.247597 -0.178495,2.512946 0.418525,0.418525 4.43621947,1.205646 6.4208732,1.257936 0.7527008,0.0198 1.6070792,-0.22792 2.0651718,-0.598866 z"
         id="path77"
         inkscape:connector-curvature="0" />
    </g>
  </g>
</svg>
