<?xml version="1.0" encoding="UTF-8" standalone="no"?>
<!-- Created with Inkscape (http://www.inkscape.org/) -->

<svg
   xmlns:dc="http://purl.org/dc/elements/1.1/"
   xmlns:cc="http://creativecommons.org/ns#"
   xmlns:rdf="http://www.w3.org/1999/02/22-rdf-syntax-ns#"
   xmlns:svg="http://www.w3.org/2000/svg"
   xmlns="http://www.w3.org/2000/svg"
   xmlns:sodipodi="http://sodipodi.sourceforge.net/DTD/sodipodi-0.dtd"
   xmlns:inkscape="http://www.inkscape.org/namespaces/inkscape"
   width="210mm"
   height="297mm"
   viewBox="0 0 210 297"
   version="1.1"
   id="svg8"
   inkscape:version="0.92.5 (0.92.5+69)"
   sodipodi:docname="drawing-2.svg">
  <defs
     id="defs2">
    <clipPath
       id="clipPath191"
       clipPathUnits="userSpaceOnUse">
      <rect
         transform="matrix(0.76659254,0.64213385,-0.66135958,0.750069,0,0)"
         y="178.75385"
         x="-168.07741"
         height="37.279057"
         width="135.11331"
         id="rect193"
         style="fill:#ff00ff;fill-opacity:1;stroke:#000000;stroke-width:0.30222017;stroke-miterlimit:4;stroke-dasharray:0.60444031, 0.30222015;stroke-dashoffset:0;stroke-opacity:1" />
    </clipPath>
    <clipPath
       id="clipPath191-7"
       clipPathUnits="userSpaceOnUse">
      <rect
         transform="matrix(0.76659254,0.64213385,-0.66135958,0.750069,0,0)"
         y="178.75385"
         x="-168.07741"
         height="37.279057"
         width="135.11331"
         id="rect193-5"
         style="fill:#ff00ff;fill-opacity:1;stroke:#000000;stroke-width:0.30222017;stroke-miterlimit:4;stroke-dasharray:0.60444031, 0.30222015;stroke-dashoffset:0;stroke-opacity:1" />
    </clipPath>
    <clipPath
       id="clipPath303"
       clipPathUnits="userSpaceOnUse">
      <rect
         y="76.337997"
         x="34.417007"
         height="98.505966"
         width="89.081558"
         id="rect305"
         style="fill:#ff00ff;fill-opacity:1;stroke:#000000;stroke-width:0.56540465;stroke-miterlimit:4;stroke-dasharray:1.13080939, 0.5654047;stroke-dashoffset:0;stroke-opacity:1" />
    </clipPath>
  </defs>
  <sodipodi:namedview
     id="base"
     pagecolor="#ffffff"
     bordercolor="#666666"
     borderopacity="1.0"
     inkscape:pageopacity="0.0"
     inkscape:pageshadow="2"
     inkscape:zoom="0.35"
     inkscape:cx="400"
     inkscape:cy="560"
     inkscape:document-units="mm"
     inkscape:current-layer="layer1"
     showgrid="false"
     inkscape:window-width="1299"
     inkscape:window-height="713"
     inkscape:window-x="67"
     inkscape:window-y="27"
     inkscape:window-maximized="1" />
  <metadata
     id="metadata5">
    <rdf:RDF>
      <cc:Work
         rdf:about="">
        <dc:format>image/svg+xml</dc:format>
        <dc:type
           rdf:resource="http://purl.org/dc/dcmitype/StillImage" />
        <dc:title></dc:title>
      </cc:Work>
    </rdf:RDF>
  </metadata>
  <g
     inkscape:label="Layer 1"
     inkscape:groupmode="layer"
     id="layer1">
    <g
       id="g209"
       transform="translate(-19.654762,3.7797619)">
      <path
         style="fill:#f7dda4;stroke-width:0.08466667"
         d="m 70.978111,164.41593 c -0.813981,-0.26569 -1.422034,-0.8419 -1.71876,-1.62873 -0.245053,-0.64981 -0.210984,-1.63209 0.07973,-2.29878 0.253477,-0.58131 0.949931,-1.22482 1.536385,-1.41961 0.577882,-0.19194 1.587192,-0.13877 2.06867,0.10898 0.762896,0.39256 1.301678,1.26792 1.430182,2.32361 0.103465,0.85 0.146771,0.83022 -1.817966,0.83022 -1.417085,0 -1.690355,0.0198 -1.690355,0.12228 0,0.22572 0.377314,0.56309 0.714479,0.63884 0.425207,0.0955 0.752468,0.0329 1.244351,-0.23814 l 0.392496,-0.21627 0.433004,0.36253 c 0.238152,0.19939 0.433004,0.40866 0.433004,0.46504 0,0.15757 -0.50692,0.6034 -0.931334,0.81909 -0.472753,0.24026 -1.626152,0.30973 -2.173886,0.13094 z m 1.665886,-3.34289 c 0,-0.41159 -0.671797,-0.84179 -1.133562,-0.72589 -0.120602,0.0303 -0.333989,0.18568 -0.474191,0.34537 -0.435147,0.4956 -0.376849,0.53843 0.732865,0.53843 0.797357,0 0.874888,-0.014 0.874888,-0.15791 z m 13.123334,3.32964 c -0.443959,-0.19876 -0.827064,-0.61368 -0.973397,-1.05425 -0.105462,-0.31751 -0.126152,-0.76587 -0.107733,-2.33473 l 0.0228,-1.94175 h 0.804334 0.804333 l 0.04467,1.69334 c 0.02456,0.93133 0.07667,1.76106 0.115794,1.84385 0.141074,0.29853 0.712273,0.42044 1.070833,0.22854 0.325198,-0.17404 0.372947,-0.41553 0.418135,-2.11473 l 0.04391,-1.651 h 0.804334 0.804333 l 0.02242,2.57215 c 0.01593,1.82729 -0.0055,2.60574 -0.07387,2.68816 -0.06756,0.0814 -0.308534,0.11603 -0.807687,0.11603 -0.682752,0 -0.714667,-0.009 -0.792657,-0.21374 l -0.08126,-0.21373 -0.351786,0.2328 c -0.436524,0.28888 -1.293704,0.36116 -1.767499,0.14906 z m 20.271259,-0.0391 c -0.63041,-0.24955 -1.08672,-0.68222 -1.4082,-1.33523 -0.24985,-0.50753 -0.27854,-0.64089 -0.27689,-1.28762 0.002,-0.83415 0.2238,-1.42894 0.74945,-2.01076 0.80877,-0.89523 2.44651,-1.07142 3.41794,-0.36772 0.73623,0.53332 1.15086,1.42876 1.10558,2.38761 l -0.0255,0.53943 -1.69096,0.023 c -0.93002,0.0127 -1.72631,0.0584 -1.76953,0.1016 -0.0483,0.0483 0.0371,0.19428 0.22199,0.37914 0.27596,0.27597 0.3411,0.30053 0.79586,0.30014 0.37777,-3.4e-4 0.57567,-0.0499 0.83397,-0.20903 0.18627,-0.11472 0.39582,-0.20822 0.46567,-0.20776 0.19806,0.001 0.84666,0.63205 0.84666,0.82336 0,0.19678 -0.3729,0.53586 -0.87913,0.79938 -0.51142,0.26623 -1.79001,0.30074 -2.38694,0.0644 z m 1.86896,-3.21712 c 0.0757,-0.12253 -0.20643,-0.56148 -0.44194,-0.68753 -0.24262,-0.12984 -0.69708,-0.12799 -0.94341,0.004 -0.20697,0.11076 -0.46582,0.56492 -0.391,0.68599 0.0673,0.10884 1.70898,0.1067 1.77635,-0.002 z m -49.131953,3.20023 c -0.07462,-0.0746 -0.1016,-0.79399 -0.1016,-2.70934 v -2.60773 h -0.9144 c -0.598311,0 -0.94952,-0.0351 -1.016,-0.1016 -0.134848,-0.13485 -0.134848,-1.27062 0,-1.40547 0.145376,-0.14537 5.493425,-0.14537 5.6388,0 0.134849,0.13485 0.134849,1.27062 0,1.40547 -0.06648,0.0665 -0.417688,0.1016 -1.016,0.1016 h -0.9144 v 2.57629 c 0,2.22919 -0.01792,2.59421 -0.133047,2.70933 -0.165409,0.16541 -1.38455,0.19025 -1.543353,0.0315 z m 4.572,0 c -0.118871,-0.11887 -0.14724,-6.89204 -0.02964,-7.0774 0.05024,-0.0792 0.277431,-0.10254 0.824204,-0.0847 l 0.754839,0.0247 0.02362,1.12183 c 0.01299,0.61701 0.04239,1.12183 0.06532,1.12183 0.02293,0 0.199362,-0.10434 0.392072,-0.23187 0.281777,-0.18647 0.467919,-0.23746 0.950685,-0.26041 0.780481,-0.0371 1.245242,0.18955 1.616303,0.78826 l 0.254,0.40983 0.02676,2.02352 c 0.01948,1.473 -5.93e-4,2.05651 -0.07387,2.14476 -0.133238,0.16055 -1.372304,0.17127 -1.503641,0.013 -0.05453,-0.0657 -0.100187,-0.76727 -0.116201,-1.7855 l -0.02638,-1.67728 -0.237554,-0.20416 c -0.438127,-0.37655 -1.086444,-0.18437 -1.239698,0.36747 -0.04847,0.17455 -0.08835,0.98956 -0.08861,1.81114 -4.23e-4,1.28374 -0.0193,1.501 -0.134397,1.54516 -0.244078,0.0937 -1.3521,0.0555 -1.457809,-0.0502 z m 15.010367,0.0153 c -0.08485,-0.1373 -0.0538,-6.79303 0.0321,-6.87893 0.04338,-0.0434 0.864794,-0.0623 1.885566,-0.0434 1.965028,0.0363 2.151463,0.075 2.786689,0.57765 0.984106,0.7788 1.111552,2.51082 0.25625,3.4825 -0.533878,0.60651 -1.181872,0.85414 -2.356072,0.90037 l -0.9525,0.0375 v 0.90375 c 0,0.59003 -0.03527,0.93902 -0.1016,1.00535 -0.125661,0.12566 -1.474001,0.13893 -1.550433,0.0153 z m 3.305399,-3.65548 c 0.255898,-0.11659 0.463301,-0.46929 0.463301,-0.78785 0,-0.31856 -0.207403,-0.67126 -0.463301,-0.78785 -0.1221,-0.0556 -0.544057,-0.10115 -0.937683,-0.10115 h -0.715683 v 0.889 0.889 h 0.715683 c 0.393626,0 0.815583,-0.0455 0.937683,-0.10115 z m 8.94825,3.64157 c -0.05873,-0.0587 -0.101979,-0.32298 -0.10069,-0.61519 l 0.0023,-0.51223 1.225867,-1.35467 1.225867,-1.35466 -1.074473,-0.0238 c -0.636023,-0.0141 -1.121302,-0.0627 -1.189235,-0.11905 -0.08158,-0.0677 -0.107646,-0.26892 -0.09015,-0.69586 l 0.02461,-0.60061 h 2.286 2.286 l 0.02498,0.56925 c 0.02845,0.64819 0.213682,0.37446 -1.591316,2.35162 l -0.889,0.9738 1.227666,0.0423 1.227667,0.0423 v 0.67733 0.67733 l -2.246551,0.0225 c -1.676342,0.0168 -2.272682,-0.004 -2.3495,-0.0804 z m 5.456829,0.0438 c -0.03105,-0.031 -0.05645,-0.31293 -0.05645,-0.62642 v -0.56998 l 1.164167,-1.28715 c 0.640292,-0.70793 1.176867,-1.32139 1.192389,-1.36324 0.01572,-0.0424 -0.434359,-0.0767 -1.016,-0.0774 -0.574322,-6.8e-4 -1.093641,-0.0326 -1.154042,-0.071 -0.07784,-0.0494 -0.102496,-0.25239 -0.08467,-0.69721 l 0.02515,-0.62754 2.237783,-0.0226 c 1.733831,-0.0175 2.253121,0.002 2.305871,0.0847 0.0375,0.059 0.0687,0.31987 0.0694,0.57972 l 0.001,0.47245 -1.225627,1.34788 c -0.674094,0.74134 -1.226544,1.37646 -1.227667,1.41138 -0.0011,0.0349 0.504689,0.0635 1.124026,0.0635 0.762938,0 1.158828,0.0328 1.227668,0.1016 0.13262,0.13262 0.13262,1.10352 0,1.23614 -0.0738,0.0738 -0.706184,0.1016 -2.314223,0.1016 -1.216943,0 -2.238023,-0.0254 -2.269067,-0.0564 z m 5.717818,-0.0452 c -0.0757,-0.0757 -0.1016,-0.99088 -0.1016,-3.59536 0,-4.00703 -0.078,-3.66904 0.84667,-3.66904 0.92522,0 0.84667,-0.34507 0.84667,3.71925 0,3.15353 -0.0148,3.54962 -0.13393,3.59535 -0.24408,0.0937 -1.3521,0.0555 -1.45781,-0.0502 z M 87.629997,152.38061 c -1.513416,-0.43017 -6.142566,-1.74412 -10.287,-2.91989 -4.55328,-1.29176 -7.577216,-2.18994 -7.641166,-2.26961 -0.08335,-0.10385 -0.105834,-2.30293 -0.105834,-10.35341 0,-5.62186 0.02313,-10.28183 0.05139,-10.35549 0.02826,-0.0737 0.111082,-0.13392 0.184036,-0.13392 0.189878,0 6.815445,1.87545 6.927678,1.96096 0.05139,0.0392 0.137096,0.49979 0.190456,1.02362 0.258022,2.53302 1.237877,4.61233 3.007368,6.38182 0.809744,0.80974 1.763688,1.51616 2.677737,1.98293 0.20955,0.107 1.004676,0.4141 1.766946,0.68244 1.508781,0.53112 2.381859,1.00149 3.226899,1.73847 1.45774,1.27134 2.391241,2.82957 2.798545,4.67142 0.146781,0.66375 0.16279,1.10331 0.164444,4.51511 0.0014,2.94795 -0.02146,3.78835 -0.104001,3.81873 -0.05821,0.0214 -1.344083,-0.313 -2.8575,-0.74318 z m 8.185481,-6.16386 c -2.045466,-0.58838 -3.31315,-0.99343 -3.356483,-1.07246 -0.0383,-0.0699 -0.08731,-0.79375 -0.108911,-1.60867 -0.03439,-1.29741 -0.06779,-1.57643 -0.268581,-2.24367 -0.453999,-1.50868 -1.251509,-2.79341 -2.378911,-3.83224 -0.91363,-0.84185 -1.753019,-1.31043 -3.353649,-1.87213 -0.76227,-0.2675 -1.671565,-0.6365 -2.020656,-0.82 -2.55143,-1.34114 -4.587939,-3.91461 -5.295257,-6.69146 -0.301416,-1.18331 -0.377699,-2.17933 -0.377699,-4.93146 0,-2.1017 0.02076,-2.55021 0.121958,-2.63419 0.09737,-0.0808 1.262478,0.22346 5.7785,1.50904 3.111098,0.88563 7.751006,2.20483 10.310906,2.93154 2.559901,0.72671 4.68348,1.36695 4.719065,1.42276 0.03558,0.0558 0.05567,4.74968 0.04463,10.43081 l -0.02006,10.32933 -0.254,0.0141 c -0.1397,0.008 -1.733084,-0.41133 -3.540853,-0.93134 z"
         id="path223"
         inkscape:connector-curvature="0" />
      <path
         style="fill:#aecadf;stroke-width:0.08466667"
         d="m 85.767331,164.40268 c -0.443959,-0.19876 -0.827064,-0.61368 -0.973397,-1.05425 -0.105462,-0.31751 -0.126152,-0.76587 -0.107733,-2.33473 l 0.0228,-1.94175 h 0.804334 0.804333 l 0.04467,1.69334 c 0.02456,0.93133 0.07667,1.76106 0.115794,1.84385 0.141074,0.29853 0.712273,0.42044 1.070833,0.22854 0.325198,-0.17404 0.372947,-0.41553 0.418135,-2.11473 l 0.04391,-1.651 h 0.804334 0.804333 l 0.02242,2.57215 c 0.01593,1.82729 -0.0055,2.60574 -0.07387,2.68816 -0.06756,0.0814 -0.308534,0.11603 -0.807687,0.11603 -0.682752,0 -0.714667,-0.009 -0.792657,-0.21374 l -0.08126,-0.21373 -0.351786,0.2328 c -0.436524,0.28888 -1.293704,0.36116 -1.767499,0.14906 z m 20.271259,-0.0391 c -0.63041,-0.24955 -1.08672,-0.68222 -1.4082,-1.33523 -0.24985,-0.50753 -0.27854,-0.64089 -0.27689,-1.28762 0.002,-0.83415 0.2238,-1.42894 0.74945,-2.01076 0.80877,-0.89523 2.44651,-1.07142 3.41794,-0.36772 0.73623,0.53332 1.15086,1.42876 1.10558,2.38761 l -0.0255,0.53943 -1.69096,0.023 c -0.93002,0.0127 -1.72631,0.0584 -1.76953,0.1016 -0.0483,0.0483 0.0371,0.19428 0.22199,0.37914 0.27596,0.27597 0.3411,0.30053 0.79586,0.30014 0.37777,-3.4e-4 0.57567,-0.0499 0.83397,-0.20903 0.18627,-0.11472 0.39582,-0.20822 0.46567,-0.20776 0.19806,0.001 0.84666,0.63205 0.84666,0.82336 0,0.19678 -0.3729,0.53586 -0.87913,0.79938 -0.51142,0.26623 -1.79001,0.30074 -2.38694,0.0644 z m 1.86896,-3.21712 c 0.0757,-0.12253 -0.20643,-0.56148 -0.44194,-0.68753 -0.24262,-0.12984 -0.69708,-0.12799 -0.94341,0.004 -0.20697,0.11076 -0.46582,0.56492 -0.391,0.68599 0.0673,0.10884 1.70898,0.1067 1.77635,-0.002 z m -36.929672,3.14479 c -0.867544,-0.29979 -1.402414,-0.83788 -1.68174,-1.69187 -0.315856,-0.96568 0.0642,-2.39065 0.789648,-2.96072 0.622561,-0.48922 0.849453,-0.5661 1.669211,-0.56561 0.665571,4.3e-4 0.817675,0.0297 1.20195,0.23164 0.823665,0.4328 1.331792,1.38932 1.278941,2.40754 l -0.02556,0.49239 -1.690953,0.023 c -0.930023,0.0127 -1.725429,0.0575 -1.767569,0.0996 -0.04571,0.0457 -0.0026,0.19635 0.106827,0.37344 0.366594,0.59316 1.286223,0.71531 1.974046,0.2622 0.173627,-0.11437 0.335442,-0.20796 0.35959,-0.20796 0.127104,0 0.721725,0.63521 0.721725,0.77099 0,0.21077 -0.777511,0.71997 -1.27,0.83174 -0.565322,0.1283 -1.172678,0.10408 -1.666119,-0.0664 z m 1.79254,-3.05936 c 0.07834,-0.12675 -0.210273,-0.67383 -0.432184,-0.81923 -0.522355,-0.34226 -1.229512,-0.15628 -1.516586,0.39886 -0.23812,0.46047 -0.158002,0.5041 0.925695,0.5041 0.548971,0 0.993829,-0.0364 1.023075,-0.0837 z m 5.587546,3.13006 c -0.08485,-0.1373 -0.0538,-6.79303 0.0321,-6.87893 0.04338,-0.0434 0.864794,-0.0623 1.885566,-0.0434 1.965028,0.0363 2.151463,0.075 2.786689,0.57765 0.984106,0.7788 1.111552,2.51082 0.25625,3.4825 -0.533878,0.60651 -1.181872,0.85414 -2.356072,0.90037 l -0.9525,0.0375 v 0.90375 c 0,0.59003 -0.03527,0.93902 -0.1016,1.00535 -0.125661,0.12566 -1.474001,0.13893 -1.550433,0.0153 z m 3.305399,-3.65548 c 0.255898,-0.11659 0.463301,-0.46929 0.463301,-0.78785 0,-0.31856 -0.207403,-0.67126 -0.463301,-0.78785 -0.1221,-0.0556 -0.544057,-0.10115 -0.937683,-0.10115 h -0.715683 v 0.889 0.889 h 0.715683 c 0.393626,0 0.815583,-0.0455 0.937683,-0.10115 z m 8.94825,3.64157 c -0.05873,-0.0587 -0.101979,-0.32298 -0.10069,-0.61519 l 0.0023,-0.51223 1.225867,-1.35467 1.225867,-1.35466 -1.074473,-0.0238 c -0.636023,-0.0141 -1.121302,-0.0627 -1.189235,-0.11905 -0.08158,-0.0677 -0.107646,-0.26892 -0.09015,-0.69586 l 0.02461,-0.60061 h 2.286 2.286 l 0.02498,0.56925 c 0.02845,0.64819 0.213682,0.37446 -1.591316,2.35162 l -0.889,0.9738 1.227666,0.0423 1.227667,0.0423 v 0.67733 0.67733 l -2.246551,0.0225 c -1.676342,0.0168 -2.272682,-0.004 -2.3495,-0.0804 z m 5.456829,0.0438 c -0.03105,-0.031 -0.05645,-0.31293 -0.05645,-0.62642 v -0.56998 l 1.164167,-1.28715 c 0.640292,-0.70793 1.176867,-1.32139 1.192389,-1.36324 0.01572,-0.0424 -0.434359,-0.0767 -1.016,-0.0774 -0.574322,-6.8e-4 -1.093641,-0.0326 -1.154042,-0.071 -0.07784,-0.0494 -0.102496,-0.25239 -0.08467,-0.69721 l 0.02515,-0.62754 2.237783,-0.0226 c 1.733831,-0.0175 2.253121,0.002 2.305871,0.0847 0.0375,0.059 0.0687,0.31987 0.0694,0.57972 l 0.001,0.47245 -1.225627,1.34788 c -0.674094,0.74134 -1.226544,1.37646 -1.227667,1.41138 -0.0011,0.0349 0.504689,0.0635 1.124026,0.0635 0.762938,0 1.158828,0.0328 1.227668,0.1016 0.13262,0.13262 0.13262,1.10352 0,1.23614 -0.0738,0.0738 -0.706184,0.1016 -2.314223,0.1016 -1.216943,0 -2.238023,-0.0254 -2.269067,-0.0564 z m 5.717818,-0.0452 c -0.0757,-0.0757 -0.1016,-0.99088 -0.1016,-3.59536 0,-4.00703 -0.078,-3.66904 0.84667,-3.66904 0.92522,0 0.84667,-0.34507 0.84667,3.71925 0,3.15353 -0.0148,3.54962 -0.13393,3.59535 -0.24408,0.0937 -1.3521,0.0555 -1.45781,-0.0502 z m -42.894548,-0.11612 c -0.115123,-0.11512 -0.133048,-0.48014 -0.133048,-2.70933 v -2.57629 h -0.882075 c -0.485142,0 -0.942342,-0.0231 -1.016,-0.0514 -0.105165,-0.0404 -0.133925,-0.18386 -0.133925,-0.66827 0,-0.48442 0.02876,-0.62792 0.133925,-0.66828 0.07366,-0.0283 1.304288,-0.0514 2.734733,-0.0514 1.909963,0 2.627796,0.027 2.702409,0.1016 0.05905,0.059 0.1016,0.34207 0.1016,0.67572 0,0.67935 0.04976,0.65165 -1.227667,0.68334 l -0.846667,0.021 -0.02241,2.62044 c -0.01682,1.96698 -0.0485,2.637 -0.127,2.68687 -0.19786,0.12567 -1.141216,0.0786 -1.283871,-0.064 z m 4.587119,0.0416 c -0.137209,-0.0799 -0.148071,-0.33488 -0.146871,-3.44759 6.78e-4,-1.84871 0.0326,-3.41063 0.07085,-3.47094 0.04971,-0.0784 0.260725,-0.10251 0.739537,-0.0847 l 0.669982,0.025 0.02356,1.16417 c 0.01839,0.90896 0.0486,1.16417 0.137799,1.16417 0.06283,0 0.166534,-0.0632 0.230445,-0.14042 0.195371,-0.23609 0.770596,-0.44843 1.220093,-0.45039 0.792396,-0.003 1.431668,0.48507 1.646416,1.25818 0.125867,0.45313 0.11257,3.84421 -0.01558,3.97236 -0.0585,0.0585 -0.338667,0.1016 -0.6604,0.1016 -0.321733,0 -0.601903,-0.0431 -0.6604,-0.1016 -0.07169,-0.0717 -0.101693,-0.56388 -0.101917,-1.67217 -2.54e-4,-1.40739 -0.01746,-1.59867 -0.165294,-1.84114 -0.294579,-0.48312 -1.031462,-0.48241 -1.392074,0.001 -0.163832,0.21978 -0.180088,0.36772 -0.204476,1.86097 -0.01852,1.13399 -0.05674,1.64144 -0.127,1.68611 -0.147847,0.094 -1.092426,0.0754 -1.264672,-0.025 z m 24.151166,-11.89156 c -1.513416,-0.43017 -6.142566,-1.74412 -10.287,-2.91989 -4.55328,-1.29176 -7.577216,-2.18994 -7.641166,-2.26961 -0.08335,-0.10385 -0.105834,-2.30293 -0.105834,-10.35341 0,-5.62186 0.02313,-10.28183 0.05139,-10.35549 0.02826,-0.0737 0.111082,-0.13392 0.184036,-0.13392 0.189878,0 6.815445,1.87545 6.927678,1.96096 0.05139,0.0392 0.137096,0.49979 0.190456,1.02362 0.258022,2.53302 1.237877,4.61233 3.007368,6.38182 0.809744,0.80974 1.763688,1.51616 2.677737,1.98293 0.20955,0.107 1.004676,0.4141 1.766946,0.68244 1.508781,0.53112 2.381859,1.00149 3.226899,1.73847 1.45774,1.27134 2.391241,2.82957 2.798545,4.67142 0.146781,0.66375 0.16279,1.10331 0.164444,4.51511 0.0014,2.94795 -0.02146,3.78835 -0.104001,3.81873 -0.05821,0.0214 -1.344083,-0.313 -2.8575,-0.74318 z m 8.255,-6.24864 -3.302,-0.94901 -0.05525,-1.26817 c -0.063,-1.44598 -0.164547,-2.10144 -0.465191,-3.00265 -0.67174,-2.01361 -2.175624,-3.78343 -4.038439,-4.75257 -0.366168,-0.1905 -1.158501,-0.51163 -1.760738,-0.71363 -1.938763,-0.65026 -3.361725,-1.52987 -4.594017,-2.83981 -1.375013,-1.46164 -2.247854,-3.13373 -2.681309,-5.13653 -0.155872,-0.72021 -0.184282,-1.20158 -0.223715,-3.79047 -0.03736,-2.45277 -0.02507,-2.98154 0.07108,-3.05831 0.08793,-0.0702 2.610911,0.61648 10.356888,2.81889 5.632351,1.60144 10.270531,2.95863 10.307065,3.01598 0.03654,0.0573 0.0574,4.71436 0.04636,10.34893 -0.01993,10.17561 -0.02121,10.24477 -0.189398,10.26051 -0.09313,0.009 -1.655234,-0.41121 -3.471334,-0.93316 z"
         id="path221"
         inkscape:connector-curvature="0" />
      <path
         style="fill:#f7c967;stroke-width:0.08466667"
         d="m 70.977878,164.29125 c -0.867544,-0.29979 -1.402414,-0.83788 -1.68174,-1.69187 -0.315856,-0.96568 0.0642,-2.39065 0.789648,-2.96072 0.622561,-0.48922 0.849453,-0.5661 1.669211,-0.56561 0.665571,4.3e-4 0.817675,0.0297 1.20195,0.23164 0.823665,0.4328 1.331792,1.38932 1.278941,2.40754 l -0.02556,0.49239 -1.690953,0.023 c -0.930023,0.0127 -1.725429,0.0575 -1.767569,0.0996 -0.04571,0.0457 -0.0026,0.19635 0.106827,0.37344 0.366594,0.59316 1.286223,0.71531 1.974046,0.2622 0.173627,-0.11437 0.335442,-0.20796 0.35959,-0.20796 0.127104,0 0.721725,0.63521 0.721725,0.77099 0,0.21077 -0.777511,0.71997 -1.27,0.83174 -0.565322,0.1283 -1.172678,0.10408 -1.666119,-0.0664 z m 1.79254,-3.05936 c 0.07834,-0.12675 -0.210273,-0.67383 -0.432184,-0.81923 -0.522355,-0.34226 -1.229512,-0.15628 -1.516586,0.39886 -0.23812,0.46047 -0.158002,0.5041 0.925695,0.5041 0.548971,0 0.993829,-0.0364 1.023075,-0.0837 z m 12.951077,3.0618 c -0.419442,-0.1961 -0.76542,-0.59326 -0.881771,-1.0122 -0.04829,-0.17387 -0.08766,-1.1774 -0.08792,-2.24104 l -4.72e-4,-1.92616 h 0.762 0.762 v 1.56905 c 0,2.0411 0.108876,2.32561 0.889946,2.32561 0.227988,0 0.372949,-0.0645 0.5559,-0.24748 l 0.247487,-0.24749 0.0013,-1.59401 c 6.78e-4,-0.87671 0.03255,-1.64328 0.07075,-1.7035 0.04999,-0.0788 0.269075,-0.10253 0.78187,-0.0847 l 0.712415,0.0248 v 2.58233 2.58234 l -0.664193,0.0249 c -0.703206,0.0263 -0.90214,-0.0479 -0.90214,-0.33683 0,-0.14594 -0.04312,-0.13327 -0.387115,0.11377 -0.329351,0.23653 -0.471483,0.28193 -0.9525,0.30429 -0.419683,0.0195 -0.653564,-0.0149 -0.907554,-0.1337 z m 20.354775,-0.007 c -1.49513,-0.58482 -2.1042,-2.32824 -1.34917,-3.86192 0.52675,-1.06997 1.58717,-1.59575 2.79079,-1.38374 1.25378,0.22085 2.04077,1.2472 2.04077,2.66146 0,0.50128 -0.0107,0.52847 -0.22977,0.58346 -0.12638,0.0317 -0.85981,0.0517 -1.62984,0.0444 -1.7374,-0.0165 -1.69639,-0.0188 -1.69639,0.0956 0,0.052 0.14793,0.24254 0.32871,0.42333 0.30752,0.30752 0.36073,0.32864 0.8255,0.32768 0.37278,-7.6e-4 0.58878,-0.0536 0.86527,-0.21166 0.20266,-0.11586 0.414,-0.21065 0.46965,-0.21065 0.1789,0 0.74621,0.64823 0.71424,0.81611 -0.0372,0.1952 -0.73735,0.67343 -1.15635,0.78981 -0.49787,0.13828 -1.5298,0.0997 -1.97341,-0.0739 z m 1.85883,-3.04506 c 0.0925,-0.0586 0.0908,-0.12205 -0.01,-0.3624 -0.15957,-0.38191 -0.47622,-0.57993 -0.92734,-0.57993 -0.42203,0 -0.68748,0.15797 -0.8751,0.52078 -0.22924,0.44332 -0.14183,0.49537 0.82946,0.49392 0.47877,-6.8e-4 0.92093,-0.0333 0.98259,-0.0724 z m -49.043388,2.98862 c -0.115123,-0.11512 -0.133048,-0.48014 -0.133048,-2.70933 v -2.57629 h -0.882075 c -0.485142,0 -0.942342,-0.0231 -1.016,-0.0514 -0.105165,-0.0404 -0.133925,-0.18386 -0.133925,-0.66827 0,-0.48442 0.02876,-0.62792 0.133925,-0.66828 0.07366,-0.0283 1.304288,-0.0514 2.734733,-0.0514 1.909963,0 2.627796,0.027 2.702409,0.1016 0.05905,0.059 0.1016,0.34207 0.1016,0.67572 0,0.67935 0.04976,0.65165 -1.227667,0.68334 l -0.846667,0.021 -0.02241,2.62044 c -0.01682,1.96698 -0.0485,2.637 -0.127,2.68687 -0.19786,0.12567 -1.141216,0.0786 -1.283871,-0.064 z m 4.587119,0.0416 c -0.137209,-0.0799 -0.148071,-0.33488 -0.146871,-3.44759 6.78e-4,-1.84871 0.0326,-3.41063 0.07085,-3.47094 0.04971,-0.0784 0.260725,-0.10251 0.739537,-0.0847 l 0.669982,0.025 0.02356,1.16417 c 0.01839,0.90896 0.0486,1.16417 0.137799,1.16417 0.06283,0 0.166534,-0.0632 0.230445,-0.14042 0.195371,-0.23609 0.770596,-0.44843 1.220093,-0.45039 0.792396,-0.003 1.431668,0.48507 1.646416,1.25818 0.125867,0.45313 0.11257,3.84421 -0.01558,3.97236 -0.0585,0.0585 -0.338667,0.1016 -0.6604,0.1016 -0.321733,0 -0.601903,-0.0431 -0.6604,-0.1016 -0.07169,-0.0717 -0.101693,-0.56388 -0.101917,-1.67217 -2.54e-4,-1.40739 -0.01746,-1.59867 -0.165294,-1.84114 -0.294579,-0.48312 -1.031462,-0.48241 -1.392074,0.001 -0.163832,0.21978 -0.180088,0.36772 -0.204476,1.86097 -0.01852,1.13399 -0.05674,1.64144 -0.127,1.68611 -0.147847,0.094 -1.092426,0.0754 -1.264672,-0.025 z m 14.942533,-0.007 c -0.148663,-0.14866 -0.151626,-6.50937 -0.0031,-6.6579 0.07196,-0.072 0.575454,-0.1016 1.725944,-0.1016 1.883273,0 2.272957,0.0835 2.879246,0.61721 0.488598,0.43008 0.723944,0.89887 0.775842,1.54541 0.08682,1.08162 -0.350745,1.86783 -1.299492,2.3349 -0.496012,0.24419 -0.652848,0.27686 -1.542154,0.32132 l -0.989986,0.0495 -0.04233,0.97367 -0.04233,0.97367 -0.678466,0.0243 c -0.455128,0.0163 -0.712931,-0.0102 -0.783167,-0.0804 z m 3.284738,-3.50127 c 0.637043,-0.32943 0.673041,-1.27516 0.06284,-1.65088 -0.233391,-0.14371 -0.397882,-0.16717 -1.039277,-0.14821 l -0.762,0.0225 -0.02442,0.84065 c -0.01343,0.46235 -0.0051,0.89097 0.01851,0.9525 0.0634,0.16521 1.417694,0.15234 1.744343,-0.0166 z m 8.945048,3.5447 c -0.0318,-0.0318 -0.05782,-0.28121 -0.05782,-0.55426 v -0.49643 l 0.736619,-0.82295 c 0.405141,-0.45263 0.957591,-1.06248 1.227667,-1.35522 0.270075,-0.29275 0.491047,-0.5679 0.491047,-0.61145 0,-0.0441 -0.515074,-0.0896 -1.164167,-0.10273 l -1.164166,-0.0236 -0.02488,-0.61383 -0.02488,-0.61383 h 2.247376 2.247376 v 0.55046 0.55046 l -1.2065,1.32153 c -0.663575,0.72684 -1.218614,1.37342 -1.233421,1.43685 -0.02156,0.0924 0.214233,0.11999 1.185333,0.13884 l 1.212254,0.0235 v 0.59267 0.59267 l -2.207013,0.0225 c -1.213858,0.0124 -2.233033,-0.003 -2.264834,-0.0353 z m 5.449241,-0.1073 c -0.108224,-0.20222 -0.114284,-0.60518 -0.0131,-0.87131 0.04141,-0.10892 0.61208,-0.78767 1.268153,-1.50835 0.656074,-0.72067 1.193692,-1.33888 1.194708,-1.37381 0.001,-0.0349 -0.504884,-0.0635 -1.12422,-0.0635 -0.762941,0 -1.15883,-0.0328 -1.227667,-0.1016 -0.113688,-0.11368 -0.13646,-0.89772 -0.0309,-1.06402 0.05273,-0.0831 0.563592,-0.10219 2.263537,-0.0847 l 2.195438,0.0226 0.0225,0.508 0.0225,0.508 -1.268041,1.39609 c -0.697423,0.76785 -1.240188,1.42395 -1.206147,1.45799 0.03404,0.034 0.594519,0.0726 1.245507,0.0856 l 1.183621,0.0237 v 0.59267 0.59267 l -2.218777,0.0226 c -2.125702,0.0216 -2.222481,0.0156 -2.307167,-0.1426 z m 5.728529,0.10907 c -0.0328,-0.0328 -0.0596,-1.63031 -0.0596,-3.55009 0,-3.10477 0.0148,-3.49617 0.13393,-3.54188 0.19484,-0.0748 1.15996,-0.0605 1.28519,0.019 0.0837,0.0531 0.10201,0.82559 0.0847,3.57587 l -0.0221,3.50808 -0.68125,0.0243 c -0.37468,0.0134 -0.70806,-0.003 -0.74083,-0.0353 z m -21.677148,-14.1311 c -5.626442,-1.59933 -10.284167,-2.95292 -10.3505,-3.00797 -0.18627,-0.15459 -0.181016,-20.63549 0.0053,-20.70699 0.115238,-0.0442 6.656655,1.76503 6.879511,1.90276 0.0533,0.0329 0.138517,0.46894 0.189371,0.96889 0.330694,3.251 1.9693,6.00164 4.6419,7.79208 0.788104,0.52798 1.421125,0.82135 2.884243,1.33671 1.638213,0.57703 2.472882,1.04843 3.409645,1.92566 1.184573,1.10929 1.929895,2.30321 2.414798,3.86823 l 0.235156,0.75897 0.02838,3.97044 c 0.01561,2.18375 -0.0023,3.9994 -0.03977,4.03478 -0.03749,0.0354 -4.671606,-1.24422 -10.298046,-2.84356 z m 15.733225,-4.04698 -3.302,-0.94901 -0.05525,-1.26817 c -0.063,-1.44598 -0.164547,-2.10144 -0.465191,-3.00265 -0.67174,-2.01361 -2.175624,-3.78343 -4.038439,-4.75257 -0.366168,-0.1905 -1.158501,-0.51163 -1.760738,-0.71363 -1.938763,-0.65026 -3.361725,-1.52987 -4.594017,-2.83981 -1.375013,-1.46164 -2.247854,-3.13373 -2.681309,-5.13653 -0.155872,-0.72021 -0.184282,-1.20158 -0.223715,-3.79047 -0.03736,-2.45277 -0.02507,-2.98154 0.07108,-3.05831 0.08793,-0.0702 2.610911,0.61648 10.356888,2.81889 5.632351,1.60144 10.270531,2.95863 10.307065,3.01598 0.03654,0.0573 0.0574,4.71436 0.04636,10.34893 -0.01993,10.17561 -0.02121,10.24477 -0.189398,10.26051 -0.09313,0.009 -1.655234,-0.41121 -3.471334,-0.93316 z"
         id="path219"
         inkscape:connector-curvature="0" />
      <path
         style="fill:#8db6d4;stroke-width:0.08466667"
         d="m 85.721495,164.29369 c -0.419442,-0.1961 -0.76542,-0.59326 -0.881771,-1.0122 -0.04829,-0.17387 -0.08766,-1.1774 -0.08792,-2.24104 l -4.72e-4,-1.92616 h 0.762 0.762 v 1.56905 c 0,2.0411 0.108876,2.32561 0.889946,2.32561 0.227988,0 0.372949,-0.0645 0.5559,-0.24748 l 0.247487,-0.24749 0.0013,-1.59401 c 6.78e-4,-0.87671 0.03255,-1.64328 0.07075,-1.7035 0.04999,-0.0788 0.269075,-0.10253 0.78187,-0.0847 l 0.712415,0.0248 v 2.58233 2.58234 l -0.664193,0.0249 c -0.703206,0.0263 -0.90214,-0.0479 -0.90214,-0.33683 0,-0.14594 -0.04312,-0.13327 -0.387115,0.11377 -0.329351,0.23653 -0.471483,0.28193 -0.9525,0.30429 -0.419683,0.0195 -0.653564,-0.0149 -0.907554,-0.1337 z m 20.354775,-0.007 c -1.49513,-0.58482 -2.1042,-2.32824 -1.34917,-3.86192 0.52675,-1.06997 1.58717,-1.59575 2.79079,-1.38374 1.25378,0.22085 2.04077,1.2472 2.04077,2.66146 0,0.50128 -0.0107,0.52847 -0.22977,0.58346 -0.12638,0.0317 -0.85981,0.0517 -1.62984,0.0444 -1.7374,-0.0165 -1.69639,-0.0188 -1.69639,0.0956 0,0.052 0.14793,0.24254 0.32871,0.42333 0.30752,0.30752 0.36073,0.32864 0.8255,0.32768 0.37278,-7.6e-4 0.58878,-0.0536 0.86527,-0.21166 0.20266,-0.11586 0.414,-0.21065 0.46965,-0.21065 0.1789,0 0.74621,0.64823 0.71424,0.81611 -0.0372,0.1952 -0.73735,0.67343 -1.15635,0.78981 -0.49787,0.13828 -1.5298,0.0997 -1.97341,-0.0739 z m 1.85883,-3.04506 c 0.0925,-0.0586 0.0908,-0.12205 -0.01,-0.3624 -0.15957,-0.38191 -0.47622,-0.57993 -0.92734,-0.57993 -0.42203,0 -0.68748,0.15797 -0.8751,0.52078 -0.22924,0.44332 -0.14183,0.49537 0.82946,0.49392 0.47877,-6.8e-4 0.92093,-0.0333 0.98259,-0.0724 z m -36.698036,3.04133 c -0.793811,-0.18951 -1.421676,-0.70413 -1.756098,-1.43936 -0.246589,-0.54213 -0.246589,-1.66781 0,-2.20994 0.697495,-1.53344 2.640412,-2.00284 3.857113,-0.93186 0.517104,0.45517 0.771796,1.05058 0.780741,1.82516 l 0.0068,0.59267 -1.735666,0.0423 c -1.686323,0.0411 -1.736392,0.0474 -1.761192,0.22116 -0.01443,0.10111 0.07584,0.2993 0.207713,0.45601 0.455111,0.54087 1.15506,0.65279 1.856629,0.29686 0.229084,-0.11623 0.454616,-0.21036 0.501183,-0.20919 0.166297,0.004 0.649214,0.51534 0.60232,0.63754 -0.02577,0.0671 -0.223208,0.23394 -0.438751,0.37063 -0.593234,0.37622 -1.428496,0.51327 -2.120835,0.34799 z m 1.6309,-3.01152 c 0.144697,-0.37707 -0.446396,-1.04597 -0.988569,-1.1187 -0.620696,-0.0833 -1.267398,0.43945 -1.267398,1.02439 v 0.22284 h 1.103324 c 0.90843,0 1.112036,-0.0227 1.152643,-0.12852 z m 5.5534,2.99336 c -0.148663,-0.14866 -0.151626,-6.50937 -0.0031,-6.6579 0.07196,-0.072 0.575454,-0.1016 1.725944,-0.1016 1.883273,0 2.272957,0.0835 2.879246,0.61721 0.488598,0.43008 0.723944,0.89887 0.775842,1.54541 0.08682,1.08162 -0.350745,1.86783 -1.299492,2.3349 -0.496012,0.24419 -0.652848,0.27686 -1.542154,0.32132 l -0.989986,0.0495 -0.04233,0.97367 -0.04233,0.97367 -0.678466,0.0243 c -0.455128,0.0163 -0.712931,-0.0102 -0.783167,-0.0804 z m 3.284738,-3.50127 c 0.637043,-0.32943 0.673041,-1.27516 0.06284,-1.65088 -0.233391,-0.14371 -0.397882,-0.16717 -1.039277,-0.14821 l -0.762,0.0225 -0.02442,0.84065 c -0.01343,0.46235 -0.0051,0.89097 0.01851,0.9525 0.0634,0.16521 1.417694,0.15234 1.744343,-0.0166 z m 8.945048,3.5447 c -0.0318,-0.0318 -0.05782,-0.28121 -0.05782,-0.55426 v -0.49643 l 0.736619,-0.82295 c 0.405141,-0.45263 0.957591,-1.06248 1.227667,-1.35522 0.270075,-0.29275 0.491047,-0.5679 0.491047,-0.61145 0,-0.0441 -0.515074,-0.0896 -1.164167,-0.10273 l -1.164166,-0.0236 -0.02488,-0.61383 -0.02488,-0.61383 h 2.247376 2.247376 v 0.55046 0.55046 l -1.2065,1.32153 c -0.663575,0.72684 -1.218614,1.37342 -1.233421,1.43685 -0.02156,0.0924 0.214233,0.11999 1.185333,0.13884 l 1.212254,0.0235 v 0.59267 0.59267 l -2.207013,0.0225 c -1.213858,0.0124 -2.233033,-0.003 -2.264834,-0.0353 z m 5.449241,-0.1073 c -0.108224,-0.20222 -0.114284,-0.60518 -0.0131,-0.87131 0.04141,-0.10892 0.61208,-0.78767 1.268153,-1.50835 0.656074,-0.72067 1.193692,-1.33888 1.194708,-1.37381 0.001,-0.0349 -0.504884,-0.0635 -1.12422,-0.0635 -0.762941,0 -1.15883,-0.0328 -1.227667,-0.1016 -0.113688,-0.11368 -0.13646,-0.89772 -0.0309,-1.06402 0.05273,-0.0831 0.563592,-0.10219 2.263537,-0.0847 l 2.195438,0.0226 0.0225,0.508 0.0225,0.508 -1.268041,1.39609 c -0.697423,0.76785 -1.240188,1.42395 -1.206147,1.45799 0.03404,0.034 0.594519,0.0726 1.245507,0.0856 l 1.183621,0.0237 v 0.59267 0.59267 l -2.218777,0.0226 c -2.125702,0.0216 -2.222481,0.0156 -2.307167,-0.1426 z m 5.728529,0.10907 c -0.0328,-0.0328 -0.0596,-1.63031 -0.0596,-3.55009 0,-3.10477 0.0148,-3.49617 0.13393,-3.54188 0.19484,-0.0748 1.15996,-0.0605 1.28519,0.019 0.0837,0.0531 0.10201,0.82559 0.0847,3.57587 l -0.0221,3.50808 -0.68125,0.0243 c -0.37468,0.0134 -0.70806,-0.003 -0.74083,-0.0353 z m -42.900923,-2.64911 c 0,-1.39319 -0.02313,-2.59334 -0.05139,-2.667 -0.04227,-0.11014 -0.206436,-0.13392 -0.924409,-0.13392 -0.480159,0 -0.933283,-0.0231 -1.006941,-0.0514 -0.102798,-0.0394 -0.133925,-0.17719 -0.133925,-0.59266 v -0.54128 h 2.751666 2.751667 v 0.54872 c 0,0.65007 0.04418,0.62639 -1.227667,0.65795 l -0.846666,0.021 -0.02237,2.64583 -0.02237,2.64584 h -0.633794 -0.633794 z m 4.572,-0.89592 v -3.429 h 0.635 0.635 v 1.18033 c 0,0.70928 0.03439,1.20159 0.08617,1.23359 0.04739,0.0293 0.23682,-0.0661 0.42095,-0.21189 0.768796,-0.6089 1.803364,-0.54148 2.390039,0.15574 0.334106,0.39706 0.411413,0.96012 0.385573,2.80829 l -0.02306,1.6496 -0.604638,0.0247 -0.604637,0.0247 -0.03375,-1.59102 c -0.03683,-1.73654 -0.103748,-2.01414 -0.532613,-2.20954 -0.524075,-0.23878 -1.099483,-0.063 -1.335735,0.40803 -0.124728,0.24868 -0.148056,0.53842 -0.148166,1.84032 l -1.32e-4,1.54517 h -0.635 -0.635 z m 16.651775,-10.58634 c -5.626442,-1.59933 -10.284167,-2.95292 -10.3505,-3.00797 -0.18627,-0.15459 -0.181016,-20.63549 0.0053,-20.70699 0.115238,-0.0442 6.656655,1.76503 6.879511,1.90276 0.0533,0.0329 0.138517,0.46894 0.189371,0.96889 0.330694,3.251 1.9693,6.00164 4.6419,7.79208 0.788104,0.52798 1.421125,0.82135 2.884243,1.33671 1.638213,0.57703 2.472882,1.04843 3.409645,1.92566 1.184573,1.10929 1.929895,2.30321 2.414798,3.86823 l 0.235156,0.75897 0.02838,3.97044 c 0.01561,2.18375 -0.0023,3.9994 -0.03977,4.03478 -0.03749,0.0354 -4.671606,-1.24422 -10.298046,-2.84356 z m 15.817892,-4.13123 -3.302,-0.94577 -0.05417,-1.35466 c -0.06146,-1.537 -0.233223,-2.40188 -0.693551,-3.49236 -0.746582,-1.76858 -2.286981,-3.41281 -4.017066,-4.28784 -0.245734,-0.12429 -0.905139,-0.37866 -1.465345,-0.56527 -1.287357,-0.42883 -1.824126,-0.66666 -2.610787,-1.15678 -2.557669,-1.59353 -4.273046,-4.1392 -4.791145,-7.1102 -0.149388,-0.85666 -0.187167,-6.45922 -0.04355,-6.45922 0.08597,0 1.92637,0.51778 9.780955,2.75179 2.561167,0.72844 5.987318,1.70172 7.613669,2.16283 1.62635,0.46112 2.987931,0.88699 3.025733,0.94639 0.103174,0.16211 0.04762,20.40905 -0.05607,20.43537 -0.04657,0.0118 -1.570567,-0.4041 -3.386667,-0.92428 z"
         id="path217"
         inkscape:connector-curvature="0" />
      <path
         style="fill:#f9af15;stroke-width:0.08466667"
         d="m 85.997728,164.32993 c -0.468226,-0.12811 -0.765961,-0.37796 -1.019232,-0.85531 -0.163326,-0.30783 -0.182621,-0.50275 -0.211891,-2.14068 -0.01771,-0.9911 -0.0086,-1.89598 0.02021,-2.01083 0.05016,-0.19987 0.081,-0.20882 0.719072,-0.20882 0.529804,0 0.677212,0.0275 0.718054,0.13392 0.02827,0.0737 0.05139,0.8185 0.05139,1.65521 0,1.68912 0.05463,1.91774 0.502596,2.10329 0.343076,0.14211 0.777238,0.0504 1.02903,-0.21731 0.198354,-0.21091 0.20522,-0.26455 0.246374,-1.92487 l 0.04233,-1.70791 h 0.677333 0.677334 l 0.02241,2.56117 0.02241,2.56116 h -0.681232 c -0.531461,0 -0.689955,-0.0279 -0.720908,-0.127 -0.13547,-0.43362 -0.115268,-0.4187 -0.317053,-0.23425 -0.469846,0.42948 -1.143983,0.58575 -1.778226,0.41223 z m 20.367822,0.001 c -1.2399,-0.40661 -1.88689,-1.2946 -1.88689,-2.58974 0,-1.46467 0.93766,-2.55483 2.30745,-2.68274 1.04099,-0.0972 1.953,0.37568 2.39083,1.2397 0.2408,0.47521 0.4299,1.40665 0.3501,1.72457 l -0.0563,0.2242 h -1.73406 c -1.65454,0 -1.73405,0.007 -1.73405,0.16284 0,0.24726 0.39168,0.66025 0.73302,0.7729 0.38285,0.12635 0.98107,0.0489 1.34113,-0.17362 0.38009,-0.23491 0.4696,-0.21713 0.84562,0.16795 l 0.32946,0.3374 -0.20177,0.21477 c -0.53584,0.57039 -1.86899,0.86923 -2.68457,0.60177 z m 1.66612,-3.20584 c -0.0111,-0.70279 -0.92891,-1.14152 -1.57011,-0.75051 -0.2715,0.16556 -0.59054,0.71185 -0.50065,0.85728 0.0294,0.0476 0.48763,0.0837 1.06275,0.0837 0.99289,0 1.01095,-0.003 1.00801,-0.1905 z m -36.794606,3.15816 c -0.793811,-0.18951 -1.421676,-0.70413 -1.756098,-1.43936 -0.246589,-0.54212 -0.246589,-1.66781 0,-2.20993 0.697495,-1.53345 2.640412,-2.00285 3.857113,-0.93187 0.517104,0.45518 0.771796,1.05058 0.780741,1.82517 l 0.0068,0.59267 -1.735666,0.0423 c -1.686323,0.0411 -1.736392,0.0474 -1.761192,0.22116 -0.01443,0.1011 0.07584,0.29929 0.207713,0.45601 0.455111,0.54087 1.15506,0.65278 1.856629,0.29685 0.229084,-0.11622 0.454616,-0.21035 0.501183,-0.20918 0.166297,0.004 0.649214,0.51533 0.60232,0.63753 -0.02577,0.0672 -0.223208,0.23394 -0.438751,0.37064 -0.593234,0.37622 -1.428496,0.51326 -2.120835,0.34798 z m 1.6309,-3.01151 c 0.144697,-0.37708 -0.446396,-1.04598 -0.988569,-1.1187 -0.620696,-0.0833 -1.267398,0.43944 -1.267398,1.02438 v 0.22284 h 1.103324 c 0.90843,0 1.112036,-0.0227 1.152643,-0.12852 z m 5.573327,2.90453 c -0.02312,-0.0602 -0.03205,-1.55722 -0.01983,-3.32661 l 0.02221,-3.21707 1.677572,-0.023 c 1.852253,-0.0254 2.128555,0.0177 2.735305,0.42629 0.602375,0.40565 0.87879,0.98278 0.87879,1.83483 0,0.54406 -0.03869,0.72878 -0.232834,1.11159 -0.441581,0.87071 -1.247847,1.26361 -2.5977,1.26589 -0.42229,6.8e-4 -0.814053,0.0307 -0.870586,0.0666 -0.06776,0.0431 -0.111037,0.38162 -0.127,0.99354 l -0.02421,0.92822 -0.699835,0.0246 c -0.512768,0.018 -0.711071,-0.005 -0.741871,-0.0849 z m 3.170626,-3.33352 c 0.420102,-0.16809 0.627636,-0.4776 0.627636,-0.93604 0,-0.73621 -0.536709,-1.07336 -1.638673,-1.02938 l -0.633216,0.0253 -0.02419,0.92589 c -0.0133,0.50924 -0.005,0.97597 0.01851,1.03717 0.0626,0.16313 1.225335,0.14698 1.649934,-0.0229 z m 9.033338,3.30364 c -0.07647,-0.19927 -0.0632,-0.59067 0.02762,-0.81445 0.04375,-0.10781 0.615232,-0.78656 1.269964,-1.50835 0.654731,-0.72178 1.177793,-1.35043 1.162357,-1.397 -0.01631,-0.0492 -0.502525,-0.0946 -1.160729,-0.10841 -0.775959,-0.0163 -1.153326,-0.0563 -1.198271,-0.127 -0.111528,-0.17553 -0.07708,-0.87948 0.04812,-0.98339 0.08189,-0.068 0.73975,-0.0898 2.2225,-0.0739 l 2.106181,0.0227 0.02535,0.48556 0.02535,0.48555 -0.82451,0.91145 c -0.453482,0.50129 -1.026865,1.12769 -1.274188,1.39199 -0.247322,0.2643 -0.449676,0.52147 -0.449676,0.5715 0,0.0605 0.393967,0.0909 1.174966,0.0909 1.363984,0 1.38742,0.012 1.34853,0.69163 l -0.02583,0.45137 -2.212909,0.0226 c -1.962612,0.02 -2.218783,0.007 -2.264833,-0.11275 z m 5.507854,0.0761 c -0.03105,-0.031 -0.05644,-0.25739 -0.05644,-0.50298 v -0.44654 l 0.948306,-1.04219 c 0.521568,-0.5732 1.097131,-1.20766 1.279029,-1.40992 0.189277,-0.21046 0.299002,-0.39946 0.256555,-0.4419 -0.04079,-0.0408 -0.587782,-0.0849 -1.21553,-0.0979 l -1.14136,-0.0238 v -0.55034 -0.55033 h 2.159 2.159001 l 0.0248,0.51283 0.0248,0.51283 -1.228963,1.34984 c -0.675927,0.74241 -1.230005,1.39746 -1.231283,1.45567 -0.0017,0.0793 0.271628,0.10583 1.091417,0.10583 0.601558,0 1.154009,0.0231 1.227669,0.0514 0.1028,0.0394 0.13393,0.1772 0.13393,0.59267 v 0.54127 h -2.18723 c -1.202972,0 -2.212622,-0.0254 -2.243666,-0.0564 z m 5.700891,-3.45722 v -3.52052 l 0.6985,0.0246 0.6985,0.0246 v 3.47134 3.47133 l -0.6985,0.0246 -0.6985,0.0246 z m -42.926003,0.89592 c 0,-1.39319 -0.02313,-2.59334 -0.05139,-2.667 -0.04227,-0.11014 -0.206436,-0.13392 -0.924409,-0.13392 -0.480159,0 -0.933283,-0.0231 -1.006941,-0.0514 -0.102798,-0.0394 -0.133925,-0.17719 -0.133925,-0.59266 v -0.54128 h 2.751666 2.751667 v 0.54872 c 0,0.65007 0.04418,0.62639 -1.227667,0.65795 l -0.846666,0.021 -0.02237,2.64583 -0.02237,2.64584 h -0.633794 -0.633794 z m 4.572,-0.89592 v -3.429 h 0.635 0.635 v 1.18033 c 0,0.70928 0.03439,1.20159 0.08617,1.23359 0.04739,0.0293 0.23682,-0.0661 0.42095,-0.21189 0.768796,-0.6089 1.803364,-0.54148 2.390039,0.15574 0.334106,0.39706 0.411413,0.96012 0.385573,2.80829 l -0.02306,1.6496 -0.604638,0.0247 -0.604637,0.0247 -0.03375,-1.59102 c -0.03683,-1.73654 -0.103748,-2.01414 -0.532613,-2.20954 -0.524075,-0.23878 -1.099483,-0.063 -1.335735,0.40803 -0.124728,0.24868 -0.148056,0.53842 -0.148166,1.84032 l -1.32e-4,1.54517 h -0.635 -0.635 z m 16.594651,-10.65496 c -5.564726,-1.59044 -10.165301,-2.92253 -10.2235,-2.96021 -0.08369,-0.0542 -0.105817,-2.21873 -0.105817,-10.3505 0,-10.12428 0.0025,-10.282 0.164472,-10.282 0.302451,0 6.724834,1.86104 6.79303,1.96844 0.03698,0.0582 0.06782,0.28015 0.06854,0.49314 0.0021,0.61757 0.25257,1.91878 0.528531,2.74542 0.499681,1.49679 1.276615,2.77531 2.386771,3.92768 1.300459,1.34991 2.593431,2.14789 4.586293,2.8305 1.932158,0.66181 2.780171,1.18124 3.9389,2.41268 1.01678,1.08058 1.635923,2.21862 2.049234,3.76668 0.177507,0.66485 0.185234,0.85267 0.185234,4.50254 0,3.32275 -0.01621,3.81057 -0.127,3.82304 -0.06985,0.008 -4.679958,-1.28697 -10.244683,-2.87741 z m 15.875016,-4.06261 -3.302,-0.94577 -0.05417,-1.35466 c -0.06146,-1.537 -0.233223,-2.40188 -0.693551,-3.49236 -0.746582,-1.76858 -2.286981,-3.41281 -4.017066,-4.28784 -0.245734,-0.12429 -0.905139,-0.37866 -1.465345,-0.56527 -1.287357,-0.42883 -1.824126,-0.66666 -2.610787,-1.15678 -2.557669,-1.59353 -4.273046,-4.1392 -4.791145,-7.1102 -0.149388,-0.85666 -0.187167,-6.45922 -0.04355,-6.45922 0.08597,0 1.92637,0.51778 9.780955,2.75179 2.561167,0.72844 5.987318,1.70172 7.613669,2.16283 1.62635,0.46112 2.987931,0.88699 3.025733,0.94639 0.103174,0.16211 0.04762,20.40905 -0.05607,20.43537 -0.04657,0.0118 -1.570567,-0.4041 -3.386667,-0.92428 z"
         id="path215"
         inkscape:connector-curvature="0" />
      <path
         style="fill:#5595c4;stroke-width:0.08466667"
         d="m 85.997728,164.32993 c -0.468226,-0.12811 -0.765961,-0.37796 -1.019232,-0.85531 -0.163326,-0.30783 -0.182621,-0.50275 -0.211891,-2.14068 -0.01771,-0.9911 -0.0086,-1.89598 0.02021,-2.01083 0.05016,-0.19987 0.081,-0.20882 0.719072,-0.20882 0.529804,0 0.677212,0.0275 0.718054,0.13392 0.02827,0.0737 0.05139,0.8185 0.05139,1.65521 0,1.68912 0.05463,1.91774 0.502596,2.10329 0.343076,0.14211 0.777238,0.0504 1.02903,-0.21731 0.198354,-0.21091 0.20522,-0.26455 0.246374,-1.92487 l 0.04233,-1.70791 h 0.677333 0.677334 l 0.02241,2.56117 0.02241,2.56116 h -0.681232 c -0.531461,0 -0.689955,-0.0279 -0.720908,-0.127 -0.13547,-0.43362 -0.115268,-0.4187 -0.317053,-0.23425 -0.469846,0.42948 -1.143983,0.58575 -1.778226,0.41223 z m 20.367822,0.001 c -1.2399,-0.40661 -1.88689,-1.2946 -1.88689,-2.58974 0,-1.46467 0.93766,-2.55483 2.30745,-2.68274 1.04099,-0.0972 1.953,0.37568 2.39083,1.2397 0.2408,0.47521 0.4299,1.40665 0.3501,1.72457 l -0.0563,0.2242 h -1.73406 c -1.65454,0 -1.73405,0.007 -1.73405,0.16284 0,0.24726 0.39168,0.66025 0.73302,0.7729 0.38285,0.12635 0.98107,0.0489 1.34113,-0.17362 0.38009,-0.23491 0.4696,-0.21713 0.84562,0.16795 l 0.32946,0.3374 -0.20177,0.21477 c -0.53584,0.57039 -1.86899,0.86923 -2.68457,0.60177 z m 1.66612,-3.20584 c -0.0111,-0.70279 -0.92891,-1.14152 -1.57011,-0.75051 -0.2715,0.16556 -0.59054,0.71185 -0.50065,0.85728 0.0294,0.0476 0.48763,0.0837 1.06275,0.0837 0.99289,0 1.01095,-0.003 1.00801,-0.1905 z m -29.590379,3.05118 c -0.02312,-0.0602 -0.03205,-1.55722 -0.01983,-3.32661 l 0.02221,-3.21707 1.677572,-0.023 c 1.852253,-0.0254 2.128555,0.0177 2.735305,0.42629 0.602375,0.40565 0.87879,0.98278 0.87879,1.83483 0,0.54406 -0.03869,0.72878 -0.232834,1.11159 -0.441581,0.87071 -1.247847,1.26361 -2.5977,1.26589 -0.42229,6.8e-4 -0.814053,0.0307 -0.870586,0.0666 -0.06776,0.0431 -0.111037,0.38162 -0.127,0.99354 l -0.02421,0.92822 -0.699835,0.0246 c -0.512768,0.018 -0.711071,-0.005 -0.741871,-0.0849 z m 3.170626,-3.33352 c 0.420102,-0.16809 0.627636,-0.4776 0.627636,-0.93604 0,-0.73621 -0.536709,-1.07336 -1.638673,-1.02938 l -0.633216,0.0253 -0.02419,0.92589 c -0.0133,0.50924 -0.005,0.97597 0.01851,1.03717 0.0626,0.16313 1.225335,0.14698 1.649934,-0.0229 z m 9.033338,3.30364 c -0.07647,-0.19927 -0.0632,-0.59067 0.02762,-0.81445 0.04375,-0.10781 0.615232,-0.78656 1.269964,-1.50835 0.654731,-0.72178 1.177793,-1.35043 1.162357,-1.397 -0.01631,-0.0492 -0.502525,-0.0946 -1.160729,-0.10841 -0.775959,-0.0163 -1.153326,-0.0563 -1.198271,-0.127 -0.111528,-0.17553 -0.07708,-0.87948 0.04812,-0.98339 0.08189,-0.068 0.73975,-0.0898 2.2225,-0.0739 l 2.106181,0.0227 0.02535,0.48556 0.02535,0.48555 -0.82451,0.91145 c -0.453482,0.50129 -1.026865,1.12769 -1.274188,1.39199 -0.247322,0.2643 -0.449676,0.52147 -0.449676,0.5715 0,0.0605 0.393967,0.0909 1.174966,0.0909 1.363984,0 1.38742,0.012 1.34853,0.69163 l -0.02583,0.45137 -2.212909,0.0226 c -1.962612,0.02 -2.218783,0.007 -2.264833,-0.11275 z m 5.507854,0.0761 c -0.03105,-0.031 -0.05644,-0.25739 -0.05644,-0.50298 v -0.44654 l 0.948306,-1.04219 c 0.521568,-0.5732 1.097131,-1.20766 1.279029,-1.40992 0.189277,-0.21046 0.299002,-0.39946 0.256555,-0.4419 -0.04079,-0.0408 -0.587782,-0.0849 -1.21553,-0.0979 l -1.14136,-0.0238 v -0.55034 -0.55033 h 2.159 2.159001 l 0.0248,0.51283 0.0248,0.51283 -1.228963,1.34984 c -0.675927,0.74241 -1.230005,1.39746 -1.231283,1.45567 -0.0017,0.0793 0.271628,0.10583 1.091417,0.10583 0.601558,0 1.154009,0.0231 1.227669,0.0514 0.1028,0.0394 0.13393,0.1772 0.13393,0.59267 v 0.54127 h -2.18723 c -1.202972,0 -2.212622,-0.0254 -2.243666,-0.0564 z m 5.700891,-3.45722 v -3.52052 l 0.6985,0.0246 0.6985,0.0246 v 3.47134 3.47133 l -0.6985,0.0246 -0.6985,0.0246 z M 80.094648,150.11033 c -5.564726,-1.59044 -10.165301,-2.92253 -10.2235,-2.96021 -0.08369,-0.0542 -0.105817,-2.21873 -0.105817,-10.3505 0,-10.12428 0.0025,-10.282 0.164472,-10.282 0.302451,0 6.724834,1.86104 6.79303,1.96844 0.03698,0.0582 0.06782,0.28015 0.06854,0.49314 0.0021,0.61757 0.25257,1.91878 0.528531,2.74542 0.499681,1.49679 1.276615,2.77531 2.386771,3.92768 1.300459,1.34991 2.593431,2.14789 4.586293,2.8305 1.932158,0.66181 2.780171,1.18124 3.9389,2.41268 1.01678,1.08058 1.635923,2.21862 2.049234,3.76668 0.177507,0.66485 0.185234,0.85267 0.185234,4.50254 0,3.32275 -0.01621,3.81057 -0.127,3.82304 -0.06985,0.008 -4.679958,-1.28697 -10.244683,-2.87741 z"
         id="path213"
         inkscape:connector-curvature="0" />
      <path
         style="fill:#0263ac;stroke-width:0.08466667"
         d="m 106.48819,164.27668 c -0.81227,-0.20457 -1.54108,-0.8489 -1.7915,-1.58384 -0.17036,-0.49998 -0.17049,-1.30611 0,-1.87919 0.19835,-0.66792 0.9211,-1.38132 1.59626,-1.57563 0.6351,-0.18277 1.26744,-0.12543 1.87046,0.16959 0.7477,0.36582 1.19491,1.14751 1.24318,2.17298 l 0.0254,0.53936 -1.76015,0.0229 c -1.98444,0.0258 -2.01675,0.0376 -1.64393,0.60097 0.41002,0.61959 1.21001,0.77885 1.97156,0.39249 0.22908,-0.11622 0.44376,-0.21147 0.47707,-0.21167 0.0333,-1.7e-4 0.19705,0.11949 0.36387,0.26596 l 0.30332,0.26632 -0.22566,0.23554 c -0.47197,0.49264 -1.65943,0.77818 -2.42956,0.58422 z m 1.66605,-3.01457 c 0.0815,-0.21228 -0.21273,-0.72584 -0.54291,-0.94775 -0.58355,-0.3922 -1.40975,-0.1067 -1.69682,0.58635 -0.19213,0.46383 -0.11396,0.49958 1.09244,0.49958 0.93392,0 1.10203,-0.0203 1.14729,-0.13818 z m -22.45894,2.87321 c -0.377063,-0.18578 -0.669676,-0.64683 -0.776179,-1.22295 -0.04783,-0.25871 -0.07657,-1.19054 -0.06387,-2.07073 l 0.02308,-1.60035 h 0.635 0.635 l 0.04233,1.7128 c 0.04217,1.70616 0.04319,1.71365 0.262248,1.93249 0.420452,0.42002 1.254344,0.3365 1.534409,-0.15367 0.07318,-0.12808 0.122083,-0.72546 0.150676,-1.84062 l 0.04233,-1.651 0.613833,-0.0249 0.613833,-0.0249 v 2.50138 2.50138 h -0.635 -0.635 v -0.254 c 0,-0.3097 -0.228787,-0.34642 -0.473511,-0.076 -0.0886,0.0979 -0.264061,0.23125 -0.389918,0.29633 -0.315303,0.16305 -1.226619,0.14845 -1.579268,-0.0253 z m -7.209303,-3.19714 v -3.26323 h 1.678251 c 1.991177,0 2.294812,0.0703 2.895087,0.67061 0.476997,0.477 0.631247,0.95215 0.573067,1.7653 -0.04606,0.6438 -0.184858,0.96748 -0.580883,1.35467 -0.492691,0.48169 -0.948004,0.63968 -1.940855,0.67346 -1.378926,0.0469 -1.260435,-0.0507 -1.288402,1.06138 l -0.02393,0.95158 -0.656167,0.0247 -0.656167,0.0247 z m 3.163504,0.007 c 0.596791,-0.24936 0.864972,-0.91178 0.591728,-1.46162 -0.278871,-0.56115 -0.51316,-0.66531 -1.496564,-0.66531 h -0.861668 l -0.02399,1.01107 c -0.0132,0.55609 -0.0049,1.06092 0.01851,1.12184 0.05917,0.15418 1.399493,0.14966 1.771988,-0.006 z m 9.113163,2.78603 v -0.46629 l 1.275054,-1.40423 c 1.039884,-1.14524 1.256594,-1.42648 1.174967,-1.52484 -0.07748,-0.0934 -0.355947,-0.1206 -1.232721,-0.1206 h -1.132633 v -0.50948 -0.50947 l 2.0955,0.0226 2.0955,0.0226 0.02637,0.36675 c 0.03278,0.45588 -0.02654,0.54839 -1.117533,1.74286 -1.595188,1.74649 -1.536814,1.66929 -1.359991,1.79858 0.112047,0.0819 0.481397,0.11347 1.328759,0.11347 h 1.173575 l -0.02559,0.4445 -0.02559,0.4445 -2.137834,0.0226 -2.137833,0.0226 z m 5.418667,0.0406 c 0,-0.46429 -0.03562,-0.41625 1.852191,-2.4982 0.380018,-0.4191 0.680237,-0.81915 0.667152,-0.889 -0.01958,-0.10452 -0.237909,-0.13117 -1.233389,-0.15052 l -1.209598,-0.0235 0.02532,-0.48448 0.02532,-0.48448 2.0955,-0.0226 2.095503,-0.0226 v 0.47462 0.47462 L 99.229327,161.55 c -0.6985,0.77239 -1.27,1.45038 -1.27,1.50665 0,0.16164 0.303364,0.20434 1.4605,0.20558 l 1.079503,0.001 v 0.46567 0.46567 h -2.159003 -2.159 z m 5.757329,-3.0062 v -3.43642 l 0.61384,0.0249 0.61383,0.0249 v 3.38667 3.38666 l -0.61383,0.0249 -0.61384,0.0249 z m -17.271996,-9.45285 c -3.096683,-0.88113 -7.687733,-2.18708 -10.202333,-2.90212 l -4.572,-1.30007 -0.02151,-10.25398 c -0.01683,-8.02628 9.45e-4,-10.25398 0.08183,-10.25398 0.148856,0 6.430182,1.78333 6.607175,1.87584 0.112912,0.059 0.148166,0.1849 0.148166,0.52904 0,0.24838 0.05682,0.77743 0.126266,1.17567 0.448949,2.57445 1.879597,4.97551 3.891793,6.5316 1.233152,0.95363 1.795744,1.24321 3.70104,1.905 0.636588,0.22112 1.451438,0.56999 1.810776,0.77527 1.896776,1.08359 3.324211,2.95331 3.904702,5.11458 0.227337,0.84641 0.227415,0.84778 0.261401,4.56078 0.0187,2.04276 0.0023,3.74343 -0.03649,3.77927 -0.03877,0.0358 -2.604138,-0.65577 -5.700821,-1.5369 z"
         id="path211"
         inkscape:connector-curvature="0" />
    </g>
  </g>
</svg>
